<?xml version="1.0" encoding="UTF-8" standalone="no"?>
<!-- Created with Inkscape (http://www.inkscape.org/) -->

<svg
   width="118.16402mm"
   height="73.829041mm"
   viewBox="0 0 118.16402 73.82904"
   version="1.1"
   id="svg5"
   xml:space="preserve"
   inkscape:version="1.2 (dc2aedaf03, 2022-05-15)"
   sodipodi:docname="fig_1.28.svg"
   inkscape:export-filename="../img/fig_1.28.png"
   inkscape:export-xdpi="183.403"
   inkscape:export-ydpi="183.403"
   xmlns:inkscape="http://www.inkscape.org/namespaces/inkscape"
   xmlns:sodipodi="http://sodipodi.sourceforge.net/DTD/sodipodi-0.dtd"
   xmlns="http://www.w3.org/2000/svg"
   xmlns:svg="http://www.w3.org/2000/svg"><sodipodi:namedview
     id="namedview7"
     pagecolor="#121212"
     bordercolor="#666666"
     borderopacity="1.0"
     inkscape:showpageshadow="2"
     inkscape:pageopacity="1"
     inkscape:pagecheckerboard="0"
     inkscape:deskcolor="#d1d1d1"
     inkscape:document-units="mm"
     showgrid="false"
     inkscape:zoom="1.7903472"
     inkscape:cx="172.59222"
     inkscape:cy="144.10613"
     inkscape:window-width="1888"
     inkscape:window-height="1060"
     inkscape:window-x="32"
     inkscape:window-y="0"
     inkscape:window-maximized="1"
     inkscape:current-layer="layer1" /><defs
     id="defs2" /><g
     inkscape:label="Layer 1"
     inkscape:groupmode="layer"
     id="layer1"
     transform="translate(-32.697975,-46.40126)"><g
       id="g408"
       transform="matrix(-0.95246634,-0.95246634,0.95246634,-0.95246634,111.31611,222.44196)"><g
         id="g406"
         transform="matrix(0.41752957,0,0,0.41752957,15.543221,29.300189)"><path
           d="m 95.74523,84.924555 q 1.441979,0 2.487083,-0.740833 1.045104,-0.740834 1.508125,-1.971146 l 1.349372,-3.532188 q 0.0397,-0.105833 0.0595,-0.218281 0.0199,-0.112448 0.0199,-0.23151 0,-0.343959 -0.26459,-0.608542 -0.26458,-0.264583 -0.60854,-0.264583 -0.0794,0 -0.15213,0.0066 -0.0728,0.0066 -0.13891,0.03307 l -0.396873,0.105833 q -0.264584,0.06615 -0.416719,0.178594 -0.152136,0.112448 -0.337344,0.40349 V 74.40735 q 0,-0.46302 -0.330729,-0.79375 -0.330729,-0.330729 -0.79375,-0.330729 -0.15875,0 -0.291042,0.0463 -0.132291,0.0463 -0.238125,0.125677 v -0.105833 q 0,-0.463021 -0.337344,-0.79375 -0.337343,-0.330729 -0.800364,-0.330729 -0.423333,0 -0.727604,0.277812 -0.304271,0.277813 -0.370417,0.64823 -0.05292,-0.06615 -0.224896,-0.09922 -0.171979,-0.03307 -0.3175,-0.03307 -0.502708,0 -0.813593,0.377031 -0.310886,0.377031 -0.310886,0.840052 v 0.515938 q -0.0926,-0.07937 -0.238125,-0.112448 -0.145521,-0.03307 -0.291042,-0.03307 -0.46302,0 -0.79375,0.330729 -0.330729,0.330729 -0.330729,0.79375 v 5.093229 q 0,1.812396 1.144323,2.956719 1.144323,1.144323 2.956719,1.144323 z m 0,-0.79375 q -1.481667,0 -2.394479,-0.919427 -0.912813,-0.919427 -0.912813,-2.387865 v -5.093229 q 0,-0.145521 0.0926,-0.238125 0.09261,-0.0926 0.238125,-0.0926 0.145521,0 0.238125,0.0926 0.0926,0.0926 0.0926,0.238125 v 2.844271 h 0.992187 v -4.431771 q 0,-0.145521 0.0926,-0.238125 0.0926,-0.0926 0.238125,-0.0926 0.145521,0 0.238125,0.0926 0.0926,0.0926 0.0926,0.238125 v 4.431771 h 0.992188 v -5.225521 q 0,-0.145521 0.0926,-0.238125 0.0926,-0.0926 0.238125,-0.0926 0.145521,0 0.238125,0.0926 0.0926,0.0926 0.0926,0.238125 v 5.225521 h 0.992188 v -4.167188 q 0,-0.14552 0.0926,-0.238125 0.0926,-0.0926 0.238125,-0.0926 0.145521,0 0.238125,0.0926 0.0926,0.09261 0.0926,0.238125 v 5.622396 h 0.767292 l 0.489479,-1.243541 q 0.132292,-0.343959 0.337344,-0.443177 0.205052,-0.09922 0.535784,-0.178594 0.13229,-0.02646 0.17859,0.02646 0.0463,0.05292 -0.007,0.171979 l -1.375837,3.571875 q -0.383646,0.992188 -1.203854,1.594115 -0.820209,0.601927 -2.037292,0.601927 z"
           id="path402"
           style="fill:#ffffff;stroke-width:0.264583" /><path
           style="fill:#ffffff;stroke:#ffffff;stroke-width:0.765;stroke-linecap:butt;stroke-linejoin:miter;stroke-dasharray:none;stroke-opacity:1"
           d="M 95.683723,84.685487 V 102.6707"
           id="path404"
           sodipodi:nodetypes="cc" /></g></g><g
       id="g416"
       transform="matrix(0.95246634,-0.95246634,-0.95246634,-0.95246634,146.9398,221.31706)"><g
         id="g414"
         transform="matrix(0.41752957,0,0,0.41752957,15.543221,29.300189)"><path
           d="m 95.74523,84.924555 q 1.441979,0 2.487083,-0.740833 1.045104,-0.740834 1.508125,-1.971146 l 1.349372,-3.532188 q 0.0397,-0.105833 0.0595,-0.218281 0.0199,-0.112448 0.0199,-0.23151 0,-0.343959 -0.26459,-0.608542 -0.26458,-0.264583 -0.60854,-0.264583 -0.0794,0 -0.15213,0.0066 -0.0728,0.0066 -0.13891,0.03307 l -0.396873,0.105833 q -0.264584,0.06615 -0.416719,0.178594 -0.152136,0.112448 -0.337344,0.40349 V 74.40735 q 0,-0.46302 -0.330729,-0.79375 -0.330729,-0.330729 -0.79375,-0.330729 -0.15875,0 -0.291042,0.0463 -0.132291,0.0463 -0.238125,0.125677 v -0.105833 q 0,-0.463021 -0.337344,-0.79375 -0.337343,-0.330729 -0.800364,-0.330729 -0.423333,0 -0.727604,0.277812 -0.304271,0.277813 -0.370417,0.64823 -0.05292,-0.06615 -0.224896,-0.09922 -0.171979,-0.03307 -0.3175,-0.03307 -0.502708,0 -0.813593,0.377031 -0.310886,0.377031 -0.310886,0.840052 v 0.515938 q -0.0926,-0.07937 -0.238125,-0.112448 -0.145521,-0.03307 -0.291042,-0.03307 -0.46302,0 -0.79375,0.330729 -0.330729,0.330729 -0.330729,0.79375 v 5.093229 q 0,1.812396 1.144323,2.956719 1.144323,1.144323 2.956719,1.144323 z m 0,-0.79375 q -1.481667,0 -2.394479,-0.919427 -0.912813,-0.919427 -0.912813,-2.387865 v -5.093229 q 0,-0.145521 0.0926,-0.238125 0.09261,-0.0926 0.238125,-0.0926 0.145521,0 0.238125,0.0926 0.0926,0.0926 0.0926,0.238125 v 2.844271 h 0.992187 v -4.431771 q 0,-0.145521 0.0926,-0.238125 0.0926,-0.0926 0.238125,-0.0926 0.145521,0 0.238125,0.0926 0.0926,0.0926 0.0926,0.238125 v 4.431771 h 0.992188 v -5.225521 q 0,-0.145521 0.0926,-0.238125 0.0926,-0.0926 0.238125,-0.0926 0.145521,0 0.238125,0.0926 0.0926,0.0926 0.0926,0.238125 v 5.225521 h 0.992188 v -4.167188 q 0,-0.14552 0.0926,-0.238125 0.0926,-0.0926 0.238125,-0.0926 0.145521,0 0.238125,0.0926 0.0926,0.09261 0.0926,0.238125 v 5.622396 h 0.767292 l 0.489479,-1.243541 q 0.132292,-0.343959 0.337344,-0.443177 0.205052,-0.09922 0.535784,-0.178594 0.13229,-0.02646 0.17859,0.02646 0.0463,0.05292 -0.007,0.171979 l -1.375837,3.571875 q -0.383646,0.992188 -1.203854,1.594115 -0.820209,0.601927 -2.037292,0.601927 z"
           id="path410"
           style="fill:#ffffff;stroke-width:0.264583" /><path
           style="fill:#ffffff;stroke:#ffffff;stroke-width:0.765;stroke-linecap:butt;stroke-linejoin:miter;stroke-dasharray:none;stroke-opacity:1"
           d="M 95.683723,84.685487 V 102.6707"
           id="path412"
           sodipodi:nodetypes="cc" /></g></g><g
       id="g400"
       transform="matrix(-0.95246634,0.95246634,0.95246634,0.95246634,112.03439,-26.447476)"><g
         id="g398"
         transform="matrix(0.41752957,0,0,0.41752957,15.543221,29.300189)"><path
           d="m 95.74523,84.924555 q 1.441979,0 2.487083,-0.740833 1.045104,-0.740834 1.508125,-1.971146 l 1.349372,-3.532188 q 0.0397,-0.105833 0.0595,-0.218281 0.0199,-0.112448 0.0199,-0.23151 0,-0.343959 -0.26459,-0.608542 -0.26458,-0.264583 -0.60854,-0.264583 -0.0794,0 -0.15213,0.0066 -0.0728,0.0066 -0.13891,0.03307 l -0.396873,0.105833 q -0.264584,0.06615 -0.416719,0.178594 -0.152136,0.112448 -0.337344,0.40349 V 74.40735 q 0,-0.46302 -0.330729,-0.79375 -0.330729,-0.330729 -0.79375,-0.330729 -0.15875,0 -0.291042,0.0463 -0.132291,0.0463 -0.238125,0.125677 v -0.105833 q 0,-0.463021 -0.337344,-0.79375 -0.337343,-0.330729 -0.800364,-0.330729 -0.423333,0 -0.727604,0.277812 -0.304271,0.277813 -0.370417,0.64823 -0.05292,-0.06615 -0.224896,-0.09922 -0.171979,-0.03307 -0.3175,-0.03307 -0.502708,0 -0.813593,0.377031 -0.310886,0.377031 -0.310886,0.840052 v 0.515938 q -0.0926,-0.07937 -0.238125,-0.112448 -0.145521,-0.03307 -0.291042,-0.03307 -0.46302,0 -0.79375,0.330729 -0.330729,0.330729 -0.330729,0.79375 v 5.093229 q 0,1.812396 1.144323,2.956719 1.144323,1.144323 2.956719,1.144323 z m 0,-0.79375 q -1.481667,0 -2.394479,-0.919427 -0.912813,-0.919427 -0.912813,-2.387865 v -5.093229 q 0,-0.145521 0.0926,-0.238125 0.09261,-0.0926 0.238125,-0.0926 0.145521,0 0.238125,0.0926 0.0926,0.0926 0.0926,0.238125 v 2.844271 h 0.992187 v -4.431771 q 0,-0.145521 0.0926,-0.238125 0.0926,-0.0926 0.238125,-0.0926 0.145521,0 0.238125,0.0926 0.0926,0.0926 0.0926,0.238125 v 4.431771 h 0.992188 v -5.225521 q 0,-0.145521 0.0926,-0.238125 0.0926,-0.0926 0.238125,-0.0926 0.145521,0 0.238125,0.0926 0.0926,0.0926 0.0926,0.238125 v 5.225521 h 0.992188 v -4.167188 q 0,-0.14552 0.0926,-0.238125 0.0926,-0.0926 0.238125,-0.0926 0.145521,0 0.238125,0.0926 0.0926,0.09261 0.0926,0.238125 v 5.622396 h 0.767292 l 0.489479,-1.243541 q 0.132292,-0.343959 0.337344,-0.443177 0.205052,-0.09922 0.535784,-0.178594 0.13229,-0.02646 0.17859,0.02646 0.0463,0.05292 -0.007,0.171979 l -1.375837,3.571875 q -0.383646,0.992188 -1.203854,1.594115 -0.820209,0.601927 -2.037292,0.601927 z"
           id="path394"
           style="fill:#ffffff;stroke-width:0.264583" /><path
           style="fill:#ffffff;stroke:#ffffff;stroke-width:0.765;stroke-linecap:butt;stroke-linejoin:miter;stroke-dasharray:none;stroke-opacity:1"
           d="M 95.683723,84.685487 V 102.6707"
           id="path396"
           sodipodi:nodetypes="cc" /></g></g><g
       id="g392"
       transform="matrix(-1.1549711,-0.69312762,0.69312762,-1.1549711,105.96764,223.48639)"><g
         id="g390"
         transform="matrix(0.41752957,0,0,0.41752957,15.543221,29.300189)"><path
           d="m 95.74523,84.924555 q 1.441979,0 2.487083,-0.740833 1.045104,-0.740834 1.508125,-1.971146 l 1.349372,-3.532188 q 0.0397,-0.105833 0.0595,-0.218281 0.0199,-0.112448 0.0199,-0.23151 0,-0.343959 -0.26459,-0.608542 -0.26458,-0.264583 -0.60854,-0.264583 -0.0794,0 -0.15213,0.0066 -0.0728,0.0066 -0.13891,0.03307 l -0.396873,0.105833 q -0.264584,0.06615 -0.416719,0.178594 -0.152136,0.112448 -0.337344,0.40349 V 74.40735 q 0,-0.46302 -0.330729,-0.79375 -0.330729,-0.330729 -0.79375,-0.330729 -0.15875,0 -0.291042,0.0463 -0.132291,0.0463 -0.238125,0.125677 v -0.105833 q 0,-0.463021 -0.337344,-0.79375 -0.337343,-0.330729 -0.800364,-0.330729 -0.423333,0 -0.727604,0.277812 -0.304271,0.277813 -0.370417,0.64823 -0.05292,-0.06615 -0.224896,-0.09922 -0.171979,-0.03307 -0.3175,-0.03307 -0.502708,0 -0.813593,0.377031 -0.310886,0.377031 -0.310886,0.840052 v 0.515938 q -0.0926,-0.07937 -0.238125,-0.112448 -0.145521,-0.03307 -0.291042,-0.03307 -0.46302,0 -0.79375,0.330729 -0.330729,0.330729 -0.330729,0.79375 v 5.093229 q 0,1.812396 1.144323,2.956719 1.144323,1.144323 2.956719,1.144323 z m 0,-0.79375 q -1.481667,0 -2.394479,-0.919427 -0.912813,-0.919427 -0.912813,-2.387865 v -5.093229 q 0,-0.145521 0.0926,-0.238125 0.09261,-0.0926 0.238125,-0.0926 0.145521,0 0.238125,0.0926 0.0926,0.0926 0.0926,0.238125 v 2.844271 h 0.992187 v -4.431771 q 0,-0.145521 0.0926,-0.238125 0.0926,-0.0926 0.238125,-0.0926 0.145521,0 0.238125,0.0926 0.0926,0.0926 0.0926,0.238125 v 4.431771 h 0.992188 v -5.225521 q 0,-0.145521 0.0926,-0.238125 0.0926,-0.0926 0.238125,-0.0926 0.145521,0 0.238125,0.0926 0.0926,0.0926 0.0926,0.238125 v 5.225521 h 0.992188 v -4.167188 q 0,-0.14552 0.0926,-0.238125 0.0926,-0.0926 0.238125,-0.0926 0.145521,0 0.238125,0.0926 0.0926,0.09261 0.0926,0.238125 v 5.622396 h 0.767292 l 0.489479,-1.243541 q 0.132292,-0.343959 0.337344,-0.443177 0.205052,-0.09922 0.535784,-0.178594 0.13229,-0.02646 0.17859,0.02646 0.0463,0.05292 -0.007,0.171979 l -1.375837,3.571875 q -0.383646,0.992188 -1.203854,1.594115 -0.820209,0.601927 -2.037292,0.601927 z"
           id="path386"
           style="fill:#ffffff;stroke-width:0.264583" /><path
           style="fill:#ffffff;stroke:#ffffff;stroke-width:0.765;stroke-linecap:butt;stroke-linejoin:miter;stroke-dasharray:none;stroke-opacity:1"
           d="M 95.683723,84.685487 V 102.6707"
           id="path388"
           sodipodi:nodetypes="cc" /></g></g><g
       id="g384"
       transform="matrix(-0.95246634,0.95246634,0.95246634,0.95246634,74.13919,-24.190304)"><g
         id="g382"
         transform="matrix(0.41752957,0,0,0.41752957,15.543221,29.300189)"><path
           d="m 95.74523,84.924555 q 1.441979,0 2.487083,-0.740833 1.045104,-0.740834 1.508125,-1.971146 l 1.349372,-3.532188 q 0.0397,-0.105833 0.0595,-0.218281 0.0199,-0.112448 0.0199,-0.23151 0,-0.343959 -0.26459,-0.608542 -0.26458,-0.264583 -0.60854,-0.264583 -0.0794,0 -0.15213,0.0066 -0.0728,0.0066 -0.13891,0.03307 l -0.396873,0.105833 q -0.264584,0.06615 -0.416719,0.178594 -0.152136,0.112448 -0.337344,0.40349 V 74.40735 q 0,-0.46302 -0.330729,-0.79375 -0.330729,-0.330729 -0.79375,-0.330729 -0.15875,0 -0.291042,0.0463 -0.132291,0.0463 -0.238125,0.125677 v -0.105833 q 0,-0.463021 -0.337344,-0.79375 -0.337343,-0.330729 -0.800364,-0.330729 -0.423333,0 -0.727604,0.277812 -0.304271,0.277813 -0.370417,0.64823 -0.05292,-0.06615 -0.224896,-0.09922 -0.171979,-0.03307 -0.3175,-0.03307 -0.502708,0 -0.813593,0.377031 -0.310886,0.377031 -0.310886,0.840052 v 0.515938 q -0.0926,-0.07937 -0.238125,-0.112448 -0.145521,-0.03307 -0.291042,-0.03307 -0.46302,0 -0.79375,0.330729 -0.330729,0.330729 -0.330729,0.79375 v 5.093229 q 0,1.812396 1.144323,2.956719 1.144323,1.144323 2.956719,1.144323 z m 0,-0.79375 q -1.481667,0 -2.394479,-0.919427 -0.912813,-0.919427 -0.912813,-2.387865 v -5.093229 q 0,-0.145521 0.0926,-0.238125 0.09261,-0.0926 0.238125,-0.0926 0.145521,0 0.238125,0.0926 0.0926,0.0926 0.0926,0.238125 v 2.844271 h 0.992187 v -4.431771 q 0,-0.145521 0.0926,-0.238125 0.0926,-0.0926 0.238125,-0.0926 0.145521,0 0.238125,0.0926 0.0926,0.0926 0.0926,0.238125 v 4.431771 h 0.992188 v -5.225521 q 0,-0.145521 0.0926,-0.238125 0.0926,-0.0926 0.238125,-0.0926 0.145521,0 0.238125,0.0926 0.0926,0.0926 0.0926,0.238125 v 5.225521 h 0.992188 v -4.167188 q 0,-0.14552 0.0926,-0.238125 0.0926,-0.0926 0.238125,-0.0926 0.145521,0 0.238125,0.0926 0.0926,0.09261 0.0926,0.238125 v 5.622396 h 0.767292 l 0.489479,-1.243541 q 0.132292,-0.343959 0.337344,-0.443177 0.205052,-0.09922 0.535784,-0.178594 0.13229,-0.02646 0.17859,0.02646 0.0463,0.05292 -0.007,0.171979 l -1.375837,3.571875 q -0.383646,0.992188 -1.203854,1.594115 -0.820209,0.601927 -2.037292,0.601927 z"
           id="path378"
           style="fill:#ffffff;stroke-width:0.264583" /><path
           style="fill:#ffffff;stroke:#ffffff;stroke-width:0.765;stroke-linecap:butt;stroke-linejoin:miter;stroke-dasharray:none;stroke-opacity:1"
           d="M 95.683723,84.685487 V 102.6707"
           id="path380"
           sodipodi:nodetypes="cc" /></g></g><g
       id="g310"
       transform="matrix(-1.1691713,0.66889654,0.66889654,1.1691713,70.25677,-55.215408)"><g
         id="g320"
         transform="matrix(0.41752957,0,0,0.41752957,15.543221,29.300189)"><path
           d="m 95.74523,84.924555 q 1.441979,0 2.487083,-0.740833 1.045104,-0.740834 1.508125,-1.971146 l 1.349372,-3.532188 q 0.0397,-0.105833 0.0595,-0.218281 0.0199,-0.112448 0.0199,-0.23151 0,-0.343959 -0.26459,-0.608542 -0.26458,-0.264583 -0.60854,-0.264583 -0.0794,0 -0.15213,0.0066 -0.0728,0.0066 -0.13891,0.03307 l -0.396873,0.105833 q -0.264584,0.06615 -0.416719,0.178594 -0.152136,0.112448 -0.337344,0.40349 V 74.40735 q 0,-0.46302 -0.330729,-0.79375 -0.330729,-0.330729 -0.79375,-0.330729 -0.15875,0 -0.291042,0.0463 -0.132291,0.0463 -0.238125,0.125677 v -0.105833 q 0,-0.463021 -0.337344,-0.79375 -0.337343,-0.330729 -0.800364,-0.330729 -0.423333,0 -0.727604,0.277812 -0.304271,0.277813 -0.370417,0.64823 -0.05292,-0.06615 -0.224896,-0.09922 -0.171979,-0.03307 -0.3175,-0.03307 -0.502708,0 -0.813593,0.377031 -0.310886,0.377031 -0.310886,0.840052 v 0.515938 q -0.0926,-0.07937 -0.238125,-0.112448 -0.145521,-0.03307 -0.291042,-0.03307 -0.46302,0 -0.79375,0.330729 -0.330729,0.330729 -0.330729,0.79375 v 5.093229 q 0,1.812396 1.144323,2.956719 1.144323,1.144323 2.956719,1.144323 z m 0,-0.79375 q -1.481667,0 -2.394479,-0.919427 -0.912813,-0.919427 -0.912813,-2.387865 v -5.093229 q 0,-0.145521 0.0926,-0.238125 0.09261,-0.0926 0.238125,-0.0926 0.145521,0 0.238125,0.0926 0.0926,0.0926 0.0926,0.238125 v 2.844271 h 0.992187 v -4.431771 q 0,-0.145521 0.0926,-0.238125 0.0926,-0.0926 0.238125,-0.0926 0.145521,0 0.238125,0.0926 0.0926,0.0926 0.0926,0.238125 v 4.431771 h 0.992188 v -5.225521 q 0,-0.145521 0.0926,-0.238125 0.0926,-0.0926 0.238125,-0.0926 0.145521,0 0.238125,0.0926 0.0926,0.0926 0.0926,0.238125 v 5.225521 h 0.992188 v -4.167188 q 0,-0.14552 0.0926,-0.238125 0.0926,-0.0926 0.238125,-0.0926 0.145521,0 0.238125,0.0926 0.0926,0.09261 0.0926,0.238125 v 5.622396 h 0.767292 l 0.489479,-1.243541 q 0.132292,-0.343959 0.337344,-0.443177 0.205052,-0.09922 0.535784,-0.178594 0.13229,-0.02646 0.17859,0.02646 0.0463,0.05292 -0.007,0.171979 l -1.375837,3.571875 q -0.383646,0.992188 -1.203854,1.594115 -0.820209,0.601927 -2.037292,0.601927 z"
           id="path28702"
           style="fill:#ffffff;stroke-width:0.264583" /><path
           style="fill:#ffffff;stroke:#ffffff;stroke-width:0.765;stroke-linecap:butt;stroke-linejoin:miter;stroke-dasharray:none;stroke-opacity:1"
           d="M 95.683723,84.685487 V 102.6707"
           id="path29217"
           sodipodi:nodetypes="cc" /></g></g><g
       id="g328"
       transform="matrix(1.2605369,0.47479569,-0.47479569,1.2605369,54.698632,-50.802825)"><g
         id="g326"
         transform="matrix(0.41752957,0,0,0.41752957,15.543221,29.300189)"><path
           d="m 95.74523,84.924555 q 1.441979,0 2.487083,-0.740833 1.045104,-0.740834 1.508125,-1.971146 l 1.349372,-3.532188 q 0.0397,-0.105833 0.0595,-0.218281 0.0199,-0.112448 0.0199,-0.23151 0,-0.343959 -0.26459,-0.608542 -0.26458,-0.264583 -0.60854,-0.264583 -0.0794,0 -0.15213,0.0066 -0.0728,0.0066 -0.13891,0.03307 l -0.396873,0.105833 q -0.264584,0.06615 -0.416719,0.178594 -0.152136,0.112448 -0.337344,0.40349 V 74.40735 q 0,-0.46302 -0.330729,-0.79375 -0.330729,-0.330729 -0.79375,-0.330729 -0.15875,0 -0.291042,0.0463 -0.132291,0.0463 -0.238125,0.125677 v -0.105833 q 0,-0.463021 -0.337344,-0.79375 -0.337343,-0.330729 -0.800364,-0.330729 -0.423333,0 -0.727604,0.277812 -0.304271,0.277813 -0.370417,0.64823 -0.05292,-0.06615 -0.224896,-0.09922 -0.171979,-0.03307 -0.3175,-0.03307 -0.502708,0 -0.813593,0.377031 -0.310886,0.377031 -0.310886,0.840052 v 0.515938 q -0.0926,-0.07937 -0.238125,-0.112448 -0.145521,-0.03307 -0.291042,-0.03307 -0.46302,0 -0.79375,0.330729 -0.330729,0.330729 -0.330729,0.79375 v 5.093229 q 0,1.812396 1.144323,2.956719 1.144323,1.144323 2.956719,1.144323 z m 0,-0.79375 q -1.481667,0 -2.394479,-0.919427 -0.912813,-0.919427 -0.912813,-2.387865 v -5.093229 q 0,-0.145521 0.0926,-0.238125 0.09261,-0.0926 0.238125,-0.0926 0.145521,0 0.238125,0.0926 0.0926,0.0926 0.0926,0.238125 v 2.844271 h 0.992187 v -4.431771 q 0,-0.145521 0.0926,-0.238125 0.0926,-0.0926 0.238125,-0.0926 0.145521,0 0.238125,0.0926 0.0926,0.0926 0.0926,0.238125 v 4.431771 h 0.992188 v -5.225521 q 0,-0.145521 0.0926,-0.238125 0.0926,-0.0926 0.238125,-0.0926 0.145521,0 0.238125,0.0926 0.0926,0.0926 0.0926,0.238125 v 5.225521 h 0.992188 v -4.167188 q 0,-0.14552 0.0926,-0.238125 0.0926,-0.0926 0.238125,-0.0926 0.145521,0 0.238125,0.0926 0.0926,0.09261 0.0926,0.238125 v 5.622396 h 0.767292 l 0.489479,-1.243541 q 0.132292,-0.343959 0.337344,-0.443177 0.205052,-0.09922 0.535784,-0.178594 0.13229,-0.02646 0.17859,0.02646 0.0463,0.05292 -0.007,0.171979 l -1.375837,3.571875 q -0.383646,0.992188 -1.203854,1.594115 -0.820209,0.601927 -2.037292,0.601927 z"
           id="path322"
           style="fill:#ffffff;stroke-width:0.264583" /><path
           style="fill:#ffffff;stroke:#ffffff;stroke-width:0.765;stroke-linecap:butt;stroke-linejoin:miter;stroke-dasharray:none;stroke-opacity:1"
           d="M 95.683723,84.685487 V 102.6707"
           id="path324"
           sodipodi:nodetypes="cc" /></g></g><g
       id="g336"
       transform="matrix(0.95246634,0.95246634,-0.95246634,0.95246634,146.23043,-56.580601)"><g
         id="g334"
         transform="matrix(0.41752957,0,0,0.41752957,15.543221,29.300189)"><g
           id="g1381"
           transform="rotate(-11.333213,105.36905,116.3419)"><path
             d="m 95.74523,84.924555 q 1.441979,0 2.487083,-0.740833 1.045104,-0.740834 1.508125,-1.971146 l 1.349372,-3.532188 q 0.0397,-0.105833 0.0595,-0.218281 0.0199,-0.112448 0.0199,-0.23151 0,-0.343959 -0.26459,-0.608542 -0.26458,-0.264583 -0.60854,-0.264583 -0.0794,0 -0.15213,0.0066 -0.0728,0.0066 -0.13891,0.03307 l -0.396873,0.105833 q -0.264584,0.06615 -0.416719,0.178594 -0.152136,0.112448 -0.337344,0.40349 V 74.40735 q 0,-0.46302 -0.330729,-0.79375 -0.330729,-0.330729 -0.79375,-0.330729 -0.15875,0 -0.291042,0.0463 -0.132291,0.0463 -0.238125,0.125677 v -0.105833 q 0,-0.463021 -0.337344,-0.79375 -0.337343,-0.330729 -0.800364,-0.330729 -0.423333,0 -0.727604,0.277812 -0.304271,0.277813 -0.370417,0.64823 -0.05292,-0.06615 -0.224896,-0.09922 -0.171979,-0.03307 -0.3175,-0.03307 -0.502708,0 -0.813593,0.377031 -0.310886,0.377031 -0.310886,0.840052 v 0.515938 q -0.0926,-0.07937 -0.238125,-0.112448 -0.145521,-0.03307 -0.291042,-0.03307 -0.46302,0 -0.79375,0.330729 -0.330729,0.330729 -0.330729,0.79375 v 5.093229 q 0,1.812396 1.144323,2.956719 1.144323,1.144323 2.956719,1.144323 z m 0,-0.79375 q -1.481667,0 -2.394479,-0.919427 -0.912813,-0.919427 -0.912813,-2.387865 v -5.093229 q 0,-0.145521 0.0926,-0.238125 0.09261,-0.0926 0.238125,-0.0926 0.145521,0 0.238125,0.0926 0.0926,0.0926 0.0926,0.238125 v 2.844271 h 0.992187 v -4.431771 q 0,-0.145521 0.0926,-0.238125 0.0926,-0.0926 0.238125,-0.0926 0.145521,0 0.238125,0.0926 0.0926,0.0926 0.0926,0.238125 v 4.431771 h 0.992188 v -5.225521 q 0,-0.145521 0.0926,-0.238125 0.0926,-0.0926 0.238125,-0.0926 0.145521,0 0.238125,0.0926 0.0926,0.0926 0.0926,0.238125 v 5.225521 h 0.992188 v -4.167188 q 0,-0.14552 0.0926,-0.238125 0.0926,-0.0926 0.238125,-0.0926 0.145521,0 0.238125,0.0926 0.0926,0.09261 0.0926,0.238125 v 5.622396 h 0.767292 l 0.489479,-1.243541 q 0.132292,-0.343959 0.337344,-0.443177 0.205052,-0.09922 0.535784,-0.178594 0.13229,-0.02646 0.17859,0.02646 0.0463,0.05292 -0.007,0.171979 l -1.375837,3.571875 q -0.383646,0.992188 -1.203854,1.594115 -0.820209,0.601927 -2.037292,0.601927 z"
             id="path330"
             style="fill:#ffffff;stroke-width:0.264583" /><path
             style="fill:#ffffff;stroke:#ffffff;stroke-width:0.765;stroke-linecap:butt;stroke-linejoin:miter;stroke-dasharray:none;stroke-opacity:1"
             d="M 95.683723,84.685487 V 102.6707"
             id="path332"
             sodipodi:nodetypes="cc" /></g></g></g><g
       id="g344"
       transform="matrix(0.95246634,0.95246634,-0.95246634,0.95246634,146.9398,-26.447476)"><g
         id="g342"
         transform="matrix(0.41752957,0,0,0.41752957,15.543221,29.300189)"><path
           d="m 95.74523,84.924555 q 1.441979,0 2.487083,-0.740833 1.045104,-0.740834 1.508125,-1.971146 l 1.349372,-3.532188 q 0.0397,-0.105833 0.0595,-0.218281 0.0199,-0.112448 0.0199,-0.23151 0,-0.343959 -0.26459,-0.608542 -0.26458,-0.264583 -0.60854,-0.264583 -0.0794,0 -0.15213,0.0066 -0.0728,0.0066 -0.13891,0.03307 l -0.396873,0.105833 q -0.264584,0.06615 -0.416719,0.178594 -0.152136,0.112448 -0.337344,0.40349 V 74.40735 q 0,-0.46302 -0.330729,-0.79375 -0.330729,-0.330729 -0.79375,-0.330729 -0.15875,0 -0.291042,0.0463 -0.132291,0.0463 -0.238125,0.125677 v -0.105833 q 0,-0.463021 -0.337344,-0.79375 -0.337343,-0.330729 -0.800364,-0.330729 -0.423333,0 -0.727604,0.277812 -0.304271,0.277813 -0.370417,0.64823 -0.05292,-0.06615 -0.224896,-0.09922 -0.171979,-0.03307 -0.3175,-0.03307 -0.502708,0 -0.813593,0.377031 -0.310886,0.377031 -0.310886,0.840052 v 0.515938 q -0.0926,-0.07937 -0.238125,-0.112448 -0.145521,-0.03307 -0.291042,-0.03307 -0.46302,0 -0.79375,0.330729 -0.330729,0.330729 -0.330729,0.79375 v 5.093229 q 0,1.812396 1.144323,2.956719 1.144323,1.144323 2.956719,1.144323 z m 0,-0.79375 q -1.481667,0 -2.394479,-0.919427 -0.912813,-0.919427 -0.912813,-2.387865 v -5.093229 q 0,-0.145521 0.0926,-0.238125 0.09261,-0.0926 0.238125,-0.0926 0.145521,0 0.238125,0.0926 0.0926,0.0926 0.0926,0.238125 v 2.844271 h 0.992187 v -4.431771 q 0,-0.145521 0.0926,-0.238125 0.0926,-0.0926 0.238125,-0.0926 0.145521,0 0.238125,0.0926 0.0926,0.0926 0.0926,0.238125 v 4.431771 h 0.992188 v -5.225521 q 0,-0.145521 0.0926,-0.238125 0.0926,-0.0926 0.238125,-0.0926 0.145521,0 0.238125,0.0926 0.0926,0.0926 0.0926,0.238125 v 5.225521 h 0.992188 v -4.167188 q 0,-0.14552 0.0926,-0.238125 0.0926,-0.0926 0.238125,-0.0926 0.145521,0 0.238125,0.0926 0.0926,0.09261 0.0926,0.238125 v 5.622396 h 0.767292 l 0.489479,-1.243541 q 0.132292,-0.343959 0.337344,-0.443177 0.205052,-0.09922 0.535784,-0.178594 0.13229,-0.02646 0.17859,0.02646 0.0463,0.05292 -0.007,0.171979 l -1.375837,3.571875 q -0.383646,0.992188 -1.203854,1.594115 -0.820209,0.601927 -2.037292,0.601927 z"
           id="path338"
           style="fill:#ffffff;stroke-width:0.264583" /><path
           style="fill:#ffffff;stroke:#ffffff;stroke-width:0.765;stroke-linecap:butt;stroke-linejoin:miter;stroke-dasharray:none;stroke-opacity:1"
           d="M 95.683723,84.685487 V 102.6707"
           id="path340"
           sodipodi:nodetypes="cc" /></g></g><g
       id="g352"
       transform="matrix(0.95246634,0.95246634,-0.95246634,0.95246634,110.54937,-24.190304)"><g
         id="g350"
         transform="matrix(0.41752957,0,0,0.41752957,15.543221,29.300189)"><path
           d="m 95.74523,84.924555 q 1.441979,0 2.487083,-0.740833 1.045104,-0.740834 1.508125,-1.971146 l 1.349372,-3.532188 q 0.0397,-0.105833 0.0595,-0.218281 0.0199,-0.112448 0.0199,-0.23151 0,-0.343959 -0.26459,-0.608542 -0.26458,-0.264583 -0.60854,-0.264583 -0.0794,0 -0.15213,0.0066 -0.0728,0.0066 -0.13891,0.03307 l -0.396873,0.105833 q -0.264584,0.06615 -0.416719,0.178594 -0.152136,0.112448 -0.337344,0.40349 V 74.40735 q 0,-0.46302 -0.330729,-0.79375 -0.330729,-0.330729 -0.79375,-0.330729 -0.15875,0 -0.291042,0.0463 -0.132291,0.0463 -0.238125,0.125677 v -0.105833 q 0,-0.463021 -0.337344,-0.79375 -0.337343,-0.330729 -0.800364,-0.330729 -0.423333,0 -0.727604,0.277812 -0.304271,0.277813 -0.370417,0.64823 -0.05292,-0.06615 -0.224896,-0.09922 -0.171979,-0.03307 -0.3175,-0.03307 -0.502708,0 -0.813593,0.377031 -0.310886,0.377031 -0.310886,0.840052 v 0.515938 q -0.0926,-0.07937 -0.238125,-0.112448 -0.145521,-0.03307 -0.291042,-0.03307 -0.46302,0 -0.79375,0.330729 -0.330729,0.330729 -0.330729,0.79375 v 5.093229 q 0,1.812396 1.144323,2.956719 1.144323,1.144323 2.956719,1.144323 z m 0,-0.79375 q -1.481667,0 -2.394479,-0.919427 -0.912813,-0.919427 -0.912813,-2.387865 v -5.093229 q 0,-0.145521 0.0926,-0.238125 0.09261,-0.0926 0.238125,-0.0926 0.145521,0 0.238125,0.0926 0.0926,0.0926 0.0926,0.238125 v 2.844271 h 0.992187 v -4.431771 q 0,-0.145521 0.0926,-0.238125 0.0926,-0.0926 0.238125,-0.0926 0.145521,0 0.238125,0.0926 0.0926,0.0926 0.0926,0.238125 v 4.431771 h 0.992188 v -5.225521 q 0,-0.145521 0.0926,-0.238125 0.0926,-0.0926 0.238125,-0.0926 0.145521,0 0.238125,0.0926 0.0926,0.0926 0.0926,0.238125 v 5.225521 h 0.992188 v -4.167188 q 0,-0.14552 0.0926,-0.238125 0.0926,-0.0926 0.238125,-0.0926 0.145521,0 0.238125,0.0926 0.0926,0.09261 0.0926,0.238125 v 5.622396 h 0.767292 l 0.489479,-1.243541 q 0.132292,-0.343959 0.337344,-0.443177 0.205052,-0.09922 0.535784,-0.178594 0.13229,-0.02646 0.17859,0.02646 0.0463,0.05292 -0.007,0.171979 l -1.375837,3.571875 q -0.383646,0.992188 -1.203854,1.594115 -0.820209,0.601927 -2.037292,0.601927 z"
           id="path346"
           style="fill:#ffffff;stroke-width:0.264583" /><path
           style="fill:#ffffff;stroke:#ffffff;stroke-width:0.765;stroke-linecap:butt;stroke-linejoin:miter;stroke-dasharray:none;stroke-opacity:1"
           d="M 95.683723,84.685487 V 102.6707"
           id="path348"
           sodipodi:nodetypes="cc" /></g></g><g
       id="g360"
       transform="matrix(0.95246634,0.95246634,-0.95246634,0.95246634,73.406543,-22.434729)"><g
         id="g358"
         transform="matrix(0.41752957,0,0,0.41752957,15.543221,29.300189)"><path
           d="m 95.74523,84.924555 q 1.441979,0 2.487083,-0.740833 1.045104,-0.740834 1.508125,-1.971146 l 1.349372,-3.532188 q 0.0397,-0.105833 0.0595,-0.218281 0.0199,-0.112448 0.0199,-0.23151 0,-0.343959 -0.26459,-0.608542 -0.26458,-0.264583 -0.60854,-0.264583 -0.0794,0 -0.15213,0.0066 -0.0728,0.0066 -0.13891,0.03307 l -0.396873,0.105833 q -0.264584,0.06615 -0.416719,0.178594 -0.152136,0.112448 -0.337344,0.40349 V 74.40735 q 0,-0.46302 -0.330729,-0.79375 -0.330729,-0.330729 -0.79375,-0.330729 -0.15875,0 -0.291042,0.0463 -0.132291,0.0463 -0.238125,0.125677 v -0.105833 q 0,-0.463021 -0.337344,-0.79375 -0.337343,-0.330729 -0.800364,-0.330729 -0.423333,0 -0.727604,0.277812 -0.304271,0.277813 -0.370417,0.64823 -0.05292,-0.06615 -0.224896,-0.09922 -0.171979,-0.03307 -0.3175,-0.03307 -0.502708,0 -0.813593,0.377031 -0.310886,0.377031 -0.310886,0.840052 v 0.515938 q -0.0926,-0.07937 -0.238125,-0.112448 -0.145521,-0.03307 -0.291042,-0.03307 -0.46302,0 -0.79375,0.330729 -0.330729,0.330729 -0.330729,0.79375 v 5.093229 q 0,1.812396 1.144323,2.956719 1.144323,1.144323 2.956719,1.144323 z m 0,-0.79375 q -1.481667,0 -2.394479,-0.919427 -0.912813,-0.919427 -0.912813,-2.387865 v -5.093229 q 0,-0.145521 0.0926,-0.238125 0.09261,-0.0926 0.238125,-0.0926 0.145521,0 0.238125,0.0926 0.0926,0.0926 0.0926,0.238125 v 2.844271 h 0.992187 v -4.431771 q 0,-0.145521 0.0926,-0.238125 0.0926,-0.0926 0.238125,-0.0926 0.145521,0 0.238125,0.0926 0.0926,0.0926 0.0926,0.238125 v 4.431771 h 0.992188 v -5.225521 q 0,-0.145521 0.0926,-0.238125 0.0926,-0.0926 0.238125,-0.0926 0.145521,0 0.238125,0.0926 0.0926,0.0926 0.0926,0.238125 v 5.225521 h 0.992188 v -4.167188 q 0,-0.14552 0.0926,-0.238125 0.0926,-0.0926 0.238125,-0.0926 0.145521,0 0.238125,0.0926 0.0926,0.09261 0.0926,0.238125 v 5.622396 h 0.767292 l 0.489479,-1.243541 q 0.132292,-0.343959 0.337344,-0.443177 0.205052,-0.09922 0.535784,-0.178594 0.13229,-0.02646 0.17859,0.02646 0.0463,0.05292 -0.007,0.171979 l -1.375837,3.571875 q -0.383646,0.992188 -1.203854,1.594115 -0.820209,0.601927 -2.037292,0.601927 z"
           id="path354"
           style="fill:#ffffff;stroke-width:0.264583" /><path
           style="fill:#ffffff;stroke:#ffffff;stroke-width:0.765;stroke-linecap:butt;stroke-linejoin:miter;stroke-dasharray:none;stroke-opacity:1"
           d="M 95.683723,84.685487 V 102.6707"
           id="path356"
           sodipodi:nodetypes="cc" /></g></g><g
       id="g376"
       transform="matrix(-0.95246634,0.95246634,0.95246634,0.95246634,36.620166,-22.434729)"><g
         id="g374"
         transform="matrix(0.41752957,0,0,0.41752957,15.543221,29.300189)"><path
           d="m 95.74523,84.924555 q 1.441979,0 2.487083,-0.740833 1.045104,-0.740834 1.508125,-1.971146 l 1.349372,-3.532188 q 0.0397,-0.105833 0.0595,-0.218281 0.0199,-0.112448 0.0199,-0.23151 0,-0.343959 -0.26459,-0.608542 -0.26458,-0.264583 -0.60854,-0.264583 -0.0794,0 -0.15213,0.0066 -0.0728,0.0066 -0.13891,0.03307 l -0.396873,0.105833 q -0.264584,0.06615 -0.416719,0.178594 -0.152136,0.112448 -0.337344,0.40349 V 74.40735 q 0,-0.46302 -0.330729,-0.79375 -0.330729,-0.330729 -0.79375,-0.330729 -0.15875,0 -0.291042,0.0463 -0.132291,0.0463 -0.238125,0.125677 v -0.105833 q 0,-0.463021 -0.337344,-0.79375 -0.337343,-0.330729 -0.800364,-0.330729 -0.423333,0 -0.727604,0.277812 -0.304271,0.277813 -0.370417,0.64823 -0.05292,-0.06615 -0.224896,-0.09922 -0.171979,-0.03307 -0.3175,-0.03307 -0.502708,0 -0.813593,0.377031 -0.310886,0.377031 -0.310886,0.840052 v 0.515938 q -0.0926,-0.07937 -0.238125,-0.112448 -0.145521,-0.03307 -0.291042,-0.03307 -0.46302,0 -0.79375,0.330729 -0.330729,0.330729 -0.330729,0.79375 v 5.093229 q 0,1.812396 1.144323,2.956719 1.144323,1.144323 2.956719,1.144323 z m 0,-0.79375 q -1.481667,0 -2.394479,-0.919427 -0.912813,-0.919427 -0.912813,-2.387865 v -5.093229 q 0,-0.145521 0.0926,-0.238125 0.09261,-0.0926 0.238125,-0.0926 0.145521,0 0.238125,0.0926 0.0926,0.0926 0.0926,0.238125 v 2.844271 h 0.992187 v -4.431771 q 0,-0.145521 0.0926,-0.238125 0.0926,-0.0926 0.238125,-0.0926 0.145521,0 0.238125,0.0926 0.0926,0.0926 0.0926,0.238125 v 4.431771 h 0.992188 v -5.225521 q 0,-0.145521 0.0926,-0.238125 0.0926,-0.0926 0.238125,-0.0926 0.145521,0 0.238125,0.0926 0.0926,0.0926 0.0926,0.238125 v 5.225521 h 0.992188 v -4.167188 q 0,-0.14552 0.0926,-0.238125 0.0926,-0.0926 0.238125,-0.0926 0.145521,0 0.238125,0.0926 0.0926,0.09261 0.0926,0.238125 v 5.622396 h 0.767292 l 0.489479,-1.243541 q 0.132292,-0.343959 0.337344,-0.443177 0.205052,-0.09922 0.535784,-0.178594 0.13229,-0.02646 0.17859,0.02646 0.0463,0.05292 -0.007,0.171979 l -1.375837,3.571875 q -0.383646,0.992188 -1.203854,1.594115 -0.820209,0.601927 -2.037292,0.601927 z"
           id="path370"
           style="fill:#ffffff;stroke-width:0.264583" /><path
           style="fill:#ffffff;stroke:#ffffff;stroke-width:0.765;stroke-linecap:butt;stroke-linejoin:miter;stroke-dasharray:none;stroke-opacity:1"
           d="M 95.683723,84.685487 V 102.6707"
           id="path372"
           sodipodi:nodetypes="cc" /></g></g><ellipse
       style="fill:#ff2b2b;fill-opacity:1;stroke:none;stroke-width:0.665003;stroke-linecap:square;stroke-linejoin:bevel;stroke-miterlimit:5"
       id="path5294"
       cx="54.577133"
       cy="68.526054"
       rx="9"
       ry="8.9999981" /><text
       xml:space="preserve"
       style="font-size:9.6806px;line-height:1.25;font-family:sans-serif;-inkscape-font-specification:'sans-serif, Normal';fill:#ffffff;stroke-width:0.264583"
       x="50.937454"
       y="72.054649"
       id="text7738"><tspan
         sodipodi:role="line"
         id="tspan7736"
         style="fill:#ffffff;stroke-width:0.264583"
         x="50.937454"
         y="72.054649">H</tspan></text><ellipse
       style="fill:#4242ff;fill-opacity:1;stroke:none;stroke-width:0.665003;stroke-linecap:square;stroke-linejoin:bevel;stroke-miterlimit:5"
       id="circle13550"
       cx="54.702526"
       cy="99.837135"
       rx="9"
       ry="8.999999" /><text
       xml:space="preserve"
       style="font-size:9.6806px;line-height:1.25;font-family:sans-serif;-inkscape-font-specification:'sans-serif, Normal';fill:#ffffff;stroke-width:0.264583"
       x="50.892681"
       y="103.36101"
       id="text13554"><tspan
         sodipodi:role="line"
         id="tspan13552"
         style="fill:#ffffff;stroke-width:0.264583"
         x="50.892681"
         y="103.36101">O</tspan></text><ellipse
       style="fill:#f268ff;fill-opacity:1;stroke:none;stroke-width:0.665003;stroke-linecap:square;stroke-linejoin:bevel;stroke-miterlimit:5"
       id="circle16510"
       cx="91.618782"
       cy="68.149857"
       rx="9"
       ry="8.999999" /><text
       xml:space="preserve"
       style="font-size:9.6806px;line-height:1.25;font-family:sans-serif;-inkscape-font-specification:'sans-serif, Normal';fill:#ffffff;stroke-width:0.264583"
       x="88.640862"
       y="71.678452"
       id="text16514"><tspan
         sodipodi:role="line"
         id="tspan16512"
         style="fill:#ffffff;stroke-width:0.264583"
         x="88.640862"
         y="71.678452">F</tspan></text><ellipse
       style="fill:#3eca3e;fill-opacity:1;stroke:none;stroke-width:0.665003;stroke-linecap:square;stroke-linejoin:bevel;stroke-miterlimit:5"
       id="circle17242"
       cx="91.618782"
       cy="99.586334"
       rx="9"
       ry="8.999999" /><text
       xml:space="preserve"
       style="font-size:9.6806px;line-height:1.25;font-family:sans-serif;-inkscape-font-specification:'sans-serif, Normal';fill:#ffffff;stroke-width:0.264583"
       x="87.998009"
       y="103.11494"
       id="text17246"><tspan
         sodipodi:role="line"
         id="tspan17244"
         style="fill:#ffffff;stroke-width:0.264583"
         x="87.998009"
         y="103.11494">N</tspan></text><ellipse
       style="fill:#ffab1b;fill-opacity:1;stroke:none;stroke-width:0.665002;stroke-linecap:square;stroke-linejoin:bevel;stroke-miterlimit:5"
       id="circle18976"
       cx="128.66042"
       cy="67.648254"
       rx="9"
       ry="8.999999" /><text
       xml:space="preserve"
       style="font-size:9.6806px;line-height:1.25;font-family:sans-serif;-inkscape-font-specification:'sans-serif, Normal';fill:#ffffff;fill-opacity:1;stroke-width:0.264583"
       x="122.0381"
       y="71.108315"
       id="text18980"><tspan
         sodipodi:role="line"
         id="tspan18978"
         style="fill:#ffffff;fill-opacity:1;stroke-width:0.264583"
         x="122.0381"
         y="71.108315">Na</tspan></text><ellipse
       style="fill:#303030;fill-opacity:1;stroke:none;stroke-width:0.665003;stroke-linecap:square;stroke-linejoin:bevel;stroke-miterlimit:5"
       id="circle18982"
       cx="128.66042"
       cy="99.335533"
       rx="9"
       ry="8.999999" /><text
       xml:space="preserve"
       style="font-size:9.6806px;line-height:1.25;font-family:sans-serif;-inkscape-font-specification:'sans-serif, Normal';fill:#ffffff;stroke-width:0.264583"
       x="125.03965"
       y="103.1102"
       id="text18986"><tspan
         sodipodi:role="line"
         id="tspan18984"
         style="fill:#ffffff;stroke-width:0.264583"
         x="125.03965"
         y="103.1102">C</tspan></text></g></svg>
