<?xml version="1.0" encoding="UTF-8" standalone="no"?>
<!-- Created with Inkscape (http://www.inkscape.org/) -->

<svg
   width="149.19849mm"
   height="60.351204mm"
   viewBox="0 0 149.19849 60.351204"
   version="1.1"
   id="svg5"
   xml:space="preserve"
   inkscape:version="1.2 (dc2aedaf03, 2022-05-15)"
   sodipodi:docname="fig_1.29.svg"
   inkscape:export-filename="../img/fig_1.29.png"
   inkscape:export-xdpi="183.403"
   inkscape:export-ydpi="183.403"
   xmlns:inkscape="http://www.inkscape.org/namespaces/inkscape"
   xmlns:sodipodi="http://sodipodi.sourceforge.net/DTD/sodipodi-0.dtd"
   xmlns="http://www.w3.org/2000/svg"
   xmlns:svg="http://www.w3.org/2000/svg"><sodipodi:namedview
     id="namedview7"
     pagecolor="#121212"
     bordercolor="#666666"
     borderopacity="1.0"
     inkscape:showpageshadow="2"
     inkscape:pageopacity="1"
     inkscape:pagecheckerboard="0"
     inkscape:deskcolor="#d1d1d1"
     inkscape:document-units="mm"
     showgrid="false"
     inkscape:zoom="1.7903472"
     inkscape:cx="204.42962"
     inkscape:cy="142.43047"
     inkscape:window-width="1888"
     inkscape:window-height="1060"
     inkscape:window-x="32"
     inkscape:window-y="0"
     inkscape:window-maximized="1"
     inkscape:current-layer="layer1" /><defs
     id="defs2" /><g
     inkscape:label="Layer 1"
     inkscape:groupmode="layer"
     id="layer1"
     transform="translate(-35.465721,-53.632721)"><g
       id="g392"
       transform="matrix(0.93696727,-0.96771711,0.96771711,0.93696727,-24.118539,86.13282)"><g
         id="g390"
         transform="matrix(0.41752957,0,0,0.41752957,15.543221,29.300189)"><path
           d="m 95.74523,84.924555 q 1.441979,0 2.487083,-0.740833 1.045104,-0.740834 1.508125,-1.971146 l 1.349372,-3.532188 q 0.0397,-0.105833 0.0595,-0.218281 0.0199,-0.112448 0.0199,-0.23151 0,-0.343959 -0.26459,-0.608542 -0.26458,-0.264583 -0.60854,-0.264583 -0.0794,0 -0.15213,0.0066 -0.0728,0.0066 -0.13891,0.03307 l -0.396873,0.105833 q -0.264584,0.06615 -0.416719,0.178594 -0.152136,0.112448 -0.337344,0.40349 V 74.40735 q 0,-0.46302 -0.330729,-0.79375 -0.330729,-0.330729 -0.79375,-0.330729 -0.15875,0 -0.291042,0.0463 -0.132291,0.0463 -0.238125,0.125677 v -0.105833 q 0,-0.463021 -0.337344,-0.79375 -0.337343,-0.330729 -0.800364,-0.330729 -0.423333,0 -0.727604,0.277812 -0.304271,0.277813 -0.370417,0.64823 -0.05292,-0.06615 -0.224896,-0.09922 -0.171979,-0.03307 -0.3175,-0.03307 -0.502708,0 -0.813593,0.377031 -0.310886,0.377031 -0.310886,0.840052 v 0.515938 q -0.0926,-0.07937 -0.238125,-0.112448 -0.145521,-0.03307 -0.291042,-0.03307 -0.46302,0 -0.79375,0.330729 -0.330729,0.330729 -0.330729,0.79375 v 5.093229 q 0,1.812396 1.144323,2.956719 1.144323,1.144323 2.956719,1.144323 z m 0,-0.79375 q -1.481667,0 -2.394479,-0.919427 -0.912813,-0.919427 -0.912813,-2.387865 v -5.093229 q 0,-0.145521 0.0926,-0.238125 0.09261,-0.0926 0.238125,-0.0926 0.145521,0 0.238125,0.0926 0.0926,0.0926 0.0926,0.238125 v 2.844271 h 0.992187 v -4.431771 q 0,-0.145521 0.0926,-0.238125 0.0926,-0.0926 0.238125,-0.0926 0.145521,0 0.238125,0.0926 0.0926,0.0926 0.0926,0.238125 v 4.431771 h 0.992188 v -5.225521 q 0,-0.145521 0.0926,-0.238125 0.0926,-0.0926 0.238125,-0.0926 0.145521,0 0.238125,0.0926 0.0926,0.0926 0.0926,0.238125 v 5.225521 h 0.992188 v -4.167188 q 0,-0.14552 0.0926,-0.238125 0.0926,-0.0926 0.238125,-0.0926 0.145521,0 0.238125,0.0926 0.0926,0.09261 0.0926,0.238125 v 5.622396 h 0.767292 l 0.489479,-1.243541 q 0.132292,-0.343959 0.337344,-0.443177 0.205052,-0.09922 0.535784,-0.178594 0.13229,-0.02646 0.17859,0.02646 0.0463,0.05292 -0.007,0.171979 l -1.375837,3.571875 q -0.383646,0.992188 -1.203854,1.594115 -0.820209,0.601927 -2.037292,0.601927 z"
           id="path386"
           style="fill:#ffffff;stroke-width:0.264583" /><path
           style="fill:#ffffff;stroke:#ffffff;stroke-width:0.765;stroke-linecap:butt;stroke-linejoin:miter;stroke-dasharray:none;stroke-opacity:1"
           d="M 95.683723,84.685487 V 102.6707"
           id="path388"
           sodipodi:nodetypes="cc" /></g></g><g
       id="g310"
       transform="matrix(-1.0033445,0.89871236,0.89871236,1.0033445,40.891279,-55.140865)"><g
         id="g320"
         transform="matrix(0.41752957,0,0,0.41752957,15.543221,29.300189)"><path
           d="m 76.718047,110.26798 q 0.112506,-1.43758 -0.544531,-2.5373 -0.657036,-1.09972 -1.847471,-1.65732 l -3.416142,-1.62085 q -0.102408,-0.0478 -0.212972,-0.0763 -0.110547,-0.0286 -0.229243,-0.0379 -0.342911,-0.0268 -0.62734,0.21626 -0.284419,0.24313 -0.311256,0.58604 -0.0062,0.0791 -0.0053,0.15218 9.03e-4,0.0731 0.0221,0.14107 l 0.07455,0.40393 q 0.0453,0.26893 0.145536,0.42937 0.100237,0.16046 0.37594,0.3678 l -3.666468,-0.28694 q -0.461608,-0.0361 -0.817135,0.26778 -0.355524,0.30392 -0.391649,0.76553 -0.01239,0.15827 0.02345,0.29377 0.03583,0.13551 0.106717,0.24721 l -0.105519,-0.008 q -0.46161,-0.0361 -0.817657,0.27436 -0.356042,0.31051 -0.392166,0.77212 -0.03303,0.42203 0.220192,0.74706 0.253227,0.32502 0.617354,0.41986 -0.07009,0.0476 -0.116464,0.21647 -0.04639,0.16887 -0.05774,0.31395 -0.03922,0.50118 0.312404,0.84053 0.351625,0.33935 0.813236,0.37548 l 0.514364,0.0403 q -0.08636,0.0861 -0.130683,0.22863 -0.04433,0.1425 -0.05568,0.28758 -0.03612,0.46161 0.267788,0.81713 0.303918,0.35553 0.765526,0.39165 l 5.077705,0.39738 q 1.806871,0.14141 3.036987,-0.91015 1.230117,-1.05155 1.371524,-2.85842 z m -0.79133,-0.0619 q -0.1156,1.47716 -1.103444,2.31545 -0.987844,0.83829 -2.451807,0.72372 l -5.077703,-0.39738 q -0.14507,-0.0113 -0.230174,-0.1109 -0.08509,-0.0995 -0.07374,-0.24462 0.01135,-0.14507 0.110898,-0.23017 0.09954,-0.0851 0.244632,-0.0737 l 2.8356,0.22191 0.07741,-0.98916 -4.418264,-0.34578 q -0.14507,-0.0113 -0.230174,-0.11089 -0.08509,-0.0995 -0.07374,-0.24463 0.01135,-0.14507 0.110897,-0.23017 0.09954,-0.0851 0.244633,-0.0737 l 4.418261,0.34577 0.07741,-0.98916 -5.209591,-0.4077 q -0.14507,-0.0113 -0.230174,-0.11089 -0.08509,-0.0996 -0.07374,-0.24463 0.01135,-0.14508 0.110895,-0.23018 0.09954,-0.0851 0.244633,-0.0737 l 5.209593,0.40771 0.07741,-0.98917 -4.154485,-0.32512 q -0.14507,-0.0113 -0.230177,-0.11091 -0.08509,-0.0995 -0.07374,-0.24462 0.01135,-0.14507 0.110895,-0.23017 0.09955,-0.0851 0.244633,-0.0737 l 5.605256,0.43866 0.05987,-0.76494 -1.201562,-0.58502 q -0.332589,-0.15872 -0.415506,-0.37089 -0.08292,-0.21217 -0.136247,-0.54809 -0.01605,-0.13395 0.04032,-0.17598 0.05636,-0.0421 0.170898,0.0204 l 3.453642,1.65032 q 0.95923,0.45989 1.49533,1.32457 0.536098,0.86466 0.441135,2.07804 z"
           id="path28702"
           style="fill:#ffffff;stroke-width:0.264583" /><path
           style="fill:#ffffff;stroke:#ffffff;stroke-width:0.765;stroke-linecap:butt;stroke-linejoin:miter;stroke-dasharray:none;stroke-opacity:1"
           d="M 76.474911,110.31065 94.4053,111.71388"
           id="path29217"
           sodipodi:nodetypes="cc" /></g></g><g
       id="g328"
       transform="matrix(1.1173111,0.75232981,-0.75232981,1.1173111,91.846968,-54.971248)"><g
         id="g326"
         transform="matrix(0.06964857,-0.41167951,0.41167951,0.06964857,6.2943379,107.08126)"><path
           d="m 95.74523,84.924555 q 1.441979,0 2.487083,-0.740833 1.045104,-0.740834 1.508125,-1.971146 l 1.349372,-3.532188 q 0.0397,-0.105833 0.0595,-0.218281 0.0199,-0.112448 0.0199,-0.23151 0,-0.343959 -0.26459,-0.608542 -0.26458,-0.264583 -0.60854,-0.264583 -0.0794,0 -0.15213,0.0066 -0.0728,0.0066 -0.13891,0.03307 l -0.396873,0.105833 q -0.264584,0.06615 -0.416719,0.178594 -0.152136,0.112448 -0.337344,0.40349 V 74.40735 q 0,-0.46302 -0.330729,-0.79375 -0.330729,-0.330729 -0.79375,-0.330729 -0.15875,0 -0.291042,0.0463 -0.132291,0.0463 -0.238125,0.125677 v -0.105833 q 0,-0.463021 -0.337344,-0.79375 -0.337343,-0.330729 -0.800364,-0.330729 -0.423333,0 -0.727604,0.277812 -0.304271,0.277813 -0.370417,0.64823 -0.05292,-0.06615 -0.224896,-0.09922 -0.171979,-0.03307 -0.3175,-0.03307 -0.502708,0 -0.813593,0.377031 -0.310886,0.377031 -0.310886,0.840052 v 0.515938 q -0.0926,-0.07937 -0.238125,-0.112448 -0.145521,-0.03307 -0.291042,-0.03307 -0.46302,0 -0.79375,0.330729 -0.330729,0.330729 -0.330729,0.79375 v 5.093229 q 0,1.812396 1.144323,2.956719 1.144323,1.144323 2.956719,1.144323 z m 0,-0.79375 q -1.481667,0 -2.394479,-0.919427 -0.912813,-0.919427 -0.912813,-2.387865 v -5.093229 q 0,-0.145521 0.0926,-0.238125 0.09261,-0.0926 0.238125,-0.0926 0.145521,0 0.238125,0.0926 0.0926,0.0926 0.0926,0.238125 v 2.844271 h 0.992187 v -4.431771 q 0,-0.145521 0.0926,-0.238125 0.0926,-0.0926 0.238125,-0.0926 0.145521,0 0.238125,0.0926 0.0926,0.0926 0.0926,0.238125 v 4.431771 h 0.992188 v -5.225521 q 0,-0.145521 0.0926,-0.238125 0.0926,-0.0926 0.238125,-0.0926 0.145521,0 0.238125,0.0926 0.0926,0.0926 0.0926,0.238125 v 5.225521 h 0.992188 v -4.167188 q 0,-0.14552 0.0926,-0.238125 0.0926,-0.0926 0.238125,-0.0926 0.145521,0 0.238125,0.0926 0.0926,0.09261 0.0926,0.238125 v 5.622396 h 0.767292 l 0.489479,-1.243541 q 0.132292,-0.343959 0.337344,-0.443177 0.205052,-0.09922 0.535784,-0.178594 0.13229,-0.02646 0.17859,0.02646 0.0463,0.05292 -0.007,0.171979 l -1.375837,3.571875 q -0.383646,0.992188 -1.203854,1.594115 -0.820209,0.601927 -2.037292,0.601927 z"
           id="path322"
           style="fill:#ffffff;stroke-width:0.264583" /><path
           style="fill:#ffffff;stroke:#ffffff;stroke-width:0.765;stroke-linecap:butt;stroke-linejoin:miter;stroke-dasharray:none;stroke-opacity:1"
           d="M 95.683723,84.685487 V 102.6707"
           id="path324"
           sodipodi:nodetypes="cc" /></g></g><g
       id="g336"
       transform="matrix(-1.2055321,-0.60089642,-0.60089642,1.2055321,161.49758,44.474272)"><g
         id="g334"
         transform="matrix(0.41752957,0,0,0.41752957,15.543221,29.300189)"><g
           id="g1381"
           transform="rotate(-11.333213,105.36905,116.3419)"><path
             d="m 95.74523,84.924555 q 1.441979,0 2.487083,-0.740833 1.045104,-0.740834 1.508125,-1.971146 l 1.349372,-3.532188 q 0.0397,-0.105833 0.0595,-0.218281 0.0199,-0.112448 0.0199,-0.23151 0,-0.343959 -0.26459,-0.608542 -0.26458,-0.264583 -0.60854,-0.264583 -0.0794,0 -0.15213,0.0066 -0.0728,0.0066 -0.13891,0.03307 l -0.396873,0.105833 q -0.264584,0.06615 -0.416719,0.178594 -0.152136,0.112448 -0.337344,0.40349 V 74.40735 q 0,-0.46302 -0.330729,-0.79375 -0.330729,-0.330729 -0.79375,-0.330729 -0.15875,0 -0.291042,0.0463 -0.132291,0.0463 -0.238125,0.125677 v -0.105833 q 0,-0.463021 -0.337344,-0.79375 -0.337343,-0.330729 -0.800364,-0.330729 -0.423333,0 -0.727604,0.277812 -0.304271,0.277813 -0.370417,0.64823 -0.05292,-0.06615 -0.224896,-0.09922 -0.171979,-0.03307 -0.3175,-0.03307 -0.502708,0 -0.813593,0.377031 -0.310886,0.377031 -0.310886,0.840052 v 0.515938 q -0.0926,-0.07937 -0.238125,-0.112448 -0.145521,-0.03307 -0.291042,-0.03307 -0.46302,0 -0.79375,0.330729 -0.330729,0.330729 -0.330729,0.79375 v 5.093229 q 0,1.812396 1.144323,2.956719 1.144323,1.144323 2.956719,1.144323 z m 0,-0.79375 q -1.481667,0 -2.394479,-0.919427 -0.912813,-0.919427 -0.912813,-2.387865 v -5.093229 q 0,-0.145521 0.0926,-0.238125 0.09261,-0.0926 0.238125,-0.0926 0.145521,0 0.238125,0.0926 0.0926,0.0926 0.0926,0.238125 v 2.844271 h 0.992187 v -4.431771 q 0,-0.145521 0.0926,-0.238125 0.0926,-0.0926 0.238125,-0.0926 0.145521,0 0.238125,0.0926 0.0926,0.0926 0.0926,0.238125 v 4.431771 h 0.992188 v -5.225521 q 0,-0.145521 0.0926,-0.238125 0.0926,-0.0926 0.238125,-0.0926 0.145521,0 0.238125,0.0926 0.0926,0.0926 0.0926,0.238125 v 5.225521 h 0.992188 v -4.167188 q 0,-0.14552 0.0926,-0.238125 0.0926,-0.0926 0.238125,-0.0926 0.145521,0 0.238125,0.0926 0.0926,0.09261 0.0926,0.238125 v 5.622396 h 0.767292 l 0.489479,-1.243541 q 0.132292,-0.343959 0.337344,-0.443177 0.205052,-0.09922 0.535784,-0.178594 0.13229,-0.02646 0.17859,0.02646 0.0463,0.05292 -0.007,0.171979 l -1.375837,3.571875 q -0.383646,0.992188 -1.203854,1.594115 -0.820209,0.601927 -2.037292,0.601927 z"
             id="path330"
             style="fill:#ffffff;stroke-width:0.264583" /><path
             style="fill:#ffffff;stroke:#ffffff;stroke-width:0.765;stroke-linecap:butt;stroke-linejoin:miter;stroke-dasharray:none;stroke-opacity:1"
             d="M 95.683723,84.685487 V 102.6707"
             id="path332"
             sodipodi:nodetypes="cc" /></g></g></g><ellipse
       style="fill:#ff2b2b;fill-opacity:1;stroke:none;stroke-width:0.665003;stroke-linecap:square;stroke-linejoin:bevel;stroke-miterlimit:5"
       id="path5294"
       cx="50.915112"
       cy="70.028671"
       rx="9"
       ry="8.9999981" /><text
       xml:space="preserve"
       style="font-size:9.6806px;line-height:1.25;font-family:sans-serif;-inkscape-font-specification:'sans-serif, Normal';fill:#ffffff;stroke-width:0.264583"
       x="47.275433"
       y="73.557266"
       id="text7738"><tspan
         sodipodi:role="line"
         id="tspan7736"
         style="fill:#ffffff;stroke-width:0.264583"
         x="47.275433"
         y="73.557266">H</tspan></text><ellipse
       style="fill:#f268ff;fill-opacity:1;stroke:none;stroke-width:0.665003;stroke-linecap:square;stroke-linejoin:bevel;stroke-miterlimit:5"
       id="circle16510"
       cx="99.11721"
       cy="69.652473"
       rx="9"
       ry="8.999999" /><text
       xml:space="preserve"
       style="font-size:9.6806px;line-height:1.25;font-family:sans-serif;-inkscape-font-specification:'sans-serif, Normal';fill:#ffffff;stroke-width:0.264583"
       x="96.13929"
       y="73.181068"
       id="text16514"><tspan
         sodipodi:role="line"
         id="tspan16512"
         style="fill:#ffffff;stroke-width:0.264583"
         x="96.13929"
         y="73.181068">F</tspan></text><ellipse
       style="fill:#3eca3e;fill-opacity:1;stroke:none;stroke-width:0.665003;stroke-linecap:square;stroke-linejoin:bevel;stroke-miterlimit:5"
       id="circle17242"
       cx="-99.11721"
       cy="101.08895"
       rx="9"
       ry="8.999999"
       transform="scale(-1,1)" /><text
       xml:space="preserve"
       style="font-size:9.6806px;line-height:1.25;font-family:sans-serif;-inkscape-font-specification:'sans-serif, Normal';fill:#ffffff;stroke-width:0.264583"
       x="94.574707"
       y="104.69791"
       id="text17246"><tspan
         sodipodi:role="line"
         id="tspan17244"
         style="fill:#ffffff;stroke-width:0.264583"
         x="94.574707"
         y="104.69791">Cl</tspan></text><ellipse
       style="fill:#ffab1b;fill-opacity:1;stroke:none;stroke-width:0.665002;stroke-linecap:square;stroke-linejoin:bevel;stroke-miterlimit:5"
       id="circle18976"
       cx="-50.915112"
       cy="101.08895"
       rx="9"
       ry="8.999999"
       transform="scale(-1,1)" /><text
       xml:space="preserve"
       style="font-size:9.6806px;line-height:1.25;font-family:sans-serif;-inkscape-font-specification:'sans-serif, Normal';fill:#ffffff;fill-opacity:1;stroke-width:0.264583"
       x="44.292786"
       y="104.549"
       id="text18980"><tspan
         sodipodi:role="line"
         id="tspan18978"
         style="fill:#ffffff;fill-opacity:1;stroke-width:0.264583"
         x="44.292786"
         y="104.549">Na</tspan></text><g
       id="g707"
       transform="translate(-1.5047733,1.5026208)"><g
         id="g509"
         transform="matrix(-1.3096862,0.31481129,0.31481129,1.3096862,189.55162,-49.578653)"><g
           id="g507"
           transform="matrix(0.41752957,0,0,0.41752957,15.543221,29.300189)"><path
             d="m 76.718047,110.26798 q 0.112506,-1.43758 -0.544531,-2.5373 -0.657036,-1.09972 -1.847471,-1.65732 l -3.416142,-1.62085 q -0.102408,-0.0478 -0.212972,-0.0763 -0.110547,-0.0286 -0.229243,-0.0379 -0.342911,-0.0268 -0.62734,0.21626 -0.284419,0.24313 -0.311256,0.58604 -0.0062,0.0791 -0.0053,0.15218 9.03e-4,0.0731 0.0221,0.14107 l 0.07455,0.40393 q 0.0453,0.26893 0.145536,0.42937 0.100237,0.16046 0.37594,0.3678 l -3.666468,-0.28694 q -0.461608,-0.0361 -0.817135,0.26778 -0.355524,0.30392 -0.391649,0.76553 -0.01239,0.15827 0.02345,0.29377 0.03583,0.13551 0.106717,0.24721 l -0.105519,-0.008 q -0.46161,-0.0361 -0.817657,0.27436 -0.356042,0.31051 -0.392166,0.77212 -0.03303,0.42203 0.220192,0.74706 0.253227,0.32502 0.617354,0.41986 -0.07009,0.0476 -0.116464,0.21647 -0.04639,0.16887 -0.05774,0.31395 -0.03922,0.50118 0.312404,0.84053 0.351625,0.33935 0.813236,0.37548 l 0.514364,0.0403 q -0.08636,0.0861 -0.130683,0.22863 -0.04433,0.1425 -0.05568,0.28758 -0.03612,0.46161 0.267788,0.81713 0.303918,0.35553 0.765526,0.39165 l 5.077705,0.39738 q 1.806871,0.14141 3.036987,-0.91015 1.230117,-1.05155 1.371524,-2.85842 z m -0.79133,-0.0619 q -0.1156,1.47716 -1.103444,2.31545 -0.987844,0.83829 -2.451807,0.72372 l -5.077703,-0.39738 q -0.14507,-0.0113 -0.230174,-0.1109 -0.08509,-0.0995 -0.07374,-0.24462 0.01135,-0.14507 0.110898,-0.23017 0.09954,-0.0851 0.244632,-0.0737 l 2.8356,0.22191 0.07741,-0.98916 -4.418264,-0.34578 q -0.14507,-0.0113 -0.230174,-0.11089 -0.08509,-0.0995 -0.07374,-0.24463 0.01135,-0.14507 0.110897,-0.23017 0.09954,-0.0851 0.244633,-0.0737 l 4.418261,0.34577 0.07741,-0.98916 -5.209591,-0.4077 q -0.14507,-0.0113 -0.230174,-0.11089 -0.08509,-0.0996 -0.07374,-0.24463 0.01135,-0.14508 0.110895,-0.23018 0.09954,-0.0851 0.244633,-0.0737 l 5.209593,0.40771 0.07741,-0.98917 -4.154485,-0.32512 q -0.14507,-0.0113 -0.230177,-0.11091 -0.08509,-0.0995 -0.07374,-0.24462 0.01135,-0.14507 0.110895,-0.23017 0.09955,-0.0851 0.244633,-0.0737 l 5.605256,0.43866 0.05987,-0.76494 -1.201562,-0.58502 q -0.332589,-0.15872 -0.415506,-0.37089 -0.08292,-0.21217 -0.136247,-0.54809 -0.01605,-0.13395 0.04032,-0.17598 0.05636,-0.0421 0.170898,0.0204 l 3.453642,1.65032 q 0.95923,0.45989 1.49533,1.32457 0.536098,0.86466 0.441135,2.07804 z"
             id="path503"
             style="fill:#ffffff;stroke-width:0.264583" /><path
             style="fill:#ffffff;stroke:#ffffff;stroke-width:0.765;stroke-linecap:butt;stroke-linejoin:miter;stroke-dasharray:none;stroke-opacity:1"
             d="M 76.474911,110.31065 94.4053,111.71388"
             id="path505"
             sodipodi:nodetypes="cc" /></g></g><g
         id="g517"
         transform="matrix(1.3024995,0.34333536,-0.34333536,1.3024995,121.65481,-48.69639)"><g
           id="g515"
           transform="matrix(0.06964857,-0.41167951,0.41167951,0.06964857,6.2943379,107.08126)"><path
             d="m 95.74523,84.924555 q 1.441979,0 2.487083,-0.740833 1.045104,-0.740834 1.508125,-1.971146 l 1.349372,-3.532188 q 0.0397,-0.105833 0.0595,-0.218281 0.0199,-0.112448 0.0199,-0.23151 0,-0.343959 -0.26459,-0.608542 -0.26458,-0.264583 -0.60854,-0.264583 -0.0794,0 -0.15213,0.0066 -0.0728,0.0066 -0.13891,0.03307 l -0.396873,0.105833 q -0.264584,0.06615 -0.416719,0.178594 -0.152136,0.112448 -0.337344,0.40349 V 74.40735 q 0,-0.46302 -0.330729,-0.79375 -0.330729,-0.330729 -0.79375,-0.330729 -0.15875,0 -0.291042,0.0463 -0.132291,0.0463 -0.238125,0.125677 v -0.105833 q 0,-0.463021 -0.337344,-0.79375 -0.337343,-0.330729 -0.800364,-0.330729 -0.423333,0 -0.727604,0.277812 -0.304271,0.277813 -0.370417,0.64823 -0.05292,-0.06615 -0.224896,-0.09922 -0.171979,-0.03307 -0.3175,-0.03307 -0.502708,0 -0.813593,0.377031 -0.310886,0.377031 -0.310886,0.840052 v 0.515938 q -0.0926,-0.07937 -0.238125,-0.112448 -0.145521,-0.03307 -0.291042,-0.03307 -0.46302,0 -0.79375,0.330729 -0.330729,0.330729 -0.330729,0.79375 v 5.093229 q 0,1.812396 1.144323,2.956719 1.144323,1.144323 2.956719,1.144323 z m 0,-0.79375 q -1.481667,0 -2.394479,-0.919427 -0.912813,-0.919427 -0.912813,-2.387865 v -5.093229 q 0,-0.145521 0.0926,-0.238125 0.09261,-0.0926 0.238125,-0.0926 0.145521,0 0.238125,0.0926 0.0926,0.0926 0.0926,0.238125 v 2.844271 h 0.992187 v -4.431771 q 0,-0.145521 0.0926,-0.238125 0.0926,-0.0926 0.238125,-0.0926 0.145521,0 0.238125,0.0926 0.0926,0.0926 0.0926,0.238125 v 4.431771 h 0.992188 v -5.225521 q 0,-0.145521 0.0926,-0.238125 0.0926,-0.0926 0.238125,-0.0926 0.145521,0 0.238125,0.0926 0.0926,0.0926 0.0926,0.238125 v 5.225521 h 0.992188 v -4.167188 q 0,-0.14552 0.0926,-0.238125 0.0926,-0.0926 0.238125,-0.0926 0.145521,0 0.238125,0.0926 0.0926,0.09261 0.0926,0.238125 v 5.622396 h 0.767292 l 0.489479,-1.243541 q 0.132292,-0.343959 0.337344,-0.443177 0.205052,-0.09922 0.535784,-0.178594 0.13229,-0.02646 0.17859,0.02646 0.0463,0.05292 -0.007,0.171979 l -1.375837,3.571875 q -0.383646,0.992188 -1.203854,1.594115 -0.820209,0.601927 -2.037292,0.601927 z"
             id="path511"
             style="fill:#ffffff;stroke-width:0.264583" /><path
             style="fill:#ffffff;stroke:#ffffff;stroke-width:0.765;stroke-linecap:butt;stroke-linejoin:miter;stroke-dasharray:none;stroke-opacity:1"
             d="M 95.683723,84.685487 V 102.6707"
             id="path513"
             sodipodi:nodetypes="cc" /></g></g><ellipse
         style="fill:#ff2b2b;fill-opacity:1;stroke:none;stroke-width:0.665003;stroke-linecap:square;stroke-linejoin:bevel;stroke-miterlimit:5"
         id="ellipse519"
         cx="140.19865"
         cy="68.526054"
         rx="9"
         ry="8.9999981" /><text
         xml:space="preserve"
         style="font-size:9.6806px;line-height:1.25;font-family:sans-serif;-inkscape-font-specification:'sans-serif, Normal';fill:#ffffff;stroke-width:0.264583"
         x="136.55898"
         y="72.054649"
         id="text523"><tspan
           sodipodi:role="line"
           id="tspan521"
           style="fill:#ffffff;stroke-width:0.264583"
           x="136.55898"
           y="72.054649">H</tspan></text><ellipse
         style="fill:#f268ff;fill-opacity:1;stroke:none;stroke-width:0.665003;stroke-linecap:square;stroke-linejoin:bevel;stroke-miterlimit:5"
         id="ellipse525"
         cx="170.71959"
         cy="68.149857"
         rx="9"
         ry="8.999999" /><text
         xml:space="preserve"
         style="font-size:9.6806px;line-height:1.25;font-family:sans-serif;-inkscape-font-specification:'sans-serif, Normal';fill:#ffffff;stroke-width:0.264583"
         x="167.74167"
         y="71.678452"
         id="text529"><tspan
           sodipodi:role="line"
           id="tspan527"
           style="fill:#ffffff;stroke-width:0.264583"
           x="167.74167"
           y="71.678452">F</tspan></text></g><g
       id="g537"
       transform="matrix(0.42220166,-1.2791129,1.2791129,0.42220166,50.246463,138.99444)"><g
         id="g535"
         transform="matrix(0.39476335,0.13598838,-0.13598838,0.39476335,30.668633,18.503676)"><path
           d="m 95.74523,84.924555 q 1.441979,0 2.487083,-0.740833 1.045104,-0.740834 1.508125,-1.971146 l 1.349372,-3.532188 q 0.0397,-0.105833 0.0595,-0.218281 0.0199,-0.112448 0.0199,-0.23151 0,-0.343959 -0.26459,-0.608542 -0.26458,-0.264583 -0.60854,-0.264583 -0.0794,0 -0.15213,0.0066 -0.0728,0.0066 -0.13891,0.03307 l -0.396873,0.105833 q -0.264584,0.06615 -0.416719,0.178594 -0.152136,0.112448 -0.337344,0.40349 V 74.40735 q 0,-0.46302 -0.330729,-0.79375 -0.330729,-0.330729 -0.79375,-0.330729 -0.15875,0 -0.291042,0.0463 -0.132291,0.0463 -0.238125,0.125677 v -0.105833 q 0,-0.463021 -0.337344,-0.79375 -0.337343,-0.330729 -0.800364,-0.330729 -0.423333,0 -0.727604,0.277812 -0.304271,0.277813 -0.370417,0.64823 -0.05292,-0.06615 -0.224896,-0.09922 -0.171979,-0.03307 -0.3175,-0.03307 -0.502708,0 -0.813593,0.377031 -0.310886,0.377031 -0.310886,0.840052 v 0.515938 q -0.0926,-0.07937 -0.238125,-0.112448 -0.145521,-0.03307 -0.291042,-0.03307 -0.46302,0 -0.79375,0.330729 -0.330729,0.330729 -0.330729,0.79375 v 5.093229 q 0,1.812396 1.144323,2.956719 1.144323,1.144323 2.956719,1.144323 z m 0,-0.79375 q -1.481667,0 -2.394479,-0.919427 -0.912813,-0.919427 -0.912813,-2.387865 v -5.093229 q 0,-0.145521 0.0926,-0.238125 0.09261,-0.0926 0.238125,-0.0926 0.145521,0 0.238125,0.0926 0.0926,0.0926 0.0926,0.238125 v 2.844271 h 0.992187 v -4.431771 q 0,-0.145521 0.0926,-0.238125 0.0926,-0.0926 0.238125,-0.0926 0.145521,0 0.238125,0.0926 0.0926,0.0926 0.0926,0.238125 v 4.431771 h 0.992188 v -5.225521 q 0,-0.145521 0.0926,-0.238125 0.0926,-0.0926 0.238125,-0.0926 0.145521,0 0.238125,0.0926 0.0926,0.0926 0.0926,0.238125 v 5.225521 h 0.992188 v -4.167188 q 0,-0.14552 0.0926,-0.238125 0.0926,-0.0926 0.238125,-0.0926 0.145521,0 0.238125,0.0926 0.0926,0.09261 0.0926,0.238125 v 5.622396 h 0.767292 l 0.489479,-1.243541 q 0.132292,-0.343959 0.337344,-0.443177 0.205052,-0.09922 0.535784,-0.178594 0.13229,-0.02646 0.17859,0.02646 0.0463,0.05292 -0.007,0.171979 l -1.375837,3.571875 q -0.383646,0.992188 -1.203854,1.594115 -0.820209,0.601927 -2.037292,0.601927 z"
           id="path531"
           style="fill:#ffffff;stroke-width:0.264583" /><path
           style="fill:#ffffff;stroke:#ffffff;stroke-width:0.765;stroke-linecap:butt;stroke-linejoin:miter;stroke-dasharray:none;stroke-opacity:1"
           d="M 95.683723,84.685487 V 102.6707"
           id="path533"
           sodipodi:nodetypes="cc" /></g></g><g
       id="g547"
       transform="matrix(-0.86984337,-1.028473,-1.028473,0.86984337,263.65308,90.796462)"><g
         id="g545"
         transform="matrix(0.41752957,0,0,0.41752957,15.543221,29.300189)"><g
           id="g543"
           transform="rotate(-11.333213,105.36905,116.3419)"><path
             d="m 95.74523,84.924555 q 1.441979,0 2.487083,-0.740833 1.045104,-0.740834 1.508125,-1.971146 l 1.349372,-3.532188 q 0.0397,-0.105833 0.0595,-0.218281 0.0199,-0.112448 0.0199,-0.23151 0,-0.343959 -0.26459,-0.608542 -0.26458,-0.264583 -0.60854,-0.264583 -0.0794,0 -0.15213,0.0066 -0.0728,0.0066 -0.13891,0.03307 l -0.396873,0.105833 q -0.264584,0.06615 -0.416719,0.178594 -0.152136,0.112448 -0.337344,0.40349 V 74.40735 q 0,-0.46302 -0.330729,-0.79375 -0.330729,-0.330729 -0.79375,-0.330729 -0.15875,0 -0.291042,0.0463 -0.132291,0.0463 -0.238125,0.125677 v -0.105833 q 0,-0.463021 -0.337344,-0.79375 -0.337343,-0.330729 -0.800364,-0.330729 -0.423333,0 -0.727604,0.277812 -0.304271,0.277813 -0.370417,0.64823 -0.05292,-0.06615 -0.224896,-0.09922 -0.171979,-0.03307 -0.3175,-0.03307 -0.502708,0 -0.813593,0.377031 -0.310886,0.377031 -0.310886,0.840052 v 0.515938 q -0.0926,-0.07937 -0.238125,-0.112448 -0.145521,-0.03307 -0.291042,-0.03307 -0.46302,0 -0.79375,0.330729 -0.330729,0.330729 -0.330729,0.79375 v 5.093229 q 0,1.812396 1.144323,2.956719 1.144323,1.144323 2.956719,1.144323 z m 0,-0.79375 q -1.481667,0 -2.394479,-0.919427 -0.912813,-0.919427 -0.912813,-2.387865 v -5.093229 q 0,-0.145521 0.0926,-0.238125 0.09261,-0.0926 0.238125,-0.0926 0.145521,0 0.238125,0.0926 0.0926,0.0926 0.0926,0.238125 v 2.844271 h 0.992187 v -4.431771 q 0,-0.145521 0.0926,-0.238125 0.0926,-0.0926 0.238125,-0.0926 0.145521,0 0.238125,0.0926 0.0926,0.0926 0.0926,0.238125 v 4.431771 h 0.992188 v -5.225521 q 0,-0.145521 0.0926,-0.238125 0.0926,-0.0926 0.238125,-0.0926 0.145521,0 0.238125,0.0926 0.0926,0.0926 0.0926,0.238125 v 5.225521 h 0.992188 v -4.167188 q 0,-0.14552 0.0926,-0.238125 0.0926,-0.0926 0.238125,-0.0926 0.145521,0 0.238125,0.0926 0.0926,0.09261 0.0926,0.238125 v 5.622396 h 0.767292 l 0.489479,-1.243541 q 0.132292,-0.343959 0.337344,-0.443177 0.205052,-0.09922 0.535784,-0.178594 0.13229,-0.02646 0.17859,0.02646 0.0463,0.05292 -0.007,0.171979 l -1.375837,3.571875 q -0.383646,0.992188 -1.203854,1.594115 -0.820209,0.601927 -2.037292,0.601927 z"
             id="path539"
             style="fill:#ffffff;stroke-width:0.264583" /><path
             style="fill:#ffffff;stroke:#ffffff;stroke-width:0.765;stroke-linecap:butt;stroke-linejoin:miter;stroke-dasharray:none;stroke-opacity:1"
             d="M 95.683723,84.685487 V 102.6707"
             id="path541"
             sodipodi:nodetypes="cc" /></g></g></g><ellipse
       style="fill:#3eca3e;fill-opacity:1;stroke:none;stroke-width:0.665003;stroke-linecap:square;stroke-linejoin:bevel;stroke-miterlimit:5"
       id="ellipse549"
       cx="-169.21481"
       cy="101.08895"
       rx="9"
       ry="8.999999"
       transform="scale(-1,1)" /><text
       xml:space="preserve"
       style="font-size:9.6806px;line-height:1.25;font-family:sans-serif;-inkscape-font-specification:'sans-serif, Normal';fill:#ffffff;stroke-width:0.264583"
       x="164.6723"
       y="104.69791"
       id="text553"><tspan
         sodipodi:role="line"
         id="tspan551"
         style="fill:#ffffff;stroke-width:0.264583"
         x="164.6723"
         y="104.69791">Cl</tspan></text><ellipse
       style="fill:#ffab1b;fill-opacity:1;stroke:none;stroke-width:0.665002;stroke-linecap:square;stroke-linejoin:bevel;stroke-miterlimit:5"
       id="ellipse555"
       cx="-138.69388"
       cy="101.08895"
       rx="9"
       ry="8.999999"
       transform="scale(-1,1)" /><text
       xml:space="preserve"
       style="font-size:9.6806px;line-height:1.25;font-family:sans-serif;-inkscape-font-specification:'sans-serif, Normal';fill:#ffffff;fill-opacity:1;stroke-width:0.264583"
       x="132.07156"
       y="104.549"
       id="text559"><tspan
         sodipodi:role="line"
         id="tspan557"
         style="fill:#ffffff;fill-opacity:1;stroke-width:0.264583"
         x="132.07156"
         y="104.549">Na</tspan></text><text
       xml:space="preserve"
       style="font-size:10.5833px;line-height:1.25;font-family:sans-serif;-inkscape-font-specification:'sans-serif, Normal';fill:#ffffff;stroke-width:0.264583"
       x="70.582336"
       y="72.970093"
       id="text679"><tspan
         sodipodi:role="line"
         id="tspan677"
         style="fill:#ffffff;stroke-width:0.264583"
         x="70.582336"
         y="72.970093">+</tspan></text><text
       xml:space="preserve"
       style="font-size:10.5833px;line-height:1.25;font-family:sans-serif;-inkscape-font-specification:'sans-serif, Normal';fill:#ffffff;stroke-width:0.264583"
       x="70.582336"
       y="104.40657"
       id="text683"><tspan
         sodipodi:role="line"
         id="tspan681"
         style="fill:#ffffff;stroke-width:0.264583"
         x="70.582336"
         y="104.40657">+</tspan></text><text
       xml:space="preserve"
       style="font-size:10.5833px;line-height:1.25;font-family:sans-serif;-inkscape-font-specification:'sans-serif, Normal';fill:#ffffff;stroke-width:0.264583"
       x="114.4278"
       y="72.970093"
       id="text687"><tspan
         sodipodi:role="line"
         id="tspan685"
         style="fill:#ffffff;stroke-width:0.264583"
         x="114.4278"
         y="72.970093">→</tspan></text><text
       xml:space="preserve"
       style="font-size:10.5833px;line-height:1.25;font-family:sans-serif;-inkscape-font-specification:'sans-serif, Normal';fill:#ffffff;stroke-width:0.264583"
       x="114.4278"
       y="104.40657"
       id="text691"><tspan
         sodipodi:role="line"
         id="tspan689"
         style="fill:#ffffff;stroke-width:0.264583"
         x="114.4278"
         y="104.40657">→</tspan></text></g></svg>
