<?xml version="1.0" encoding="UTF-8" standalone="no"?>
<!-- Created with Inkscape (http://www.inkscape.org/) -->

<svg
   width="233.50853mm"
   height="90.160576mm"
   viewBox="0 0 233.50853 90.160576"
   version="1.1"
   id="svg5"
   xml:space="preserve"
   inkscape:version="1.2 (dc2aedaf03, 2022-05-15)"
   sodipodi:docname="fig_1.30.svg"
   inkscape:export-filename="../img/fig_1.30.png"
   inkscape:export-xdpi="183.403"
   inkscape:export-ydpi="183.403"
   xmlns:inkscape="http://www.inkscape.org/namespaces/inkscape"
   xmlns:sodipodi="http://sodipodi.sourceforge.net/DTD/sodipodi-0.dtd"
   xmlns="http://www.w3.org/2000/svg"
   xmlns:svg="http://www.w3.org/2000/svg"><sodipodi:namedview
     id="namedview7"
     pagecolor="#121212"
     bordercolor="#666666"
     borderopacity="1.0"
     inkscape:showpageshadow="2"
     inkscape:pageopacity="1"
     inkscape:pagecheckerboard="0"
     inkscape:deskcolor="#d1d1d1"
     inkscape:document-units="mm"
     showgrid="false"
     inkscape:zoom="1.1401673"
     inkscape:cx="255.2257"
     inkscape:cy="91.214684"
     inkscape:window-width="1888"
     inkscape:window-height="1060"
     inkscape:window-x="32"
     inkscape:window-y="0"
     inkscape:window-maximized="1"
     inkscape:current-layer="layer1" /><defs
     id="defs2" /><g
     inkscape:label="Layer 1"
     inkscape:groupmode="layer"
     id="layer1"
     transform="translate(-3.8147022,-41.698398)"><g
       id="g310"
       transform="matrix(-0.94108108,-0.96371702,-0.96371702,0.94108108,144.28865,56.91776)"><g
         id="g320"
         transform="matrix(0.41752957,0,0,0.41752957,15.543221,29.300189)"><path
           d="m 76.718047,110.26798 q 0.112506,-1.43758 -0.544531,-2.5373 -0.657036,-1.09972 -1.847471,-1.65732 l -3.416142,-1.62085 q -0.102408,-0.0478 -0.212972,-0.0763 -0.110547,-0.0286 -0.229243,-0.0379 -0.342911,-0.0268 -0.62734,0.21626 -0.284419,0.24313 -0.311256,0.58604 -0.0062,0.0791 -0.0053,0.15218 9.03e-4,0.0731 0.0221,0.14107 l 0.07455,0.40393 q 0.0453,0.26893 0.145536,0.42937 0.100237,0.16046 0.37594,0.3678 l -3.666468,-0.28694 q -0.461608,-0.0361 -0.817135,0.26778 -0.355524,0.30392 -0.391649,0.76553 -0.01239,0.15827 0.02345,0.29377 0.03583,0.13551 0.106717,0.24721 l -0.105519,-0.008 q -0.46161,-0.0361 -0.817657,0.27436 -0.356042,0.31051 -0.392166,0.77212 -0.03303,0.42203 0.220192,0.74706 0.253227,0.32502 0.617354,0.41986 -0.07009,0.0476 -0.116464,0.21647 -0.04639,0.16887 -0.05774,0.31395 -0.03922,0.50118 0.312404,0.84053 0.351625,0.33935 0.813236,0.37548 l 0.514364,0.0403 q -0.08636,0.0861 -0.130683,0.22863 -0.04433,0.1425 -0.05568,0.28758 -0.03612,0.46161 0.267788,0.81713 0.303918,0.35553 0.765526,0.39165 l 5.077705,0.39738 q 1.806871,0.14141 3.036987,-0.91015 1.230117,-1.05155 1.371524,-2.85842 z m -0.79133,-0.0619 q -0.1156,1.47716 -1.103444,2.31545 -0.987844,0.83829 -2.451807,0.72372 l -5.077703,-0.39738 q -0.14507,-0.0113 -0.230174,-0.1109 -0.08509,-0.0995 -0.07374,-0.24462 0.01135,-0.14507 0.110898,-0.23017 0.09954,-0.0851 0.244632,-0.0737 l 2.8356,0.22191 0.07741,-0.98916 -4.418264,-0.34578 q -0.14507,-0.0113 -0.230174,-0.11089 -0.08509,-0.0995 -0.07374,-0.24463 0.01135,-0.14507 0.110897,-0.23017 0.09954,-0.0851 0.244633,-0.0737 l 4.418261,0.34577 0.07741,-0.98916 -5.209591,-0.4077 q -0.14507,-0.0113 -0.230174,-0.11089 -0.08509,-0.0996 -0.07374,-0.24463 0.01135,-0.14508 0.110895,-0.23018 0.09954,-0.0851 0.244633,-0.0737 l 5.209593,0.40771 0.07741,-0.98917 -4.154485,-0.32512 q -0.14507,-0.0113 -0.230177,-0.11091 -0.08509,-0.0995 -0.07374,-0.24462 0.01135,-0.14507 0.110895,-0.23017 0.09955,-0.0851 0.244633,-0.0737 l 5.605256,0.43866 0.05987,-0.76494 -1.201562,-0.58502 q -0.332589,-0.15872 -0.415506,-0.37089 -0.08292,-0.21217 -0.136247,-0.54809 -0.01605,-0.13395 0.04032,-0.17598 0.05636,-0.0421 0.170898,0.0204 l 3.453642,1.65032 q 0.95923,0.45989 1.49533,1.32457 0.536098,0.86466 0.441135,2.07804 z"
           id="path28702"
           style="fill:#ffffff;stroke-width:0.264583" /><path
           style="fill:#ffffff;stroke:#ffffff;stroke-width:0.765;stroke-linecap:butt;stroke-linejoin:miter;stroke-dasharray:none;stroke-opacity:1"
           d="M 76.474911,110.31065 94.4053,111.71388"
           id="path29217"
           sodipodi:nodetypes="cc" /></g></g><ellipse
       style="fill:#ff2b2b;fill-opacity:1;stroke:none;stroke-width:0.665003;stroke-linecap:square;stroke-linejoin:bevel;stroke-miterlimit:5"
       id="path5294"
       cx="17.877262"
       cy="74.252022"
       rx="9"
       ry="8.9999981" /><g
       id="g360"
       transform="matrix(0.95246634,0.95246634,-0.95246634,0.95246634,62.289741,-26.24343)"><g
         id="g358"
         transform="matrix(0.41752957,0,0,0.41752957,15.543221,29.300189)"><path
           d="m 95.74523,84.924555 q 1.441979,0 2.487083,-0.740833 1.045104,-0.740834 1.508125,-1.971146 l 1.349372,-3.532188 q 0.0397,-0.105833 0.0595,-0.218281 0.0199,-0.112448 0.0199,-0.23151 0,-0.343959 -0.26459,-0.608542 -0.26458,-0.264583 -0.60854,-0.264583 -0.0794,0 -0.15213,0.0066 -0.0728,0.0066 -0.13891,0.03307 l -0.396873,0.105833 q -0.264584,0.06615 -0.416719,0.178594 -0.152136,0.112448 -0.337344,0.40349 V 74.40735 q 0,-0.46302 -0.330729,-0.79375 -0.330729,-0.330729 -0.79375,-0.330729 -0.15875,0 -0.291042,0.0463 -0.132291,0.0463 -0.238125,0.125677 v -0.105833 q 0,-0.463021 -0.337344,-0.79375 -0.337343,-0.330729 -0.800364,-0.330729 -0.423333,0 -0.727604,0.277812 -0.304271,0.277813 -0.370417,0.64823 -0.05292,-0.06615 -0.224896,-0.09922 -0.171979,-0.03307 -0.3175,-0.03307 -0.502708,0 -0.813593,0.377031 -0.310886,0.377031 -0.310886,0.840052 v 0.515938 q -0.0926,-0.07937 -0.238125,-0.112448 -0.145521,-0.03307 -0.291042,-0.03307 -0.46302,0 -0.79375,0.330729 -0.330729,0.330729 -0.330729,0.79375 v 5.093229 q 0,1.812396 1.144323,2.956719 1.144323,1.144323 2.956719,1.144323 z m 0,-0.79375 q -1.481667,0 -2.394479,-0.919427 -0.912813,-0.919427 -0.912813,-2.387865 v -5.093229 q 0,-0.145521 0.0926,-0.238125 0.09261,-0.0926 0.238125,-0.0926 0.145521,0 0.238125,0.0926 0.0926,0.0926 0.0926,0.238125 v 2.844271 h 0.992187 v -4.431771 q 0,-0.145521 0.0926,-0.238125 0.0926,-0.0926 0.238125,-0.0926 0.145521,0 0.238125,0.0926 0.0926,0.0926 0.0926,0.238125 v 4.431771 h 0.992188 v -5.225521 q 0,-0.145521 0.0926,-0.238125 0.0926,-0.0926 0.238125,-0.0926 0.145521,0 0.238125,0.0926 0.0926,0.0926 0.0926,0.238125 v 5.225521 h 0.992188 v -4.167188 q 0,-0.14552 0.0926,-0.238125 0.0926,-0.0926 0.238125,-0.0926 0.145521,0 0.238125,0.0926 0.0926,0.09261 0.0926,0.238125 v 5.622396 h 0.767292 l 0.489479,-1.243541 q 0.132292,-0.343959 0.337344,-0.443177 0.205052,-0.09922 0.535784,-0.178594 0.13229,-0.02646 0.17859,0.02646 0.0463,0.05292 -0.007,0.171979 l -1.375837,3.571875 q -0.383646,0.992188 -1.203854,1.594115 -0.820209,0.601927 -2.037292,0.601927 z"
           id="path354"
           style="fill:#ffffff;stroke-width:0.264583" /><path
           style="fill:#ffffff;stroke:#ffffff;stroke-width:0.765;stroke-linecap:butt;stroke-linejoin:miter;stroke-dasharray:none;stroke-opacity:1"
           d="M 95.683723,84.685487 V 102.6707"
           id="path356"
           sodipodi:nodetypes="cc" /></g></g><g
       id="g376"
       transform="matrix(-0.95246634,0.95246634,0.95246634,0.95246634,25.50336,-26.24343)"><g
         id="g374"
         transform="matrix(0.41752957,0,0,0.41752957,15.543221,29.300189)"><path
           d="m 95.74523,84.924555 q 1.441979,0 2.487083,-0.740833 1.045104,-0.740834 1.508125,-1.971146 l 1.349372,-3.532188 q 0.0397,-0.105833 0.0595,-0.218281 0.0199,-0.112448 0.0199,-0.23151 0,-0.343959 -0.26459,-0.608542 -0.26458,-0.264583 -0.60854,-0.264583 -0.0794,0 -0.15213,0.0066 -0.0728,0.0066 -0.13891,0.03307 l -0.396873,0.105833 q -0.264584,0.06615 -0.416719,0.178594 -0.152136,0.112448 -0.337344,0.40349 V 74.40735 q 0,-0.46302 -0.330729,-0.79375 -0.330729,-0.330729 -0.79375,-0.330729 -0.15875,0 -0.291042,0.0463 -0.132291,0.0463 -0.238125,0.125677 v -0.105833 q 0,-0.463021 -0.337344,-0.79375 -0.337343,-0.330729 -0.800364,-0.330729 -0.423333,0 -0.727604,0.277812 -0.304271,0.277813 -0.370417,0.64823 -0.05292,-0.06615 -0.224896,-0.09922 -0.171979,-0.03307 -0.3175,-0.03307 -0.502708,0 -0.813593,0.377031 -0.310886,0.377031 -0.310886,0.840052 v 0.515938 q -0.0926,-0.07937 -0.238125,-0.112448 -0.145521,-0.03307 -0.291042,-0.03307 -0.46302,0 -0.79375,0.330729 -0.330729,0.330729 -0.330729,0.79375 v 5.093229 q 0,1.812396 1.144323,2.956719 1.144323,1.144323 2.956719,1.144323 z m 0,-0.79375 q -1.481667,0 -2.394479,-0.919427 -0.912813,-0.919427 -0.912813,-2.387865 v -5.093229 q 0,-0.145521 0.0926,-0.238125 0.09261,-0.0926 0.238125,-0.0926 0.145521,0 0.238125,0.0926 0.0926,0.0926 0.0926,0.238125 v 2.844271 h 0.992187 v -4.431771 q 0,-0.145521 0.0926,-0.238125 0.0926,-0.0926 0.238125,-0.0926 0.145521,0 0.238125,0.0926 0.0926,0.0926 0.0926,0.238125 v 4.431771 h 0.992188 v -5.225521 q 0,-0.145521 0.0926,-0.238125 0.0926,-0.0926 0.238125,-0.0926 0.145521,0 0.238125,0.0926 0.0926,0.0926 0.0926,0.238125 v 5.225521 h 0.992188 v -4.167188 q 0,-0.14552 0.0926,-0.238125 0.0926,-0.0926 0.238125,-0.0926 0.145521,0 0.238125,0.0926 0.0926,0.09261 0.0926,0.238125 v 5.622396 h 0.767292 l 0.489479,-1.243541 q 0.132292,-0.343959 0.337344,-0.443177 0.205052,-0.09922 0.535784,-0.178594 0.13229,-0.02646 0.17859,0.02646 0.0463,0.05292 -0.007,0.171979 l -1.375837,3.571875 q -0.383646,0.992188 -1.203854,1.594115 -0.820209,0.601927 -2.037292,0.601927 z"
           id="path370"
           style="fill:#ffffff;stroke-width:0.264583" /><path
           style="fill:#ffffff;stroke:#ffffff;stroke-width:0.765;stroke-linecap:butt;stroke-linejoin:miter;stroke-dasharray:none;stroke-opacity:1"
           d="M 95.683723,84.685487 V 102.6707"
           id="path372"
           sodipodi:nodetypes="cc" /></g></g><ellipse
       style="fill:#4242ff;fill-opacity:1;stroke:none;stroke-width:0.665003;stroke-linecap:square;stroke-linejoin:bevel;stroke-miterlimit:5"
       id="circle13550"
       cx="43.58572"
       cy="96.028435"
       rx="9"
       ry="8.999999" /><text
       xml:space="preserve"
       style="font-size:9.6806px;line-height:1.25;font-family:sans-serif;-inkscape-font-specification:'sans-serif, Normal';fill:#ffffff;stroke-width:0.264583"
       x="39.775875"
       y="99.552315"
       id="text13554"><tspan
         sodipodi:role="line"
         id="tspan13552"
         style="fill:#ffffff;stroke-width:0.264583"
         x="39.775875"
         y="99.552315">O</tspan></text><text
       xml:space="preserve"
       style="font-size:9.6806px;line-height:1.25;font-family:sans-serif;-inkscape-font-specification:'sans-serif, Normal';fill:#ffffff;stroke-width:0.264583"
       x="14.237584"
       y="77.780617"
       id="text7738"><tspan
         sodipodi:role="line"
         id="tspan7736"
         style="fill:#ffffff;stroke-width:0.264583"
         x="14.237584"
         y="77.780617">H</tspan></text><g
       id="g408"
       transform="matrix(-0.95246634,-0.95246634,0.95246634,-0.95246634,181.47242,205.67702)"><g
         id="g406"
         transform="matrix(0.41752957,0,0,0.41752957,15.543221,29.300189)"><path
           d="m 95.74523,84.924555 q 1.441979,0 2.487083,-0.740833 1.045104,-0.740834 1.508125,-1.971146 l 1.349372,-3.532188 q 0.0397,-0.105833 0.0595,-0.218281 0.0199,-0.112448 0.0199,-0.23151 0,-0.343959 -0.26459,-0.608542 -0.26458,-0.264583 -0.60854,-0.264583 -0.0794,0 -0.15213,0.0066 -0.0728,0.0066 -0.13891,0.03307 l -0.396873,0.105833 q -0.264584,0.06615 -0.416719,0.178594 -0.152136,0.112448 -0.337344,0.40349 V 74.40735 q 0,-0.46302 -0.330729,-0.79375 -0.330729,-0.330729 -0.79375,-0.330729 -0.15875,0 -0.291042,0.0463 -0.132291,0.0463 -0.238125,0.125677 v -0.105833 q 0,-0.463021 -0.337344,-0.79375 -0.337343,-0.330729 -0.800364,-0.330729 -0.423333,0 -0.727604,0.277812 -0.304271,0.277813 -0.370417,0.64823 -0.05292,-0.06615 -0.224896,-0.09922 -0.171979,-0.03307 -0.3175,-0.03307 -0.502708,0 -0.813593,0.377031 -0.310886,0.377031 -0.310886,0.840052 v 0.515938 q -0.0926,-0.07937 -0.238125,-0.112448 -0.145521,-0.03307 -0.291042,-0.03307 -0.46302,0 -0.79375,0.330729 -0.330729,0.330729 -0.330729,0.79375 v 5.093229 q 0,1.812396 1.144323,2.956719 1.144323,1.144323 2.956719,1.144323 z m 0,-0.79375 q -1.481667,0 -2.394479,-0.919427 -0.912813,-0.919427 -0.912813,-2.387865 v -5.093229 q 0,-0.145521 0.0926,-0.238125 0.09261,-0.0926 0.238125,-0.0926 0.145521,0 0.238125,0.0926 0.0926,0.0926 0.0926,0.238125 v 2.844271 h 0.992187 v -4.431771 q 0,-0.145521 0.0926,-0.238125 0.0926,-0.0926 0.238125,-0.0926 0.145521,0 0.238125,0.0926 0.0926,0.0926 0.0926,0.238125 v 4.431771 h 0.992188 v -5.225521 q 0,-0.145521 0.0926,-0.238125 0.0926,-0.0926 0.238125,-0.0926 0.145521,0 0.238125,0.0926 0.0926,0.0926 0.0926,0.238125 v 5.225521 h 0.992188 v -4.167188 q 0,-0.14552 0.0926,-0.238125 0.0926,-0.0926 0.238125,-0.0926 0.145521,0 0.238125,0.0926 0.0926,0.09261 0.0926,0.238125 v 5.622396 h 0.767292 l 0.489479,-1.243541 q 0.132292,-0.343959 0.337344,-0.443177 0.205052,-0.09922 0.535784,-0.178594 0.13229,-0.02646 0.17859,0.02646 0.0463,0.05292 -0.007,0.171979 l -1.375837,3.571875 q -0.383646,0.992188 -1.203854,1.594115 -0.820209,0.601927 -2.037292,0.601927 z"
           id="path402"
           style="fill:#ffffff;stroke-width:0.264583" /><path
           style="fill:#ffffff;stroke:#ffffff;stroke-width:0.765;stroke-linecap:butt;stroke-linejoin:miter;stroke-dasharray:none;stroke-opacity:1"
           d="M 95.683723,84.685487 V 102.6707"
           id="path404"
           sodipodi:nodetypes="cc" /></g></g><g
       id="g416"
       transform="matrix(1.0831846,-0.80068437,-0.80068437,-1.0831846,199.8734,204.70183)"><g
         id="g414"
         transform="matrix(0.41752957,0,0,0.41752957,15.543221,29.300189)"><path
           d="m 95.74523,84.924555 q 1.441979,0 2.487083,-0.740833 1.045104,-0.740834 1.508125,-1.971146 l 1.349372,-3.532188 q 0.0397,-0.105833 0.0595,-0.218281 0.0199,-0.112448 0.0199,-0.23151 0,-0.343959 -0.26459,-0.608542 -0.26458,-0.264583 -0.60854,-0.264583 -0.0794,0 -0.15213,0.0066 -0.0728,0.0066 -0.13891,0.03307 l -0.396873,0.105833 q -0.264584,0.06615 -0.416719,0.178594 -0.152136,0.112448 -0.337344,0.40349 V 74.40735 q 0,-0.46302 -0.330729,-0.79375 -0.330729,-0.330729 -0.79375,-0.330729 -0.15875,0 -0.291042,0.0463 -0.132291,0.0463 -0.238125,0.125677 v -0.105833 q 0,-0.463021 -0.337344,-0.79375 -0.337343,-0.330729 -0.800364,-0.330729 -0.423333,0 -0.727604,0.277812 -0.304271,0.277813 -0.370417,0.64823 -0.05292,-0.06615 -0.224896,-0.09922 -0.171979,-0.03307 -0.3175,-0.03307 -0.502708,0 -0.813593,0.377031 -0.310886,0.377031 -0.310886,0.840052 v 0.515938 q -0.0926,-0.07937 -0.238125,-0.112448 -0.145521,-0.03307 -0.291042,-0.03307 -0.46302,0 -0.79375,0.330729 -0.330729,0.330729 -0.330729,0.79375 v 5.093229 q 0,1.812396 1.144323,2.956719 1.144323,1.144323 2.956719,1.144323 z m 0,-0.79375 q -1.481667,0 -2.394479,-0.919427 -0.912813,-0.919427 -0.912813,-2.387865 v -5.093229 q 0,-0.145521 0.0926,-0.238125 0.09261,-0.0926 0.238125,-0.0926 0.145521,0 0.238125,0.0926 0.0926,0.0926 0.0926,0.238125 v 2.844271 h 0.992187 v -4.431771 q 0,-0.145521 0.0926,-0.238125 0.0926,-0.0926 0.238125,-0.0926 0.145521,0 0.238125,0.0926 0.0926,0.0926 0.0926,0.238125 v 4.431771 h 0.992188 v -5.225521 q 0,-0.145521 0.0926,-0.238125 0.0926,-0.0926 0.238125,-0.0926 0.145521,0 0.238125,0.0926 0.0926,0.0926 0.0926,0.238125 v 5.225521 h 0.992188 v -4.167188 q 0,-0.14552 0.0926,-0.238125 0.0926,-0.0926 0.238125,-0.0926 0.145521,0 0.238125,0.0926 0.0926,0.09261 0.0926,0.238125 v 5.622396 h 0.767292 l 0.489479,-1.243541 q 0.132292,-0.343959 0.337344,-0.443177 0.205052,-0.09922 0.535784,-0.178594 0.13229,-0.02646 0.17859,0.02646 0.0463,0.05292 -0.007,0.171979 l -1.375837,3.571875 q -0.383646,0.992188 -1.203854,1.594115 -0.820209,0.601927 -2.037292,0.601927 z"
           id="path410"
           style="fill:#ffffff;stroke-width:0.264583" /><path
           style="fill:#ffffff;stroke:#ffffff;stroke-width:0.765;stroke-linecap:butt;stroke-linejoin:miter;stroke-dasharray:none;stroke-opacity:1"
           d="M 95.683723,84.685487 V 102.6707"
           id="path412"
           sodipodi:nodetypes="cc" /></g></g><g
       id="g400"
       transform="matrix(-0.95246634,0.95246634,0.95246634,0.95246634,182.1907,-43.212408)"><g
         id="g398"
         transform="matrix(0.41752957,0,0,0.41752957,15.543221,29.300189)"><path
           d="m 95.74523,84.924555 q 1.441979,0 2.487083,-0.740833 1.045104,-0.740834 1.508125,-1.971146 l 1.349372,-3.532188 q 0.0397,-0.105833 0.0595,-0.218281 0.0199,-0.112448 0.0199,-0.23151 0,-0.343959 -0.26459,-0.608542 -0.26458,-0.264583 -0.60854,-0.264583 -0.0794,0 -0.15213,0.0066 -0.0728,0.0066 -0.13891,0.03307 l -0.396873,0.105833 q -0.264584,0.06615 -0.416719,0.178594 -0.152136,0.112448 -0.337344,0.40349 V 74.40735 q 0,-0.46302 -0.330729,-0.79375 -0.330729,-0.330729 -0.79375,-0.330729 -0.15875,0 -0.291042,0.0463 -0.132291,0.0463 -0.238125,0.125677 v -0.105833 q 0,-0.463021 -0.337344,-0.79375 -0.337343,-0.330729 -0.800364,-0.330729 -0.423333,0 -0.727604,0.277812 -0.304271,0.277813 -0.370417,0.64823 -0.05292,-0.06615 -0.224896,-0.09922 -0.171979,-0.03307 -0.3175,-0.03307 -0.502708,0 -0.813593,0.377031 -0.310886,0.377031 -0.310886,0.840052 v 0.515938 q -0.0926,-0.07937 -0.238125,-0.112448 -0.145521,-0.03307 -0.291042,-0.03307 -0.46302,0 -0.79375,0.330729 -0.330729,0.330729 -0.330729,0.79375 v 5.093229 q 0,1.812396 1.144323,2.956719 1.144323,1.144323 2.956719,1.144323 z m 0,-0.79375 q -1.481667,0 -2.394479,-0.919427 -0.912813,-0.919427 -0.912813,-2.387865 v -5.093229 q 0,-0.145521 0.0926,-0.238125 0.09261,-0.0926 0.238125,-0.0926 0.145521,0 0.238125,0.0926 0.0926,0.0926 0.0926,0.238125 v 2.844271 h 0.992187 v -4.431771 q 0,-0.145521 0.0926,-0.238125 0.0926,-0.0926 0.238125,-0.0926 0.145521,0 0.238125,0.0926 0.0926,0.0926 0.0926,0.238125 v 4.431771 h 0.992188 v -5.225521 q 0,-0.145521 0.0926,-0.238125 0.0926,-0.0926 0.238125,-0.0926 0.145521,0 0.238125,0.0926 0.0926,0.0926 0.0926,0.238125 v 5.225521 h 0.992188 v -4.167188 q 0,-0.14552 0.0926,-0.238125 0.0926,-0.0926 0.238125,-0.0926 0.145521,0 0.238125,0.0926 0.0926,0.09261 0.0926,0.238125 v 5.622396 h 0.767292 l 0.489479,-1.243541 q 0.132292,-0.343959 0.337344,-0.443177 0.205052,-0.09922 0.535784,-0.178594 0.13229,-0.02646 0.17859,0.02646 0.0463,0.05292 -0.007,0.171979 l -1.375837,3.571875 q -0.383646,0.992188 -1.203854,1.594115 -0.820209,0.601927 -2.037292,0.601927 z"
           id="path394"
           style="fill:#ffffff;stroke-width:0.264583" /><path
           style="fill:#ffffff;stroke:#ffffff;stroke-width:0.765;stroke-linecap:butt;stroke-linejoin:miter;stroke-dasharray:none;stroke-opacity:1"
           d="M 95.683723,84.685487 V 102.6707"
           id="path396"
           sodipodi:nodetypes="cc" /></g></g><g
       id="g344"
       transform="matrix(0.95246634,0.95246634,-0.95246634,0.95246634,217.09611,-43.212408)"><g
         id="g342"
         transform="matrix(0.41752957,0,0,0.41752957,15.543221,29.300189)"><path
           d="m 95.74523,84.924555 q 1.441979,0 2.487083,-0.740833 1.045104,-0.740834 1.508125,-1.971146 l 1.349372,-3.532188 q 0.0397,-0.105833 0.0595,-0.218281 0.0199,-0.112448 0.0199,-0.23151 0,-0.343959 -0.26459,-0.608542 -0.26458,-0.264583 -0.60854,-0.264583 -0.0794,0 -0.15213,0.0066 -0.0728,0.0066 -0.13891,0.03307 l -0.396873,0.105833 q -0.264584,0.06615 -0.416719,0.178594 -0.152136,0.112448 -0.337344,0.40349 V 74.40735 q 0,-0.46302 -0.330729,-0.79375 -0.330729,-0.330729 -0.79375,-0.330729 -0.15875,0 -0.291042,0.0463 -0.132291,0.0463 -0.238125,0.125677 v -0.105833 q 0,-0.463021 -0.337344,-0.79375 -0.337343,-0.330729 -0.800364,-0.330729 -0.423333,0 -0.727604,0.277812 -0.304271,0.277813 -0.370417,0.64823 -0.05292,-0.06615 -0.224896,-0.09922 -0.171979,-0.03307 -0.3175,-0.03307 -0.502708,0 -0.813593,0.377031 -0.310886,0.377031 -0.310886,0.840052 v 0.515938 q -0.0926,-0.07937 -0.238125,-0.112448 -0.145521,-0.03307 -0.291042,-0.03307 -0.46302,0 -0.79375,0.330729 -0.330729,0.330729 -0.330729,0.79375 v 5.093229 q 0,1.812396 1.144323,2.956719 1.144323,1.144323 2.956719,1.144323 z m 0,-0.79375 q -1.481667,0 -2.394479,-0.919427 -0.912813,-0.919427 -0.912813,-2.387865 v -5.093229 q 0,-0.145521 0.0926,-0.238125 0.09261,-0.0926 0.238125,-0.0926 0.145521,0 0.238125,0.0926 0.0926,0.0926 0.0926,0.238125 v 2.844271 h 0.992187 v -4.431771 q 0,-0.145521 0.0926,-0.238125 0.0926,-0.0926 0.238125,-0.0926 0.145521,0 0.238125,0.0926 0.0926,0.0926 0.0926,0.238125 v 4.431771 h 0.992188 v -5.225521 q 0,-0.145521 0.0926,-0.238125 0.0926,-0.0926 0.238125,-0.0926 0.145521,0 0.238125,0.0926 0.0926,0.0926 0.0926,0.238125 v 5.225521 h 0.992188 v -4.167188 q 0,-0.14552 0.0926,-0.238125 0.0926,-0.0926 0.238125,-0.0926 0.145521,0 0.238125,0.0926 0.0926,0.09261 0.0926,0.238125 v 5.622396 h 0.767292 l 0.489479,-1.243541 q 0.132292,-0.343959 0.337344,-0.443177 0.205052,-0.09922 0.535784,-0.178594 0.13229,-0.02646 0.17859,0.02646 0.0463,0.05292 -0.007,0.171979 l -1.375837,3.571875 q -0.383646,0.992188 -1.203854,1.594115 -0.820209,0.601927 -2.037292,0.601927 z"
           id="path338"
           style="fill:#ffffff;stroke-width:0.264583" /><path
           style="fill:#ffffff;stroke:#ffffff;stroke-width:0.765;stroke-linecap:butt;stroke-linejoin:miter;stroke-dasharray:none;stroke-opacity:1"
           d="M 95.683723,84.685487 V 102.6707"
           id="path340"
           sodipodi:nodetypes="cc" /></g></g><ellipse
       style="fill:#303030;fill-opacity:1;stroke:none;stroke-width:0.665003;stroke-linecap:square;stroke-linejoin:bevel;stroke-miterlimit:5"
       id="circle18982"
       cx="198.81673"
       cy="82.570595"
       rx="9"
       ry="8.999999" /><text
       xml:space="preserve"
       style="font-size:9.6806px;line-height:1.25;font-family:sans-serif;-inkscape-font-specification:'sans-serif, Normal';fill:#ffffff;stroke-width:0.264583"
       x="195.19595"
       y="86.345261"
       id="text18986"><tspan
         sodipodi:role="line"
         id="tspan18984"
         style="fill:#ffffff;stroke-width:0.264583"
         x="195.19595"
         y="86.345261">C</tspan></text><g
       id="g392"
       transform="matrix(-1.3469863,-0.00346442,0.00346442,-1.3469863,194.92996,181.24374)"><g
         id="g390"
         transform="matrix(0.41752957,0,0,0.41752957,15.543221,29.300189)"><path
           d="m 95.74523,84.924555 q 1.441979,0 2.487083,-0.740833 1.045104,-0.740834 1.508125,-1.971146 l 1.349372,-3.532188 q 0.0397,-0.105833 0.0595,-0.218281 0.0199,-0.112448 0.0199,-0.23151 0,-0.343959 -0.26459,-0.608542 -0.26458,-0.264583 -0.60854,-0.264583 -0.0794,0 -0.15213,0.0066 -0.0728,0.0066 -0.13891,0.03307 l -0.396873,0.105833 q -0.264584,0.06615 -0.416719,0.178594 -0.152136,0.112448 -0.337344,0.40349 V 74.40735 q 0,-0.46302 -0.330729,-0.79375 -0.330729,-0.330729 -0.79375,-0.330729 -0.15875,0 -0.291042,0.0463 -0.132291,0.0463 -0.238125,0.125677 v -0.105833 q 0,-0.463021 -0.337344,-0.79375 -0.337343,-0.330729 -0.800364,-0.330729 -0.423333,0 -0.727604,0.277812 -0.304271,0.277813 -0.370417,0.64823 -0.05292,-0.06615 -0.224896,-0.09922 -0.171979,-0.03307 -0.3175,-0.03307 -0.502708,0 -0.813593,0.377031 -0.310886,0.377031 -0.310886,0.840052 v 0.515938 q -0.0926,-0.07937 -0.238125,-0.112448 -0.145521,-0.03307 -0.291042,-0.03307 -0.46302,0 -0.79375,0.330729 -0.330729,0.330729 -0.330729,0.79375 v 5.093229 q 0,1.812396 1.144323,2.956719 1.144323,1.144323 2.956719,1.144323 z m 0,-0.79375 q -1.481667,0 -2.394479,-0.919427 -0.912813,-0.919427 -0.912813,-2.387865 v -5.093229 q 0,-0.145521 0.0926,-0.238125 0.09261,-0.0926 0.238125,-0.0926 0.145521,0 0.238125,0.0926 0.0926,0.0926 0.0926,0.238125 v 2.844271 h 0.992187 v -4.431771 q 0,-0.145521 0.0926,-0.238125 0.0926,-0.0926 0.238125,-0.0926 0.145521,0 0.238125,0.0926 0.0926,0.0926 0.0926,0.238125 v 4.431771 h 0.992188 v -5.225521 q 0,-0.145521 0.0926,-0.238125 0.0926,-0.0926 0.238125,-0.0926 0.145521,0 0.238125,0.0926 0.0926,0.0926 0.0926,0.238125 v 5.225521 h 0.992188 v -4.167188 q 0,-0.14552 0.0926,-0.238125 0.0926,-0.0926 0.238125,-0.0926 0.145521,0 0.238125,0.0926 0.0926,0.09261 0.0926,0.238125 v 5.622396 h 0.767292 l 0.489479,-1.243541 q 0.132292,-0.343959 0.337344,-0.443177 0.205052,-0.09922 0.535784,-0.178594 0.13229,-0.02646 0.17859,0.02646 0.0463,0.05292 -0.007,0.171979 l -1.375837,3.571875 q -0.383646,0.992188 -1.203854,1.594115 -0.820209,0.601927 -2.037292,0.601927 z"
           id="path386"
           style="fill:#ffffff;stroke-width:0.264583" /><path
           style="fill:#ffffff;stroke:#ffffff;stroke-width:0.765;stroke-linecap:butt;stroke-linejoin:miter;stroke-dasharray:none;stroke-opacity:1"
           d="M 95.683723,84.685487 V 102.6707"
           id="path388"
           sodipodi:nodetypes="cc" /></g></g><g
       id="g384"
       transform="matrix(-0.95246634,0.95246634,0.95246634,0.95246634,103.54229,-41.151068)"><g
         id="g382"
         transform="matrix(0.41752957,0,0,0.41752957,15.543221,29.300189)"><path
           d="m 95.74523,84.924555 q 1.441979,0 2.487083,-0.740833 1.045104,-0.740834 1.508125,-1.971146 l 1.349372,-3.532188 q 0.0397,-0.105833 0.0595,-0.218281 0.0199,-0.112448 0.0199,-0.23151 0,-0.343959 -0.26459,-0.608542 -0.26458,-0.264583 -0.60854,-0.264583 -0.0794,0 -0.15213,0.0066 -0.0728,0.0066 -0.13891,0.03307 l -0.396873,0.105833 q -0.264584,0.06615 -0.416719,0.178594 -0.152136,0.112448 -0.337344,0.40349 V 74.40735 q 0,-0.46302 -0.330729,-0.79375 -0.330729,-0.330729 -0.79375,-0.330729 -0.15875,0 -0.291042,0.0463 -0.132291,0.0463 -0.238125,0.125677 v -0.105833 q 0,-0.463021 -0.337344,-0.79375 -0.337343,-0.330729 -0.800364,-0.330729 -0.423333,0 -0.727604,0.277812 -0.304271,0.277813 -0.370417,0.64823 -0.05292,-0.06615 -0.224896,-0.09922 -0.171979,-0.03307 -0.3175,-0.03307 -0.502708,0 -0.813593,0.377031 -0.310886,0.377031 -0.310886,0.840052 v 0.515938 q -0.0926,-0.07937 -0.238125,-0.112448 -0.145521,-0.03307 -0.291042,-0.03307 -0.46302,0 -0.79375,0.330729 -0.330729,0.330729 -0.330729,0.79375 v 5.093229 q 0,1.812396 1.144323,2.956719 1.144323,1.144323 2.956719,1.144323 z m 0,-0.79375 q -1.481667,0 -2.394479,-0.919427 -0.912813,-0.919427 -0.912813,-2.387865 v -5.093229 q 0,-0.145521 0.0926,-0.238125 0.09261,-0.0926 0.238125,-0.0926 0.145521,0 0.238125,0.0926 0.0926,0.0926 0.0926,0.238125 v 2.844271 h 0.992187 v -4.431771 q 0,-0.145521 0.0926,-0.238125 0.0926,-0.0926 0.238125,-0.0926 0.145521,0 0.238125,0.0926 0.0926,0.0926 0.0926,0.238125 v 4.431771 h 0.992188 v -5.225521 q 0,-0.145521 0.0926,-0.238125 0.0926,-0.0926 0.238125,-0.0926 0.145521,0 0.238125,0.0926 0.0926,0.0926 0.0926,0.238125 v 5.225521 h 0.992188 v -4.167188 q 0,-0.14552 0.0926,-0.238125 0.0926,-0.0926 0.238125,-0.0926 0.145521,0 0.238125,0.0926 0.0926,0.09261 0.0926,0.238125 v 5.622396 h 0.767292 l 0.489479,-1.243541 q 0.132292,-0.343959 0.337344,-0.443177 0.205052,-0.09922 0.535784,-0.178594 0.13229,-0.02646 0.17859,0.02646 0.0463,0.05292 -0.007,0.171979 l -1.375837,3.571875 q -0.383646,0.992188 -1.203854,1.594115 -0.820209,0.601927 -2.037292,0.601927 z"
           id="path378"
           style="fill:#ffffff;stroke-width:0.264583" /><path
           style="fill:#ffffff;stroke:#ffffff;stroke-width:0.765;stroke-linecap:butt;stroke-linejoin:miter;stroke-dasharray:none;stroke-opacity:1"
           d="M 95.683723,84.685487 V 102.6707"
           id="path380"
           sodipodi:nodetypes="cc" /></g></g><g
       id="g352"
       transform="matrix(0.95246634,0.95246634,-0.95246634,0.95246634,139.95247,-41.151068)"><g
         id="g350"
         transform="matrix(0.41752957,0,0,0.41752957,15.543221,29.300189)"><path
           d="m 95.74523,84.924555 q 1.441979,0 2.487083,-0.740833 1.045104,-0.740834 1.508125,-1.971146 l 1.349372,-3.532188 q 0.0397,-0.105833 0.0595,-0.218281 0.0199,-0.112448 0.0199,-0.23151 0,-0.343959 -0.26459,-0.608542 -0.26458,-0.264583 -0.60854,-0.264583 -0.0794,0 -0.15213,0.0066 -0.0728,0.0066 -0.13891,0.03307 l -0.396873,0.105833 q -0.264584,0.06615 -0.416719,0.178594 -0.152136,0.112448 -0.337344,0.40349 V 74.40735 q 0,-0.46302 -0.330729,-0.79375 -0.330729,-0.330729 -0.79375,-0.330729 -0.15875,0 -0.291042,0.0463 -0.132291,0.0463 -0.238125,0.125677 v -0.105833 q 0,-0.463021 -0.337344,-0.79375 -0.337343,-0.330729 -0.800364,-0.330729 -0.423333,0 -0.727604,0.277812 -0.304271,0.277813 -0.370417,0.64823 -0.05292,-0.06615 -0.224896,-0.09922 -0.171979,-0.03307 -0.3175,-0.03307 -0.502708,0 -0.813593,0.377031 -0.310886,0.377031 -0.310886,0.840052 v 0.515938 q -0.0926,-0.07937 -0.238125,-0.112448 -0.145521,-0.03307 -0.291042,-0.03307 -0.46302,0 -0.79375,0.330729 -0.330729,0.330729 -0.330729,0.79375 v 5.093229 q 0,1.812396 1.144323,2.956719 1.144323,1.144323 2.956719,1.144323 z m 0,-0.79375 q -1.481667,0 -2.394479,-0.919427 -0.912813,-0.919427 -0.912813,-2.387865 v -5.093229 q 0,-0.145521 0.0926,-0.238125 0.09261,-0.0926 0.238125,-0.0926 0.145521,0 0.238125,0.0926 0.0926,0.0926 0.0926,0.238125 v 2.844271 h 0.992187 v -4.431771 q 0,-0.145521 0.0926,-0.238125 0.0926,-0.0926 0.238125,-0.0926 0.145521,0 0.238125,0.0926 0.0926,0.0926 0.0926,0.238125 v 4.431771 h 0.992188 v -5.225521 q 0,-0.145521 0.0926,-0.238125 0.0926,-0.0926 0.238125,-0.0926 0.145521,0 0.238125,0.0926 0.0926,0.0926 0.0926,0.238125 v 5.225521 h 0.992188 v -4.167188 q 0,-0.14552 0.0926,-0.238125 0.0926,-0.0926 0.238125,-0.0926 0.145521,0 0.238125,0.0926 0.0926,0.09261 0.0926,0.238125 v 5.622396 h 0.767292 l 0.489479,-1.243541 q 0.132292,-0.343959 0.337344,-0.443177 0.205052,-0.09922 0.535784,-0.178594 0.13229,-0.02646 0.17859,0.02646 0.0463,0.05292 -0.007,0.171979 l -1.375837,3.571875 q -0.383646,0.992188 -1.203854,1.594115 -0.820209,0.601927 -2.037292,0.601927 z"
           id="path346"
           style="fill:#ffffff;stroke-width:0.264583" /><path
           style="fill:#ffffff;stroke:#ffffff;stroke-width:0.765;stroke-linecap:butt;stroke-linejoin:miter;stroke-dasharray:none;stroke-opacity:1"
           d="M 95.683723,84.685487 V 102.6707"
           id="path348"
           sodipodi:nodetypes="cc" /></g></g><ellipse
       style="fill:#3eca3e;fill-opacity:1;stroke:none;stroke-width:0.665003;stroke-linecap:square;stroke-linejoin:bevel;stroke-miterlimit:5"
       id="circle17242"
       cx="121.0219"
       cy="82.625572"
       rx="9"
       ry="8.999999" /><text
       xml:space="preserve"
       style="font-size:9.6806px;line-height:1.25;font-family:sans-serif;-inkscape-font-specification:'sans-serif, Normal';fill:#ffffff;stroke-width:0.264583"
       x="117.40112"
       y="86.154175"
       id="text17246"><tspan
         sodipodi:role="line"
         id="tspan17244"
         style="fill:#ffffff;stroke-width:0.264583"
         x="117.40112"
         y="86.154175">N</tspan></text><g
       id="g1257"
       transform="matrix(0.94108108,-0.96371702,0.96371702,0.94108108,-56.680415,56.91776)"><g
         id="g1255"
         transform="matrix(0.41752957,0,0,0.41752957,15.543221,29.300189)"><path
           d="m 76.718047,110.26798 q 0.112506,-1.43758 -0.544531,-2.5373 -0.657036,-1.09972 -1.847471,-1.65732 l -3.416142,-1.62085 q -0.102408,-0.0478 -0.212972,-0.0763 -0.110547,-0.0286 -0.229243,-0.0379 -0.342911,-0.0268 -0.62734,0.21626 -0.284419,0.24313 -0.311256,0.58604 -0.0062,0.0791 -0.0053,0.15218 9.03e-4,0.0731 0.0221,0.14107 l 0.07455,0.40393 q 0.0453,0.26893 0.145536,0.42937 0.100237,0.16046 0.37594,0.3678 l -3.666468,-0.28694 q -0.461608,-0.0361 -0.817135,0.26778 -0.355524,0.30392 -0.391649,0.76553 -0.01239,0.15827 0.02345,0.29377 0.03583,0.13551 0.106717,0.24721 l -0.105519,-0.008 q -0.46161,-0.0361 -0.817657,0.27436 -0.356042,0.31051 -0.392166,0.77212 -0.03303,0.42203 0.220192,0.74706 0.253227,0.32502 0.617354,0.41986 -0.07009,0.0476 -0.116464,0.21647 -0.04639,0.16887 -0.05774,0.31395 -0.03922,0.50118 0.312404,0.84053 0.351625,0.33935 0.813236,0.37548 l 0.514364,0.0403 q -0.08636,0.0861 -0.130683,0.22863 -0.04433,0.1425 -0.05568,0.28758 -0.03612,0.46161 0.267788,0.81713 0.303918,0.35553 0.765526,0.39165 l 5.077705,0.39738 q 1.806871,0.14141 3.036987,-0.91015 1.230117,-1.05155 1.371524,-2.85842 z m -0.79133,-0.0619 q -0.1156,1.47716 -1.103444,2.31545 -0.987844,0.83829 -2.451807,0.72372 l -5.077703,-0.39738 q -0.14507,-0.0113 -0.230174,-0.1109 -0.08509,-0.0995 -0.07374,-0.24462 0.01135,-0.14507 0.110898,-0.23017 0.09954,-0.0851 0.244632,-0.0737 l 2.8356,0.22191 0.07741,-0.98916 -4.418264,-0.34578 q -0.14507,-0.0113 -0.230174,-0.11089 -0.08509,-0.0995 -0.07374,-0.24463 0.01135,-0.14507 0.110897,-0.23017 0.09954,-0.0851 0.244633,-0.0737 l 4.418261,0.34577 0.07741,-0.98916 -5.209591,-0.4077 q -0.14507,-0.0113 -0.230174,-0.11089 -0.08509,-0.0996 -0.07374,-0.24463 0.01135,-0.14508 0.110895,-0.23018 0.09954,-0.0851 0.244633,-0.0737 l 5.209593,0.40771 0.07741,-0.98917 -4.154485,-0.32512 q -0.14507,-0.0113 -0.230177,-0.11091 -0.08509,-0.0995 -0.07374,-0.24462 0.01135,-0.14507 0.110895,-0.23017 0.09955,-0.0851 0.244633,-0.0737 l 5.605256,0.43866 0.05987,-0.76494 -1.201562,-0.58502 q -0.332589,-0.15872 -0.415506,-0.37089 -0.08292,-0.21217 -0.136247,-0.54809 -0.01605,-0.13395 0.04032,-0.17598 0.05636,-0.0421 0.170898,0.0204 l 3.453642,1.65032 q 0.95923,0.45989 1.49533,1.32457 0.536098,0.86466 0.441135,2.07804 z"
           id="path1251"
           style="fill:#ffffff;stroke-width:0.264583" /><path
           style="fill:#ffffff;stroke:#ffffff;stroke-width:0.765;stroke-linecap:butt;stroke-linejoin:miter;stroke-dasharray:none;stroke-opacity:1"
           d="M 76.474911,110.31065 94.4053,111.71388"
           id="path1253"
           sodipodi:nodetypes="cc" /></g></g><ellipse
       style="fill:#ff2b2b;fill-opacity:1;stroke:none;stroke-width:0.665003;stroke-linecap:square;stroke-linejoin:bevel;stroke-miterlimit:5"
       id="ellipse1259"
       cx="69.483185"
       cy="74.252022"
       rx="9"
       ry="8.9999981" /><text
       xml:space="preserve"
       style="font-size:9.6806px;line-height:1.25;font-family:sans-serif;-inkscape-font-specification:'sans-serif, Normal';fill:#ffffff;stroke-width:0.264583"
       x="65.843506"
       y="77.780617"
       id="text1263"><tspan
         sodipodi:role="line"
         id="tspan1261"
         style="fill:#ffffff;stroke-width:0.264583"
         x="65.843506"
         y="77.780617">H</tspan></text><g
       id="g1271"
       transform="matrix(-0.94108108,-0.96371702,-0.96371702,0.94108108,222.53219,42.339239)"><g
         id="g1269"
         transform="matrix(0.41752957,0,0,0.41752957,15.543221,29.300189)"><path
           d="m 76.718047,110.26798 q 0.112506,-1.43758 -0.544531,-2.5373 -0.657036,-1.09972 -1.847471,-1.65732 l -3.416142,-1.62085 q -0.102408,-0.0478 -0.212972,-0.0763 -0.110547,-0.0286 -0.229243,-0.0379 -0.342911,-0.0268 -0.62734,0.21626 -0.284419,0.24313 -0.311256,0.58604 -0.0062,0.0791 -0.0053,0.15218 9.03e-4,0.0731 0.0221,0.14107 l 0.07455,0.40393 q 0.0453,0.26893 0.145536,0.42937 0.100237,0.16046 0.37594,0.3678 l -3.666468,-0.28694 q -0.461608,-0.0361 -0.817135,0.26778 -0.355524,0.30392 -0.391649,0.76553 -0.01239,0.15827 0.02345,0.29377 0.03583,0.13551 0.106717,0.24721 l -0.105519,-0.008 q -0.46161,-0.0361 -0.817657,0.27436 -0.356042,0.31051 -0.392166,0.77212 -0.03303,0.42203 0.220192,0.74706 0.253227,0.32502 0.617354,0.41986 -0.07009,0.0476 -0.116464,0.21647 -0.04639,0.16887 -0.05774,0.31395 -0.03922,0.50118 0.312404,0.84053 0.351625,0.33935 0.813236,0.37548 l 0.514364,0.0403 q -0.08636,0.0861 -0.130683,0.22863 -0.04433,0.1425 -0.05568,0.28758 -0.03612,0.46161 0.267788,0.81713 0.303918,0.35553 0.765526,0.39165 l 5.077705,0.39738 q 1.806871,0.14141 3.036987,-0.91015 1.230117,-1.05155 1.371524,-2.85842 z m -0.79133,-0.0619 q -0.1156,1.47716 -1.103444,2.31545 -0.987844,0.83829 -2.451807,0.72372 l -5.077703,-0.39738 q -0.14507,-0.0113 -0.230174,-0.1109 -0.08509,-0.0995 -0.07374,-0.24462 0.01135,-0.14507 0.110898,-0.23017 0.09954,-0.0851 0.244632,-0.0737 l 2.8356,0.22191 0.07741,-0.98916 -4.418264,-0.34578 q -0.14507,-0.0113 -0.230174,-0.11089 -0.08509,-0.0995 -0.07374,-0.24463 0.01135,-0.14507 0.110897,-0.23017 0.09954,-0.0851 0.244633,-0.0737 l 4.418261,0.34577 0.07741,-0.98916 -5.209591,-0.4077 q -0.14507,-0.0113 -0.230174,-0.11089 -0.08509,-0.0996 -0.07374,-0.24463 0.01135,-0.14508 0.110895,-0.23018 0.09954,-0.0851 0.244633,-0.0737 l 5.209593,0.40771 0.07741,-0.98917 -4.154485,-0.32512 q -0.14507,-0.0113 -0.230177,-0.11091 -0.08509,-0.0995 -0.07374,-0.24462 0.01135,-0.14507 0.110895,-0.23017 0.09955,-0.0851 0.244633,-0.0737 l 5.605256,0.43866 0.05987,-0.76494 -1.201562,-0.58502 q -0.332589,-0.15872 -0.415506,-0.37089 -0.08292,-0.21217 -0.136247,-0.54809 -0.01605,-0.13395 0.04032,-0.17598 0.05636,-0.0421 0.170898,0.0204 l 3.453642,1.65032 q 0.95923,0.45989 1.49533,1.32457 0.536098,0.86466 0.441135,2.07804 z"
           id="path1265"
           style="fill:#ffffff;stroke-width:0.264583" /><path
           style="fill:#ffffff;stroke:#ffffff;stroke-width:0.765;stroke-linecap:butt;stroke-linejoin:miter;stroke-dasharray:none;stroke-opacity:1"
           d="M 76.474911,110.31065 94.4053,111.71388"
           id="path1267"
           sodipodi:nodetypes="cc" /></g></g><ellipse
       style="fill:#ff2b2b;fill-opacity:1;stroke:none;stroke-width:0.665003;stroke-linecap:square;stroke-linejoin:bevel;stroke-miterlimit:5"
       id="ellipse1273"
       cx="96.120811"
       cy="59.6735"
       rx="9"
       ry="8.9999981" /><text
       xml:space="preserve"
       style="font-size:9.6806px;line-height:1.25;font-family:sans-serif;-inkscape-font-specification:'sans-serif, Normal';fill:#ffffff;stroke-width:0.264583"
       x="92.481133"
       y="63.202095"
       id="text1277"><tspan
         sodipodi:role="line"
         id="tspan1275"
         style="fill:#ffffff;stroke-width:0.264583"
         x="92.481133"
         y="63.202095">H</tspan></text><g
       id="g1299"
       transform="matrix(0.94108108,-0.96371702,0.96371702,0.94108108,21.031118,41.984556)"><g
         id="g1297"
         transform="matrix(0.41752957,0,0,0.41752957,15.543221,29.300189)"><path
           d="m 76.718047,110.26798 q 0.112506,-1.43758 -0.544531,-2.5373 -0.657036,-1.09972 -1.847471,-1.65732 l -3.416142,-1.62085 q -0.102408,-0.0478 -0.212972,-0.0763 -0.110547,-0.0286 -0.229243,-0.0379 -0.342911,-0.0268 -0.62734,0.21626 -0.284419,0.24313 -0.311256,0.58604 -0.0062,0.0791 -0.0053,0.15218 9.03e-4,0.0731 0.0221,0.14107 l 0.07455,0.40393 q 0.0453,0.26893 0.145536,0.42937 0.100237,0.16046 0.37594,0.3678 l -3.666468,-0.28694 q -0.461608,-0.0361 -0.817135,0.26778 -0.355524,0.30392 -0.391649,0.76553 -0.01239,0.15827 0.02345,0.29377 0.03583,0.13551 0.106717,0.24721 l -0.105519,-0.008 q -0.46161,-0.0361 -0.817657,0.27436 -0.356042,0.31051 -0.392166,0.77212 -0.03303,0.42203 0.220192,0.74706 0.253227,0.32502 0.617354,0.41986 -0.07009,0.0476 -0.116464,0.21647 -0.04639,0.16887 -0.05774,0.31395 -0.03922,0.50118 0.312404,0.84053 0.351625,0.33935 0.813236,0.37548 l 0.514364,0.0403 q -0.08636,0.0861 -0.130683,0.22863 -0.04433,0.1425 -0.05568,0.28758 -0.03612,0.46161 0.267788,0.81713 0.303918,0.35553 0.765526,0.39165 l 5.077705,0.39738 q 1.806871,0.14141 3.036987,-0.91015 1.230117,-1.05155 1.371524,-2.85842 z m -0.79133,-0.0619 q -0.1156,1.47716 -1.103444,2.31545 -0.987844,0.83829 -2.451807,0.72372 l -5.077703,-0.39738 q -0.14507,-0.0113 -0.230174,-0.1109 -0.08509,-0.0995 -0.07374,-0.24462 0.01135,-0.14507 0.110898,-0.23017 0.09954,-0.0851 0.244632,-0.0737 l 2.8356,0.22191 0.07741,-0.98916 -4.418264,-0.34578 q -0.14507,-0.0113 -0.230174,-0.11089 -0.08509,-0.0995 -0.07374,-0.24463 0.01135,-0.14507 0.110897,-0.23017 0.09954,-0.0851 0.244633,-0.0737 l 4.418261,0.34577 0.07741,-0.98916 -5.209591,-0.4077 q -0.14507,-0.0113 -0.230174,-0.11089 -0.08509,-0.0996 -0.07374,-0.24463 0.01135,-0.14508 0.110895,-0.23018 0.09954,-0.0851 0.244633,-0.0737 l 5.209593,0.40771 0.07741,-0.98917 -4.154485,-0.32512 q -0.14507,-0.0113 -0.230177,-0.11091 -0.08509,-0.0995 -0.07374,-0.24462 0.01135,-0.14507 0.110895,-0.23017 0.09955,-0.0851 0.244633,-0.0737 l 5.605256,0.43866 0.05987,-0.76494 -1.201562,-0.58502 q -0.332589,-0.15872 -0.415506,-0.37089 -0.08292,-0.21217 -0.136247,-0.54809 -0.01605,-0.13395 0.04032,-0.17598 0.05636,-0.0421 0.170898,0.0204 l 3.453642,1.65032 q 0.95923,0.45989 1.49533,1.32457 0.536098,0.86466 0.441135,2.07804 z"
           id="path1293"
           style="fill:#ffffff;stroke-width:0.264583" /><path
           style="fill:#ffffff;stroke:#ffffff;stroke-width:0.765;stroke-linecap:butt;stroke-linejoin:miter;stroke-dasharray:none;stroke-opacity:1"
           d="M 76.474911,110.31065 94.4053,111.71388"
           id="path1295"
           sodipodi:nodetypes="cc" /></g></g><ellipse
       style="fill:#ff2b2b;fill-opacity:1;stroke:none;stroke-width:0.665003;stroke-linecap:square;stroke-linejoin:bevel;stroke-miterlimit:5"
       id="ellipse1301"
       cx="147.1947"
       cy="59.318817"
       rx="9"
       ry="8.9999981" /><text
       xml:space="preserve"
       style="font-size:9.6806px;line-height:1.25;font-family:sans-serif;-inkscape-font-specification:'sans-serif, Normal';fill:#ffffff;stroke-width:0.264583"
       x="143.55502"
       y="62.847412"
       id="text1305"><tspan
         sodipodi:role="line"
         id="tspan1303"
         style="fill:#ffffff;stroke-width:0.264583"
         x="143.55502"
         y="62.847412">H</tspan></text><g
       id="g1313"
       transform="matrix(0.1021979,1.3431082,-1.3431082,0.1021979,216.13303,30.986603)"><g
         id="g1311"
         transform="matrix(0.41752957,0,0,0.41752957,15.543221,29.300189)"><path
           d="m 76.718047,110.26798 q 0.112506,-1.43758 -0.544531,-2.5373 -0.657036,-1.09972 -1.847471,-1.65732 l -3.416142,-1.62085 q -0.102408,-0.0478 -0.212972,-0.0763 -0.110547,-0.0286 -0.229243,-0.0379 -0.342911,-0.0268 -0.62734,0.21626 -0.284419,0.24313 -0.311256,0.58604 -0.0062,0.0791 -0.0053,0.15218 9.03e-4,0.0731 0.0221,0.14107 l 0.07455,0.40393 q 0.0453,0.26893 0.145536,0.42937 0.100237,0.16046 0.37594,0.3678 l -3.666468,-0.28694 q -0.461608,-0.0361 -0.817135,0.26778 -0.355524,0.30392 -0.391649,0.76553 -0.01239,0.15827 0.02345,0.29377 0.03583,0.13551 0.106717,0.24721 l -0.105519,-0.008 q -0.46161,-0.0361 -0.817657,0.27436 -0.356042,0.31051 -0.392166,0.77212 -0.03303,0.42203 0.220192,0.74706 0.253227,0.32502 0.617354,0.41986 -0.07009,0.0476 -0.116464,0.21647 -0.04639,0.16887 -0.05774,0.31395 -0.03922,0.50118 0.312404,0.84053 0.351625,0.33935 0.813236,0.37548 l 0.514364,0.0403 q -0.08636,0.0861 -0.130683,0.22863 -0.04433,0.1425 -0.05568,0.28758 -0.03612,0.46161 0.267788,0.81713 0.303918,0.35553 0.765526,0.39165 l 5.077705,0.39738 q 1.806871,0.14141 3.036987,-0.91015 1.230117,-1.05155 1.371524,-2.85842 z m -0.79133,-0.0619 q -0.1156,1.47716 -1.103444,2.31545 -0.987844,0.83829 -2.451807,0.72372 l -5.077703,-0.39738 q -0.14507,-0.0113 -0.230174,-0.1109 -0.08509,-0.0995 -0.07374,-0.24462 0.01135,-0.14507 0.110898,-0.23017 0.09954,-0.0851 0.244632,-0.0737 l 2.8356,0.22191 0.07741,-0.98916 -4.418264,-0.34578 q -0.14507,-0.0113 -0.230174,-0.11089 -0.08509,-0.0995 -0.07374,-0.24463 0.01135,-0.14507 0.110897,-0.23017 0.09954,-0.0851 0.244633,-0.0737 l 4.418261,0.34577 0.07741,-0.98916 -5.209591,-0.4077 q -0.14507,-0.0113 -0.230174,-0.11089 -0.08509,-0.0996 -0.07374,-0.24463 0.01135,-0.14508 0.110895,-0.23018 0.09954,-0.0851 0.244633,-0.0737 l 5.209593,0.40771 0.07741,-0.98917 -4.154485,-0.32512 q -0.14507,-0.0113 -0.230177,-0.11091 -0.08509,-0.0995 -0.07374,-0.24462 0.01135,-0.14507 0.110895,-0.23017 0.09955,-0.0851 0.244633,-0.0737 l 5.605256,0.43866 0.05987,-0.76494 -1.201562,-0.58502 q -0.332589,-0.15872 -0.415506,-0.37089 -0.08292,-0.21217 -0.136247,-0.54809 -0.01605,-0.13395 0.04032,-0.17598 0.05636,-0.0421 0.170898,0.0204 l 3.453642,1.65032 q 0.95923,0.45989 1.49533,1.32457 0.536098,0.86466 0.441135,2.07804 z"
           id="path1307"
           style="fill:#ffffff;stroke-width:0.264583" /><path
           style="fill:#ffffff;stroke:#ffffff;stroke-width:0.765;stroke-linecap:butt;stroke-linejoin:miter;stroke-dasharray:none;stroke-opacity:1"
           d="M 76.474911,110.31065 94.4053,111.71388"
           id="path1309"
           sodipodi:nodetypes="cc" /></g></g><ellipse
       style="fill:#ff2b2b;fill-opacity:1;stroke:none;stroke-width:0.665003;stroke-linecap:square;stroke-linejoin:bevel;stroke-miterlimit:5"
       id="ellipse1315"
       cx="120.23906"
       cy="115.89024"
       rx="9"
       ry="8.9999981" /><text
       xml:space="preserve"
       style="font-size:9.6806px;line-height:1.25;font-family:sans-serif;-inkscape-font-specification:'sans-serif, Normal';fill:#ffffff;stroke-width:0.264583"
       x="116.59937"
       y="119.41885"
       id="text1319"><tspan
         sodipodi:role="line"
         id="tspan1317"
         style="fill:#ffffff;stroke-width:0.264583"
         x="116.59937"
         y="119.41885">H</tspan></text><g
       id="g1327"
       transform="matrix(0.94108108,-0.96371702,0.96371702,0.94108108,97.09708,40.730574)"><g
         id="g1325"
         transform="matrix(0.41752957,0,0,0.41752957,15.543221,29.300189)"><path
           d="m 76.718047,110.26798 q 0.112506,-1.43758 -0.544531,-2.5373 -0.657036,-1.09972 -1.847471,-1.65732 l -3.416142,-1.62085 q -0.102408,-0.0478 -0.212972,-0.0763 -0.110547,-0.0286 -0.229243,-0.0379 -0.342911,-0.0268 -0.62734,0.21626 -0.284419,0.24313 -0.311256,0.58604 -0.0062,0.0791 -0.0053,0.15218 9.03e-4,0.0731 0.0221,0.14107 l 0.07455,0.40393 q 0.0453,0.26893 0.145536,0.42937 0.100237,0.16046 0.37594,0.3678 l -3.666468,-0.28694 q -0.461608,-0.0361 -0.817135,0.26778 -0.355524,0.30392 -0.391649,0.76553 -0.01239,0.15827 0.02345,0.29377 0.03583,0.13551 0.106717,0.24721 l -0.105519,-0.008 q -0.46161,-0.0361 -0.817657,0.27436 -0.356042,0.31051 -0.392166,0.77212 -0.03303,0.42203 0.220192,0.74706 0.253227,0.32502 0.617354,0.41986 -0.07009,0.0476 -0.116464,0.21647 -0.04639,0.16887 -0.05774,0.31395 -0.03922,0.50118 0.312404,0.84053 0.351625,0.33935 0.813236,0.37548 l 0.514364,0.0403 q -0.08636,0.0861 -0.130683,0.22863 -0.04433,0.1425 -0.05568,0.28758 -0.03612,0.46161 0.267788,0.81713 0.303918,0.35553 0.765526,0.39165 l 5.077705,0.39738 q 1.806871,0.14141 3.036987,-0.91015 1.230117,-1.05155 1.371524,-2.85842 z m -0.79133,-0.0619 q -0.1156,1.47716 -1.103444,2.31545 -0.987844,0.83829 -2.451807,0.72372 l -5.077703,-0.39738 q -0.14507,-0.0113 -0.230174,-0.1109 -0.08509,-0.0995 -0.07374,-0.24462 0.01135,-0.14507 0.110898,-0.23017 0.09954,-0.0851 0.244632,-0.0737 l 2.8356,0.22191 0.07741,-0.98916 -4.418264,-0.34578 q -0.14507,-0.0113 -0.230174,-0.11089 -0.08509,-0.0995 -0.07374,-0.24463 0.01135,-0.14507 0.110897,-0.23017 0.09954,-0.0851 0.244633,-0.0737 l 4.418261,0.34577 0.07741,-0.98916 -5.209591,-0.4077 q -0.14507,-0.0113 -0.230174,-0.11089 -0.08509,-0.0996 -0.07374,-0.24463 0.01135,-0.14508 0.110895,-0.23018 0.09954,-0.0851 0.244633,-0.0737 l 5.209593,0.40771 0.07741,-0.98917 -4.154485,-0.32512 q -0.14507,-0.0113 -0.230177,-0.11091 -0.08509,-0.0995 -0.07374,-0.24462 0.01135,-0.14507 0.110895,-0.23017 0.09955,-0.0851 0.244633,-0.0737 l 5.605256,0.43866 0.05987,-0.76494 -1.201562,-0.58502 q -0.332589,-0.15872 -0.415506,-0.37089 -0.08292,-0.21217 -0.136247,-0.54809 -0.01605,-0.13395 0.04032,-0.17598 0.05636,-0.0421 0.170898,0.0204 l 3.453642,1.65032 q 0.95923,0.45989 1.49533,1.32457 0.536098,0.86466 0.441135,2.07804 z"
           id="path1321"
           style="fill:#ffffff;stroke-width:0.264583" /><path
           style="fill:#ffffff;stroke:#ffffff;stroke-width:0.765;stroke-linecap:butt;stroke-linejoin:miter;stroke-dasharray:none;stroke-opacity:1"
           d="M 76.474911,110.31065 94.4053,111.71388"
           id="path1323"
           sodipodi:nodetypes="cc" /></g></g><ellipse
       style="fill:#ff2b2b;fill-opacity:1;stroke:none;stroke-width:0.665003;stroke-linecap:square;stroke-linejoin:bevel;stroke-miterlimit:5"
       id="ellipse1329"
       cx="223.26067"
       cy="58.064835"
       rx="9"
       ry="8.9999981" /><text
       xml:space="preserve"
       style="font-size:9.6806px;line-height:1.25;font-family:sans-serif;-inkscape-font-specification:'sans-serif, Normal';fill:#ffffff;stroke-width:0.264583"
       x="219.62099"
       y="61.59343"
       id="text1333"><tspan
         sodipodi:role="line"
         id="tspan1331"
         style="fill:#ffffff;stroke-width:0.264583"
         x="219.62099"
         y="61.59343">H</tspan></text><g
       id="g1341"
       transform="matrix(-0.94108108,-0.96371702,-0.96371702,0.94108108,300.35372,40.332866)"><g
         id="g1339"
         transform="matrix(0.41752957,0,0,0.41752957,15.543221,29.300189)"><path
           d="m 76.718047,110.26798 q 0.112506,-1.43758 -0.544531,-2.5373 -0.657036,-1.09972 -1.847471,-1.65732 l -3.416142,-1.62085 q -0.102408,-0.0478 -0.212972,-0.0763 -0.110547,-0.0286 -0.229243,-0.0379 -0.342911,-0.0268 -0.62734,0.21626 -0.284419,0.24313 -0.311256,0.58604 -0.0062,0.0791 -0.0053,0.15218 9.03e-4,0.0731 0.0221,0.14107 l 0.07455,0.40393 q 0.0453,0.26893 0.145536,0.42937 0.100237,0.16046 0.37594,0.3678 l -3.666468,-0.28694 q -0.461608,-0.0361 -0.817135,0.26778 -0.355524,0.30392 -0.391649,0.76553 -0.01239,0.15827 0.02345,0.29377 0.03583,0.13551 0.106717,0.24721 l -0.105519,-0.008 q -0.46161,-0.0361 -0.817657,0.27436 -0.356042,0.31051 -0.392166,0.77212 -0.03303,0.42203 0.220192,0.74706 0.253227,0.32502 0.617354,0.41986 -0.07009,0.0476 -0.116464,0.21647 -0.04639,0.16887 -0.05774,0.31395 -0.03922,0.50118 0.312404,0.84053 0.351625,0.33935 0.813236,0.37548 l 0.514364,0.0403 q -0.08636,0.0861 -0.130683,0.22863 -0.04433,0.1425 -0.05568,0.28758 -0.03612,0.46161 0.267788,0.81713 0.303918,0.35553 0.765526,0.39165 l 5.077705,0.39738 q 1.806871,0.14141 3.036987,-0.91015 1.230117,-1.05155 1.371524,-2.85842 z m -0.79133,-0.0619 q -0.1156,1.47716 -1.103444,2.31545 -0.987844,0.83829 -2.451807,0.72372 l -5.077703,-0.39738 q -0.14507,-0.0113 -0.230174,-0.1109 -0.08509,-0.0995 -0.07374,-0.24462 0.01135,-0.14507 0.110898,-0.23017 0.09954,-0.0851 0.244632,-0.0737 l 2.8356,0.22191 0.07741,-0.98916 -4.418264,-0.34578 q -0.14507,-0.0113 -0.230174,-0.11089 -0.08509,-0.0995 -0.07374,-0.24463 0.01135,-0.14507 0.110897,-0.23017 0.09954,-0.0851 0.244633,-0.0737 l 4.418261,0.34577 0.07741,-0.98916 -5.209591,-0.4077 q -0.14507,-0.0113 -0.230174,-0.11089 -0.08509,-0.0996 -0.07374,-0.24463 0.01135,-0.14508 0.110895,-0.23018 0.09954,-0.0851 0.244633,-0.0737 l 5.209593,0.40771 0.07741,-0.98917 -4.154485,-0.32512 q -0.14507,-0.0113 -0.230177,-0.11091 -0.08509,-0.0995 -0.07374,-0.24462 0.01135,-0.14507 0.110895,-0.23017 0.09955,-0.0851 0.244633,-0.0737 l 5.605256,0.43866 0.05987,-0.76494 -1.201562,-0.58502 q -0.332589,-0.15872 -0.415506,-0.37089 -0.08292,-0.21217 -0.136247,-0.54809 -0.01605,-0.13395 0.04032,-0.17598 0.05636,-0.0421 0.170898,0.0204 l 3.453642,1.65032 q 0.95923,0.45989 1.49533,1.32457 0.536098,0.86466 0.441135,2.07804 z"
           id="path1335"
           style="fill:#ffffff;stroke-width:0.264583" /><path
           style="fill:#ffffff;stroke:#ffffff;stroke-width:0.765;stroke-linecap:butt;stroke-linejoin:miter;stroke-dasharray:none;stroke-opacity:1"
           d="M 76.474911,110.31065 94.4053,111.71388"
           id="path1337"
           sodipodi:nodetypes="cc" /></g></g><ellipse
       style="fill:#ff2b2b;fill-opacity:1;stroke:none;stroke-width:0.665003;stroke-linecap:square;stroke-linejoin:bevel;stroke-miterlimit:5"
       id="ellipse1343"
       cx="173.94234"
       cy="57.667126"
       rx="9"
       ry="8.9999981" /><text
       xml:space="preserve"
       style="font-size:9.6806px;line-height:1.25;font-family:sans-serif;-inkscape-font-specification:'sans-serif, Normal';fill:#ffffff;stroke-width:0.264583"
       x="170.30266"
       y="61.195721"
       id="text1347"><tspan
         sodipodi:role="line"
         id="tspan1345"
         style="fill:#ffffff;stroke-width:0.264583"
         x="170.30266"
         y="61.195721">H</tspan></text><g
       id="g1369"
       transform="matrix(-0.30211079,1.3126741,-1.3126741,-0.30211079,297.993,59.395558)"><g
         id="g1367"
         transform="matrix(0.40947109,0.08163556,-0.08163556,0.40947109,24.909207,24.176092)"><path
           d="m 76.718047,110.26798 q 0.112506,-1.43758 -0.544531,-2.5373 -0.657036,-1.09972 -1.847471,-1.65732 l -3.416142,-1.62085 q -0.102408,-0.0478 -0.212972,-0.0763 -0.110547,-0.0286 -0.229243,-0.0379 -0.342911,-0.0268 -0.62734,0.21626 -0.284419,0.24313 -0.311256,0.58604 -0.0062,0.0791 -0.0053,0.15218 9.03e-4,0.0731 0.0221,0.14107 l 0.07455,0.40393 q 0.0453,0.26893 0.145536,0.42937 0.100237,0.16046 0.37594,0.3678 l -3.666468,-0.28694 q -0.461608,-0.0361 -0.817135,0.26778 -0.355524,0.30392 -0.391649,0.76553 -0.01239,0.15827 0.02345,0.29377 0.03583,0.13551 0.106717,0.24721 l -0.105519,-0.008 q -0.46161,-0.0361 -0.817657,0.27436 -0.356042,0.31051 -0.392166,0.77212 -0.03303,0.42203 0.220192,0.74706 0.253227,0.32502 0.617354,0.41986 -0.07009,0.0476 -0.116464,0.21647 -0.04639,0.16887 -0.05774,0.31395 -0.03922,0.50118 0.312404,0.84053 0.351625,0.33935 0.813236,0.37548 l 0.514364,0.0403 q -0.08636,0.0861 -0.130683,0.22863 -0.04433,0.1425 -0.05568,0.28758 -0.03612,0.46161 0.267788,0.81713 0.303918,0.35553 0.765526,0.39165 l 5.077705,0.39738 q 1.806871,0.14141 3.036987,-0.91015 1.230117,-1.05155 1.371524,-2.85842 z m -0.79133,-0.0619 q -0.1156,1.47716 -1.103444,2.31545 -0.987844,0.83829 -2.451807,0.72372 l -5.077703,-0.39738 q -0.14507,-0.0113 -0.230174,-0.1109 -0.08509,-0.0995 -0.07374,-0.24462 0.01135,-0.14507 0.110898,-0.23017 0.09954,-0.0851 0.244632,-0.0737 l 2.8356,0.22191 0.07741,-0.98916 -4.418264,-0.34578 q -0.14507,-0.0113 -0.230174,-0.11089 -0.08509,-0.0995 -0.07374,-0.24463 0.01135,-0.14507 0.110897,-0.23017 0.09954,-0.0851 0.244633,-0.0737 l 4.418261,0.34577 0.07741,-0.98916 -5.209591,-0.4077 q -0.14507,-0.0113 -0.230174,-0.11089 -0.08509,-0.0996 -0.07374,-0.24463 0.01135,-0.14508 0.110895,-0.23018 0.09954,-0.0851 0.244633,-0.0737 l 5.209593,0.40771 0.07741,-0.98917 -4.154485,-0.32512 q -0.14507,-0.0113 -0.230177,-0.11091 -0.08509,-0.0995 -0.07374,-0.24462 0.01135,-0.14507 0.110895,-0.23017 0.09955,-0.0851 0.244633,-0.0737 l 5.605256,0.43866 0.05987,-0.76494 -1.201562,-0.58502 q -0.332589,-0.15872 -0.415506,-0.37089 -0.08292,-0.21217 -0.136247,-0.54809 -0.01605,-0.13395 0.04032,-0.17598 0.05636,-0.0421 0.170898,0.0204 l 3.453642,1.65032 q 0.95923,0.45989 1.49533,1.32457 0.536098,0.86466 0.441135,2.07804 z"
           id="path1363"
           style="fill:#ffffff;stroke-width:0.264583" /><path
           style="fill:#ffffff;stroke:#ffffff;stroke-width:0.765;stroke-linecap:butt;stroke-linejoin:miter;stroke-dasharray:none;stroke-opacity:1"
           d="M 76.474911,110.31065 94.4053,111.71388"
           id="path1365"
           sodipodi:nodetypes="cc" /></g></g><ellipse
       style="fill:#ff2b2b;fill-opacity:1;stroke:none;stroke-width:0.665003;stroke-linecap:square;stroke-linejoin:bevel;stroke-miterlimit:5"
       id="ellipse1371"
       cx="179.75243"
       cy="111.28461"
       rx="9"
       ry="8.9999981" /><text
       xml:space="preserve"
       style="font-size:9.6806px;line-height:1.25;font-family:sans-serif;-inkscape-font-specification:'sans-serif, Normal';fill:#ffffff;stroke-width:0.264583"
       x="176.11273"
       y="114.81322"
       id="text1375"><tspan
         sodipodi:role="line"
         id="tspan1373"
         style="fill:#ffffff;stroke-width:0.264583"
         x="176.11273"
         y="114.81322">H</tspan></text><g
       id="g1440"
       transform="matrix(1.036397,0.8603868,-0.8603868,1.036397,229.79723,-22.057008)"><g
         id="g1438"
         transform="matrix(0.40947109,0.08163556,-0.08163556,0.40947109,24.909207,24.176092)"><path
           d="m 76.718047,110.26798 q 0.112506,-1.43758 -0.544531,-2.5373 -0.657036,-1.09972 -1.847471,-1.65732 l -3.416142,-1.62085 q -0.102408,-0.0478 -0.212972,-0.0763 -0.110547,-0.0286 -0.229243,-0.0379 -0.342911,-0.0268 -0.62734,0.21626 -0.284419,0.24313 -0.311256,0.58604 -0.0062,0.0791 -0.0053,0.15218 9.03e-4,0.0731 0.0221,0.14107 l 0.07455,0.40393 q 0.0453,0.26893 0.145536,0.42937 0.100237,0.16046 0.37594,0.3678 l -3.666468,-0.28694 q -0.461608,-0.0361 -0.817135,0.26778 -0.355524,0.30392 -0.391649,0.76553 -0.01239,0.15827 0.02345,0.29377 0.03583,0.13551 0.106717,0.24721 l -0.105519,-0.008 q -0.46161,-0.0361 -0.817657,0.27436 -0.356042,0.31051 -0.392166,0.77212 -0.03303,0.42203 0.220192,0.74706 0.253227,0.32502 0.617354,0.41986 -0.07009,0.0476 -0.116464,0.21647 -0.04639,0.16887 -0.05774,0.31395 -0.03922,0.50118 0.312404,0.84053 0.351625,0.33935 0.813236,0.37548 l 0.514364,0.0403 q -0.08636,0.0861 -0.130683,0.22863 -0.04433,0.1425 -0.05568,0.28758 -0.03612,0.46161 0.267788,0.81713 0.303918,0.35553 0.765526,0.39165 l 5.077705,0.39738 q 1.806871,0.14141 3.036987,-0.91015 1.230117,-1.05155 1.371524,-2.85842 z m -0.79133,-0.0619 q -0.1156,1.47716 -1.103444,2.31545 -0.987844,0.83829 -2.451807,0.72372 l -5.077703,-0.39738 q -0.14507,-0.0113 -0.230174,-0.1109 -0.08509,-0.0995 -0.07374,-0.24462 0.01135,-0.14507 0.110898,-0.23017 0.09954,-0.0851 0.244632,-0.0737 l 2.8356,0.22191 0.07741,-0.98916 -4.418264,-0.34578 q -0.14507,-0.0113 -0.230174,-0.11089 -0.08509,-0.0995 -0.07374,-0.24463 0.01135,-0.14507 0.110897,-0.23017 0.09954,-0.0851 0.244633,-0.0737 l 4.418261,0.34577 0.07741,-0.98916 -5.209591,-0.4077 q -0.14507,-0.0113 -0.230174,-0.11089 -0.08509,-0.0996 -0.07374,-0.24463 0.01135,-0.14508 0.110895,-0.23018 0.09954,-0.0851 0.244633,-0.0737 l 5.209593,0.40771 0.07741,-0.98917 -4.154485,-0.32512 q -0.14507,-0.0113 -0.230177,-0.11091 -0.08509,-0.0995 -0.07374,-0.24462 0.01135,-0.14507 0.110895,-0.23017 0.09955,-0.0851 0.244633,-0.0737 l 5.605256,0.43866 0.05987,-0.76494 -1.201562,-0.58502 q -0.332589,-0.15872 -0.415506,-0.37089 -0.08292,-0.21217 -0.136247,-0.54809 -0.01605,-0.13395 0.04032,-0.17598 0.05636,-0.0421 0.170898,0.0204 l 3.453642,1.65032 q 0.95923,0.45989 1.49533,1.32457 0.536098,0.86466 0.441135,2.07804 z"
           id="path1434"
           style="fill:#ffffff;stroke-width:0.264583" /><path
           style="fill:#ffffff;stroke:#ffffff;stroke-width:0.765;stroke-linecap:butt;stroke-linejoin:miter;stroke-dasharray:none;stroke-opacity:1"
           d="M 76.474911,110.31065 94.4053,111.71388"
           id="path1436"
           sodipodi:nodetypes="cc" /></g></g><ellipse
       style="fill:#ff2b2b;fill-opacity:1;stroke:none;stroke-width:0.665003;stroke-linecap:square;stroke-linejoin:bevel;stroke-miterlimit:5"
       id="ellipse1442"
       cx="221.24416"
       cy="110.03152"
       rx="9"
       ry="8.9999981" /><text
       xml:space="preserve"
       style="font-size:9.6806px;line-height:1.25;font-family:sans-serif;-inkscape-font-specification:'sans-serif, Normal';fill:#ffffff;stroke-width:0.264583"
       x="217.60446"
       y="113.56013"
       id="text1446"><tspan
         sodipodi:role="line"
         id="tspan1444"
         style="fill:#ffffff;stroke-width:0.264583"
         x="217.60446"
         y="113.56013">H</tspan></text></g></svg>
