<?xml version="1.0" encoding="UTF-8" standalone="no"?>
<!-- Created with Inkscape (http://www.inkscape.org/) -->

<svg
   width="317.07999"
   height="132.09917"
   viewBox="0 0 83.89408 34.951239"
   version="1.1"
   id="svg5"
   xml:space="preserve"
   inkscape:version="1.2.1 (9c6d41e410, 2022-07-14)"
   sodipodi:docname="fig_2.8_3d.svg"
   inkscape:export-filename="../imgs/fig_2.8.png"
   inkscape:export-xdpi="581.30756"
   inkscape:export-ydpi="581.30756"
   xmlns:inkscape="http://www.inkscape.org/namespaces/inkscape"
   xmlns:sodipodi="http://sodipodi.sourceforge.net/DTD/sodipodi-0.dtd"
   xmlns="http://www.w3.org/2000/svg"
   xmlns:svg="http://www.w3.org/2000/svg"><sodipodi:namedview
     id="namedview7"
     pagecolor="#121212"
     bordercolor="#666666"
     borderopacity="1.0"
     inkscape:showpageshadow="2"
     inkscape:pageopacity="1"
     inkscape:pagecheckerboard="0"
     inkscape:deskcolor="#d1d1d1"
     inkscape:document-units="mm"
     showgrid="false"
     inkscape:zoom="5.6568542"
     inkscape:cx="206.12163"
     inkscape:cy="82.908271"
     inkscape:window-width="1888"
     inkscape:window-height="1060"
     inkscape:window-x="32"
     inkscape:window-y="0"
     inkscape:window-maximized="1"
     inkscape:current-layer="layer1" /><defs
     id="defs2" /><g
     inkscape:label="Layer 1"
     inkscape:groupmode="layer"
     id="layer1"
     transform="translate(-101.42124,-41.838741)"><ellipse
       style="fill:#373737;fill-opacity:1;stroke:none;stroke-width:0.665003;stroke-linecap:square;stroke-linejoin:bevel;stroke-miterlimit:5"
       id="ellipse1301"
       cx="143.36806"
       cy="61.473415"
       rx="11.837658"
       ry="11.837655" /><circle
       style="fill:#4242ff;fill-opacity:1;stroke:#4242ff;stroke-width:0.264583;stroke-opacity:1;stop-color:#000000"
       id="path447"
       cx="143.36806"
       cy="52.591442"
       r="1.3162271" /><g
       aria-label="-"
       id="text1112"
       style="font-size:4.94334px;line-height:1.25;-inkscape-font-specification:'sans-serif, Normal';fill:#ffffff;stroke-width:0.264583"><path
         d="m 143.95702,52.773678 h -1.17791 v -0.364475 h 1.17791 z"
         style="font-family:Roboto;-inkscape-font-specification:Roboto"
         id="path310" /></g><circle
       style="fill:#ff2b2b;fill-opacity:1;stroke:#ff2b2b;stroke-width:0.264583;stroke-opacity:1;stop-color:#000000"
       id="circle2191"
       cx="143.36806"
       cy="61.473415"
       r="2.1581261" /><g
       aria-label="+"
       id="text2195"
       style="font-size:4.33943px;line-height:1.25;-inkscape-font-specification:'sans-serif, Normal';fill:#ffffff;stroke-width:0.264583"><path
         d="m 143.56511,61.250934 h 0.86026 v 0.370801 h -0.86026 v 0.974677 h -0.3941 v -0.974677 h -0.86026 v -0.370801 h 0.86026 v -0.900516 h 0.3941 z"
         style="font-family:Roboto;-inkscape-font-specification:Roboto"
         id="path313" /></g><g
       aria-label="إلكترون/إلكترونات (سالبات الشحن)"
       id="text5226"
       style="font-size:2.64286px;line-height:1.25;font-family:Vazirmatn;-inkscape-font-specification:Vazirmatn;text-align:center;direction:rtl;text-anchor:middle;fill:#4242ff;stroke-width:0.264583"><path
         d="m 121.50992,47.787586 -0.14195,0.05549 0.0181,0.126465 0.49166,-0.194859 -0.0181,-0.127756 -0.17034,0.06194 q -0.004,0.0013 -0.008,0.0026 -0.003,0.0013 -0.005,0.0013 -0.0723,0.01032 -0.11227,-0.02839 -0.0387,-0.03742 -0.04,-0.07743 0,-0.06452 0.0465,-0.09807 0.0477,-0.03355 0.10324,-0.03355 0.0297,0 0.0645,0.0052 0.0348,0.0052 0.0748,0.02581 l -10e-4,-0.127755 q -0.0361,-0.02194 -0.0749,-0.03226 -0.0374,-0.009 -0.0813,-0.009 -0.0981,0 -0.1755,0.07098 -0.0761,0.07098 -0.0761,0.181955 0,0.07614 0.031,0.120013 0.031,0.04387 0.0748,0.07743 z m 0.24003,-2.380896 h -0.22067 v 1.788576 h 0.22067 z"
         style="fill:#ffffff"
         id="path316" /><path
         d="m 120.54724,46.961693 v 0.234863 h 0.10453 q 0.25034,0 0.36649,-0.136789 0.11743,-0.138079 0.11743,-0.406494 V 45.40669 h -0.22067 v 1.247873 q 0,0.131627 -0.0542,0.219378 -0.0529,0.08775 -0.20776,0.08775 z"
         style="fill:#ffffff"
         id="path318" /><path
         d="m 119.50455,45.944811 0.8117,-0.329067 v -0.228411 l -0.92784,0.376814 q -0.0594,0.02452 -0.0916,0.07872 -0.031,0.0542 -0.031,0.108398 0,0.04388 0.0232,0.08259 0.0232,0.03742 0.0645,0.07097 0.0761,0.06065 0.16131,0.122593 0.0865,0.06065 0.16776,0.122594 0.0813,0.06194 0.14711,0.126465 0.0671,0.06323 0.10582,0.129046 0.04,0.06581 0.04,0.134208 0,0.08775 -0.0477,0.136788 -0.0465,0.04775 -0.1497,0.0671 -0.10194,0.01807 -0.2697,0.01807 h -0.311 v 0.234863 h 0.31229 q 0.1897,0 0.30842,-0.02581 0.12001,-0.0271 0.19357,-0.07872 0.0748,-0.05162 0.12646,-0.127756 0.0787,0.121304 0.17809,0.176793 0.10065,0.05549 0.24389,0.05549 h 0.0361 v -0.234863 h -0.0361 q -0.0916,0 -0.15485,-0.03355 -0.0632,-0.03355 -0.11098,-0.103237 -0.0465,-0.07097 -0.0929,-0.181955 -0.0387,-0.09291 -0.0942,-0.171631 -0.0542,-0.08001 -0.12259,-0.148403 -0.0671,-0.06968 -0.14582,-0.131626 -0.0774,-0.06323 -0.1626,-0.123884 -0.0839,-0.06065 -0.17163,-0.122594 z"
         style="fill:#ffffff"
         id="path320" /><path
         d="m 118.24764,46.961693 v 0.234863 h 0.0916 v -0.234863 z m 0.5678,-1.187223 -0.17937,0.179374 0.17937,0.181955 0.18067,-0.181955 z m -0.42843,0 -0.17937,0.179374 0.17937,0.181955 0.18066,-0.181955 z m 0.33423,0.633616 q 0.005,0.05549 0.008,0.110979 0.004,0.05549 0.004,0.117432 0,0.152274 -0.071,0.238735 -0.0697,0.08646 -0.23358,0.08646 h -0.1213 v 0.234863 h 0.1213 q 0.12389,0 0.23745,-0.04775 0.11356,-0.04775 0.18324,-0.149693 0.0349,0.06323 0.0839,0.107108 0.049,0.04388 0.11873,0.0671 0.0697,0.02323 0.16518,0.02323 h 0.0284 v -0.234863 h -0.0258 q -0.0826,0 -0.13937,-0.03484 -0.0555,-0.03484 -0.0865,-0.09678 -0.031,-0.06323 -0.0361,-0.145822 l -0.0206,-0.301968 z"
         style="fill:#ffffff"
         id="path322" /><path
         d="m 118.26442,47.196556 h 0.0336 v -0.234863 h -0.0478 q -0.0942,0 -0.15614,-0.04517 -0.062,-0.04517 -0.0903,-0.153564 l -0.0697,-0.269706 -0.21422,0.07227 q 0.0426,0.127755 0.0684,0.250349 0.0258,0.122593 0.0258,0.236154 0,0.150983 -0.0542,0.277448 -0.0542,0.127756 -0.17809,0.219378 -0.12259,0.09162 -0.33164,0.136789 l 0.0761,0.203893 q 0.22841,-0.04001 0.38069,-0.160017 0.15227,-0.118723 0.23099,-0.28132 0.08,-0.161308 0.089,-0.326487 0.0335,0.0271 0.0903,0.05162 0.0581,0.02323 0.14712,0.02323 z"
         style="fill:#ffffff"
         id="path324" /><path
         d="m 117.17785,46.975888 q 0,-0.136789 -0.0284,-0.267125 -0.0271,-0.131627 -0.0865,-0.237445 -0.0581,-0.105817 -0.14969,-0.16776 -0.0903,-0.06323 -0.21809,-0.06323 -0.1084,0 -0.19099,0.04904 -0.0813,0.04904 -0.1355,0.131627 -0.0542,0.0813 -0.0826,0.180665 -0.0271,0.09936 -0.0271,0.19873 0,0.201312 0.11873,0.300677 0.12001,0.09936 0.35229,0.09936 0.049,0 0.11356,-0.01161 0.0645,-0.01161 0.11356,-0.0271 -0.0206,0.132917 -0.10711,0.236154 -0.0865,0.104527 -0.23228,0.175502 -0.14453,0.07098 -0.34326,0.109689 l 0.0761,0.205183 q 0.27486,-0.05291 0.45811,-0.172921 0.18453,-0.118723 0.27616,-0.304549 0.0929,-0.184535 0.0929,-0.434884 z m -0.44134,-0.009 q -0.13162,0 -0.19615,-0.04 -0.0645,-0.04 -0.0645,-0.134208 0,-0.05807 0.0181,-0.132917 0.0194,-0.07485 0.0658,-0.130336 0.0478,-0.05678 0.13292,-0.05678 0.0619,0 0.1084,0.03097 0.0477,0.03097 0.0813,0.09162 0.0336,0.05936 0.0529,0.144532 0.0207,0.08517 0.0271,0.193568 -0.0555,0.01678 -0.11356,0.02581 -0.0581,0.0077 -0.11227,0.0077 z"
         style="fill:#ffffff"
         id="path326" /><path
         d="m 115.21635,46.100956 -0.18711,0.187117 0.18711,0.187117 0.18712,-0.187117 z m 0.0155,1.4337 q -0.20518,0 -0.32262,-0.06839 -0.11743,-0.06839 -0.16776,-0.183245 -0.049,-0.114851 -0.049,-0.254221 0,-0.117431 0.0258,-0.242606 0.0258,-0.125174 0.0632,-0.243897 l -0.20518,-0.08259 q -0.049,0.136789 -0.0774,0.28132 -0.0284,0.143241 -0.0284,0.28003 0,0.202602 0.0735,0.371652 0.0748,0.17034 0.24132,0.272287 0.16776,0.101946 0.4465,0.101946 0.2697,0 0.44004,-0.09549 0.17035,-0.09549 0.25035,-0.264544 0.0813,-0.16905 0.0813,-0.387138 0,-0.14195 -0.0323,-0.298096 -0.031,-0.157436 -0.0916,-0.323905 l -0.22067,0.08904 q 0.0361,0.09549 0.0774,0.245187 0.0413,0.149693 0.0413,0.303258 0,0.130336 -0.0477,0.243896 -0.0465,0.114851 -0.16518,0.184536 -0.11744,0.07097 -0.33294,0.07097 z"
         style="fill:#ffffff"
         id="path328" /><path
         d="m 113.48198,47.357863 0.7833,-2.040215 h -0.20389 l -0.7846,2.040215 z"
         style="fill:#ffffff"
         id="path330" /><path
         d="m 112.81868,47.787586 -0.14195,0.05549 0.0181,0.126465 0.49166,-0.194859 -0.0181,-0.127756 -0.17034,0.06194 q -0.004,0.0013 -0.008,0.0026 -0.003,0.0013 -0.005,0.0013 -0.0723,0.01032 -0.11227,-0.02839 -0.0387,-0.03742 -0.04,-0.07743 0,-0.06452 0.0465,-0.09807 0.0478,-0.03355 0.10324,-0.03355 0.0297,0 0.0645,0.0052 0.0348,0.0052 0.0748,0.02581 l -0.001,-0.127755 q -0.0361,-0.02194 -0.0748,-0.03226 -0.0374,-0.009 -0.0813,-0.009 -0.0981,0 -0.1755,0.07098 -0.0761,0.07098 -0.0761,0.181955 0,0.07614 0.031,0.120013 0.031,0.04387 0.0748,0.07743 z m 0.24002,-2.380896 h -0.22066 v 1.788576 h 0.22066 z"
         style="fill:#ffffff"
         id="path332" /><path
         d="m 111.856,46.961693 v 0.234863 h 0.10452 q 0.25035,0 0.36649,-0.136789 0.11744,-0.138079 0.11744,-0.406494 V 45.40669 h -0.22067 v 1.247873 q 0,0.131627 -0.0542,0.219378 -0.0529,0.08775 -0.20777,0.08775 z"
         style="fill:#ffffff"
         id="path334" /><path
         d="m 110.81331,45.944811 0.81169,-0.329067 v -0.228411 l -0.92784,0.376814 q -0.0594,0.02452 -0.0916,0.07872 -0.031,0.0542 -0.031,0.108398 0,0.04388 0.0232,0.08259 0.0232,0.03742 0.0645,0.07097 0.0761,0.06065 0.16131,0.122593 0.0865,0.06065 0.16776,0.122594 0.0813,0.06194 0.14711,0.126465 0.0671,0.06323 0.10582,0.129046 0.04,0.06581 0.04,0.134208 0,0.08775 -0.0477,0.136788 -0.0465,0.04775 -0.1497,0.0671 -0.10194,0.01807 -0.2697,0.01807 h -0.311 v 0.234863 h 0.31229 q 0.1897,0 0.30842,-0.02581 0.12001,-0.0271 0.19357,-0.07872 0.0748,-0.05162 0.12646,-0.127756 0.0787,0.121304 0.17808,0.176793 0.10066,0.05549 0.2439,0.05549 h 0.0361 v -0.234863 h -0.0361 q -0.0916,0 -0.15485,-0.03355 -0.0632,-0.03355 -0.11098,-0.103237 -0.0465,-0.07097 -0.0929,-0.181955 -0.0387,-0.09291 -0.0942,-0.171631 -0.0542,-0.08001 -0.12259,-0.148403 -0.0671,-0.06968 -0.14582,-0.131626 -0.0774,-0.06323 -0.1626,-0.123884 -0.0839,-0.06065 -0.17163,-0.122594 z"
         style="fill:#ffffff"
         id="path336" /><path
         d="m 109.5564,46.961693 v 0.234863 h 0.0916 v -0.234863 z m 0.5678,-1.187223 -0.17937,0.179374 0.17937,0.181955 0.18067,-0.181955 z m -0.42843,0 -0.17937,0.179374 0.17937,0.181955 0.18066,-0.181955 z m 0.33423,0.633616 q 0.005,0.05549 0.008,0.110979 0.004,0.05549 0.004,0.117432 0,0.152274 -0.071,0.238735 -0.0697,0.08646 -0.23358,0.08646 h -0.1213 v 0.234863 h 0.1213 q 0.12389,0 0.23745,-0.04775 0.11356,-0.04775 0.18324,-0.149693 0.0349,0.06323 0.0839,0.107108 0.049,0.04388 0.11873,0.0671 0.0697,0.02323 0.16517,0.02323 h 0.0284 v -0.234863 h -0.0258 q -0.0826,0 -0.13937,-0.03484 -0.0555,-0.03484 -0.0865,-0.09678 -0.031,-0.06323 -0.0361,-0.145822 l -0.0206,-0.301968 z"
         style="fill:#ffffff"
         id="path338" /><path
         d="m 109.57318,47.196556 h 0.0336 v -0.234863 h -0.0477 q -0.0942,0 -0.15614,-0.04517 -0.0619,-0.04517 -0.0903,-0.153564 l -0.0697,-0.269706 -0.21422,0.07227 q 0.0426,0.127755 0.0684,0.250349 0.0258,0.122593 0.0258,0.236154 0,0.150983 -0.0542,0.277448 -0.0542,0.127756 -0.17809,0.219378 -0.12259,0.09162 -0.33165,0.136789 l 0.0761,0.203893 q 0.22841,-0.04001 0.38069,-0.160017 0.15227,-0.118723 0.23099,-0.28132 0.08,-0.161308 0.089,-0.326487 0.0336,0.0271 0.0903,0.05162 0.0581,0.02323 0.14712,0.02323 z"
         style="fill:#ffffff"
         id="path340" /><path
         d="m 108.48661,46.975888 q 0,-0.136789 -0.0284,-0.267125 -0.0271,-0.131627 -0.0865,-0.237445 -0.0581,-0.105817 -0.1497,-0.16776 -0.0903,-0.06323 -0.21808,-0.06323 -0.1084,0 -0.19099,0.04904 -0.0813,0.04904 -0.1355,0.131627 -0.0542,0.0813 -0.0826,0.180665 -0.0271,0.09936 -0.0271,0.19873 0,0.201312 0.11872,0.300677 0.12002,0.09936 0.3523,0.09936 0.049,0 0.11356,-0.01161 0.0645,-0.01161 0.11356,-0.0271 -0.0207,0.132917 -0.10711,0.236154 -0.0865,0.104527 -0.23228,0.175502 -0.14453,0.07098 -0.34326,0.109689 l 0.0761,0.205183 q 0.27487,-0.05291 0.45812,-0.172921 0.18453,-0.118723 0.27616,-0.304549 0.0929,-0.184535 0.0929,-0.434884 z m -0.44134,-0.009 q -0.13162,0 -0.19615,-0.04 -0.0645,-0.04 -0.0645,-0.134208 0,-0.05807 0.0181,-0.132917 0.0193,-0.07485 0.0658,-0.130336 0.0477,-0.05678 0.13292,-0.05678 0.0619,0 0.10839,0.03097 0.0477,0.03097 0.0813,0.09162 0.0336,0.05936 0.0529,0.144532 0.0207,0.08517 0.0271,0.193568 -0.0555,0.01678 -0.11356,0.02581 -0.0581,0.0077 -0.11227,0.0077 z"
         style="fill:#ffffff"
         id="path342" /><path
         d="m 106.80514,47.196556 q 0.20389,0 0.31358,-0.06968 0.10969,-0.06968 0.15099,-0.189697 0.0426,-0.121303 0.0426,-0.276158 0,-0.0942 -0.0129,-0.211636 -0.0129,-0.117431 -0.0439,-0.219378 l -0.22067,0.05936 q 0.0297,0.105818 0.0439,0.212926 0.0142,0.107108 0.0142,0.179374 0,0.129046 -0.0594,0.205183 -0.0581,0.07485 -0.23099,0.07485 h -0.13937 v 0.234863 z m 0.22325,-1.542098 -0.18712,0.187116 0.18712,0.187117 0.18712,-0.187117 z"
         style="fill:#ffffff"
         id="path344" /><path
         d="m 106.19088,45.40669 v 1.245292 q 0,0.282611 0.12131,0.414238 0.1213,0.130336 0.36778,0.130336 h 0.031 v -0.234863 h -0.031 q -0.1355,0 -0.20261,-0.06323 -0.0658,-0.06323 -0.0658,-0.245187 V 45.40669 Z"
         style="fill:#ffffff"
         id="path346" /><path
         d="m 105.06173,47.196556 q 0.15486,0 0.29939,-0.02065 0.14453,-0.02194 0.25809,-0.07872 0.11485,-0.05678 0.18066,-0.162598 0.0671,-0.105818 0.0671,-0.276158 0,-0.03355 -0.006,-0.108399 -0.005,-0.07614 -0.0181,-0.162598 -0.0129,-0.08775 -0.0348,-0.154855 l -0.22067,0.05936 q 0.0284,0.105818 0.0439,0.216797 0.0155,0.11098 0.0155,0.171632 0,0.103236 -0.0594,0.161307 -0.0594,0.05807 -0.15228,0.08388 -0.0916,0.02452 -0.19098,0.03097 -0.0994,0.0052 -0.18067,0.0052 h -0.27616 q -0.18711,0 -0.32777,-0.02194 -0.14066,-0.02194 -0.23487,-0.06968 -0.0929,-0.04904 -0.14066,-0.126465 -0.0477,-0.07872 -0.0477,-0.192278 0,-0.05807 0.0129,-0.122594 0.0142,-0.06452 0.0348,-0.121303 l -0.20002,-0.07485 q -0.0323,0.07872 -0.0529,0.163889 -0.0194,0.08517 -0.0194,0.174211 0,0.162598 0.0607,0.281321 0.0619,0.117431 0.18324,0.193568 0.1226,0.07614 0.30455,0.113561 0.18325,0.03742 0.42714,0.03742 z m 0.001,-1.26594 -0.17937,0.179374 0.17937,0.181954 0.18067,-0.181954 z m -0.42843,0 -0.17937,0.179374 0.17937,0.181954 0.18066,-0.181954 z"
         style="fill:#ffffff"
         id="path348" /><path
         d="m 121.0802,49.73747 q 0,0.242606 -0.0516,0.476179 -0.0503,0.232283 -0.15098,0.42198 -0.10066,0.189698 -0.24777,0.301968 l 0.049,0.157436 q 0.14325,-0.07743 0.25939,-0.215507 0.11614,-0.138079 0.19873,-0.320034 0.0839,-0.180664 0.12904,-0.391009 0.0452,-0.210345 0.0452,-0.431013 0,-0.220669 -0.0452,-0.431014 -0.0452,-0.210344 -0.12904,-0.391009 -0.0826,-0.181954 -0.19873,-0.320033 -0.11614,-0.13808 -0.25939,-0.215507 l -0.049,0.157436 q 0.14711,0.11227 0.24777,0.301967 0.10065,0.189698 0.15098,0.423271 0.0516,0.232282 0.0516,0.474889 z"
         id="path350" /><path
         d="m 119.34324,50.500131 q 0.10324,0 0.20131,-0.04646 0.0981,-0.04646 0.17034,-0.150983 0.0478,0.0942 0.12647,0.145822 0.08,0.05162 0.2026,0.05162 0.15227,-0.0013 0.24132,-0.07614 0.089,-0.07614 0.12775,-0.202602 0.0387,-0.127756 0.0387,-0.282611 0,-0.0942 -0.0129,-0.192278 -0.0129,-0.09807 -0.0439,-0.200021 l -0.22066,0.05936 q 0.0297,0.105818 0.0439,0.193569 0.0142,0.08775 0.0142,0.160017 0,0.08646 -0.0219,0.156145 -0.0207,0.06839 -0.0632,0.109689 -0.0426,0.04 -0.10582,0.04 -0.071,0 -0.11872,-0.04 -0.0465,-0.04 -0.071,-0.103236 -0.0232,-0.06323 -0.0284,-0.132918 l -0.0207,-0.263253 -0.2155,0.0271 q 0.005,0.0542 0.008,0.09033 0.003,0.03484 0.004,0.06065 10e-4,0.02452 10e-4,0.04775 0,0.138079 -0.0594,0.22583 -0.0581,0.08775 -0.19486,0.08775 -0.0761,0 -0.12775,-0.03871 -0.0516,-0.03871 -0.08,-0.101947 -0.0271,-0.06323 -0.0323,-0.135498 l -0.0207,-0.263253 -0.21551,0.0271 q 0.005,0.0542 0.008,0.09033 0.003,0.03613 0.004,0.06065 0.001,0.02452 0.001,0.04775 0,0.162598 -0.0826,0.238735 -0.0826,0.07485 -0.24777,0.07485 h -0.0929 v 0.234864 h 0.0903 q 0.17421,0 0.27487,-0.05033 0.10065,-0.05162 0.1613,-0.147112 0.0477,0.09549 0.12776,0.147112 0.0813,0.05033 0.2297,0.05033 z"
         id="path352" /><path
         d="m 117.98697,48.710264 v 1.245293 q 0,0.282611 0.1213,0.414238 0.1213,0.130336 0.36778,0.130336 h 0.031 v -0.234864 h -0.031 q -0.1355,0 -0.2026,-0.06323 -0.0658,-0.06323 -0.0658,-0.245187 v -1.246584 z"
         id="path354" /><path
         d="m 117.00622,50.265267 v 0.234864 h 0.10453 q 0.25035,0 0.36649,-0.136789 0.11743,-0.138079 0.11743,-0.406494 V 48.710264 H 117.374 v 1.247874 q 0,0.131627 -0.0542,0.219378 -0.0529,0.08775 -0.20776,0.08775 z"
         id="path356" /><path
         d="m 116.08612,50.265267 v 0.234864 h 0.0619 v -0.234864 z m 0.26584,0.432304 -0.18712,0.187117 0.18712,0.187116 0.18711,-0.187116 z m 0.17808,-0.98591 q 0.005,0.05549 0.008,0.110979 0.004,0.05549 0.004,0.117432 0,0.152274 -0.071,0.238735 -0.0697,0.08646 -0.23357,0.08646 h -0.12131 v 0.234864 h 0.12131 q 0.12388,0 0.23744,-0.04775 0.11356,-0.04775 0.18325,-0.149693 0.0348,0.06323 0.0839,0.107108 0.049,0.04387 0.11872,0.0671 0.0697,0.02323 0.16518,0.02323 h 0.0284 v -0.234864 h -0.0258 q -0.0826,0 -0.13937,-0.03484 -0.0555,-0.03484 -0.0865,-0.09678 -0.031,-0.06323 -0.0361,-0.145822 l -0.0206,-0.301968 z"
         id="path358" /><path
         d="m 115.61769,48.710264 v 1.245293 q 0,0.282611 0.1213,0.414238 0.1213,0.130336 0.36778,0.130336 h 0.031 v -0.234864 h -0.031 q -0.1355,0 -0.2026,-0.06323 -0.0658,-0.06323 -0.0658,-0.245187 v -1.246584 z"
         id="path360" /><path
         d="m 114.48853,50.500131 q 0.15486,0 0.29939,-0.02065 0.14453,-0.02194 0.25809,-0.07872 0.11485,-0.05678 0.18067,-0.162598 0.0671,-0.105818 0.0671,-0.276158 0,-0.03355 -0.006,-0.108399 -0.005,-0.07614 -0.0181,-0.162598 -0.0129,-0.08775 -0.0348,-0.154855 l -0.22067,0.05936 q 0.0284,0.105818 0.0439,0.216797 0.0155,0.11098 0.0155,0.171631 0,0.103237 -0.0594,0.161308 -0.0594,0.05807 -0.15227,0.08388 -0.0916,0.02452 -0.19099,0.03097 -0.0994,0.0052 -0.18067,0.0052 h -0.27615 q -0.18712,0 -0.32778,-0.02194 -0.14066,-0.02194 -0.23486,-0.06968 -0.0929,-0.04904 -0.14066,-0.126465 -0.0477,-0.07872 -0.0477,-0.192278 0,-0.05807 0.0129,-0.122594 0.0142,-0.06452 0.0348,-0.121303 l -0.20002,-0.07485 q -0.0323,0.07872 -0.0529,0.163888 -0.0194,0.08517 -0.0194,0.174212 0,0.162598 0.0607,0.28132 0.0619,0.117432 0.18325,0.193569 0.12259,0.07614 0.30454,0.113561 0.18325,0.03742 0.42715,0.03742 z m 0.001,-1.26594 -0.17937,0.179374 0.17937,0.181954 0.18067,-0.181954 z m -0.42843,0 -0.17937,0.179374 0.17937,0.181954 0.18067,-0.181954 z"
         id="path362" /><path
         d="m 112.20442,48.710264 h -0.22067 v 1.788577 h 0.22067 z"
         id="path364" /><path
         d="m 111.003,50.265267 v 0.234864 h 0.10453 q 0.25035,0 0.36649,-0.136789 0.11743,-0.138079 0.11743,-0.406494 v -1.246584 h -0.22066 v 1.247874 q 0,0.131627 -0.0542,0.219378 -0.0529,0.08775 -0.20777,0.08775 z"
         id="path366" /><path
         d="m 109.93192,48.790273 -0.17421,0.174212 0.17421,0.174212 0.17421,-0.174212 z m 0.22067,0.326486 -0.17421,0.174212 0.17421,0.174212 0.17421,-0.174212 z m -0.44134,0 -0.17421,0.174212 0.17421,0.174212 0.17422,-0.174212 z m 0.63362,1.383372 q 0.12646,0 0.19615,-0.05162 0.071,-0.05162 0.12517,-0.147113 0.0336,0.09937 0.12389,0.149694 0.0903,0.04904 0.22583,0.04904 h 0.0335 v -0.234864 h -0.0361 q -0.0787,0 -0.13421,-0.03484 -0.0542,-0.03484 -0.0852,-0.09678 -0.031,-0.06194 -0.0361,-0.144532 l -0.0206,-0.290353 -0.21551,0.02581 q 0.006,0.08259 0.009,0.132917 0.004,0.05033 0.004,0.09679 0,0.09291 -0.0219,0.163888 -0.0207,0.06968 -0.0632,0.108399 -0.0413,0.03871 -0.10582,0.03871 -0.0736,0 -0.1213,-0.04 -0.0465,-0.04 -0.071,-0.103236 -0.0232,-0.06323 -0.0284,-0.132918 l -0.0207,-0.263253 -0.2155,0.0271 q 0.005,0.0542 0.008,0.09033 0.003,0.03484 0.004,0.06065 0.001,0.02452 0.001,0.04775 0,0.138079 -0.0594,0.22583 -0.0581,0.08775 -0.19486,0.08775 -0.0761,0 -0.12775,-0.03871 -0.0516,-0.03871 -0.08,-0.101947 -0.0271,-0.06323 -0.0323,-0.135498 l -0.0207,-0.263253 -0.21551,0.0271 q 0.005,0.0542 0.008,0.09033 0.003,0.03613 0.004,0.06065 0.001,0.02452 0.001,0.04775 0,0.162598 -0.0826,0.238735 -0.0826,0.07485 -0.24777,0.07485 h -0.0929 v 0.234864 h 0.0903 q 0.17421,0 0.27487,-0.05033 0.10065,-0.05162 0.1613,-0.147112 0.0478,0.09549 0.12776,0.147112 0.0813,0.05033 0.2297,0.05033 0.10324,0 0.20131,-0.04646 0.0981,-0.04646 0.17034,-0.150983 0.0477,0.0942 0.12647,0.145822 0.08,0.05162 0.20389,0.05162 z"
         id="path368" /><path
         d="m 108.80664,50.265267 h -0.0697 q -0.1226,0 -0.20648,-0.01936 -0.0826,-0.02065 -0.12517,-0.06452 -0.0426,-0.04517 -0.0439,-0.116142 0.0839,-0.04 0.15228,-0.05936 0.0684,-0.01936 0.12388,-0.02452 v -0.22325 q -0.0581,-0.0039 -0.1213,-0.01678 -0.0632,-0.0129 -0.1355,-0.03742 -0.071,-0.02452 -0.15614,-0.06194 -0.0852,-0.03742 -0.1897,-0.08775 -0.12001,-0.05807 -0.22325,-0.09291 -0.10195,-0.03613 -0.18583,-0.03613 -0.15227,0 -0.27874,0.08388 -0.12517,0.08259 -0.21034,0.220668 l -0.0194,0.03097 0.19744,0.09678 0.0348,-0.04387 q 0.0503,-0.06452 0.1226,-0.109689 0.0736,-0.04646 0.15227,-0.04646 0.0336,0 0.0839,0.01549 0.0503,0.0142 0.12001,0.04129 0.0697,0.0271 0.16131,0.06452 0.0632,0.02452 0.10195,0.04259 0.0387,0.01678 0.0723,0.03097 0.0349,0.01419 0.0839,0.03226 -0.19227,0.100656 -0.36778,0.187117 -0.17421,0.08646 -0.35229,0.14066 -0.1768,0.05291 -0.3794,0.05291 h -0.21679 v 0.234864 h 0.21292 q 0.18454,0 0.36004,-0.04775 0.1755,-0.04775 0.34713,-0.126465 0.17163,-0.07872 0.34197,-0.171631 0.0181,0.120013 0.0774,0.19744 0.0594,0.07614 0.17163,0.11227 0.11356,0.03613 0.28907,0.03613 h 0.0748 z"
         id="path370" /><path
         d="m 105.92376,49.502606 -0.18712,0.187117 0.18712,0.187116 0.18711,-0.187116 z m 0.0142,1.429829 q -0.20518,0 -0.32261,-0.06839 -0.11743,-0.06839 -0.16776,-0.183245 -0.049,-0.114851 -0.049,-0.25422 0,-0.117432 0.0258,-0.242606 0.0258,-0.125175 0.0632,-0.243897 l -0.20518,-0.08259 q -0.049,0.136789 -0.0774,0.281321 -0.0284,0.14324 -0.0284,0.280029 0,0.202602 0.0736,0.371652 0.0748,0.170341 0.24131,0.272287 0.16776,0.101946 0.4465,0.101946 0.26842,0 0.43747,-0.0942 0.17034,-0.0942 0.25164,-0.261963 0.0813,-0.16647 0.0826,-0.381976 0.0413,0.04 0.0877,0.05678 0.0478,0.01678 0.13808,0.01678 h 0.0439 v -0.234864 h -0.049 q -0.10582,0 -0.16518,-0.04259 -0.0581,-0.04258 -0.0839,-0.125174 l -0.0955,-0.301968 -0.22067,0.08904 q 0.0361,0.09549 0.0774,0.245187 0.0413,0.149694 0.0413,0.303258 0,0.130336 -0.0477,0.243897 -0.0465,0.114851 -0.16518,0.184536 -0.11743,0.07097 -0.33294,0.07097 z"
         id="path372" /><path
         d="m 104.54813,49.73747 q 0,-0.242607 0.0516,-0.474889 0.0516,-0.233573 0.15098,-0.423271 0.10066,-0.189697 0.24777,-0.301967 l -0.049,-0.157436 q -0.14324,0.07743 -0.25938,0.215507 -0.11614,0.138079 -0.20002,0.320033 -0.0826,0.180665 -0.12776,0.391009 -0.0452,0.210345 -0.0452,0.431014 0,0.220668 0.0452,0.431013 0.0452,0.210345 0.12776,0.391009 0.0839,0.181955 0.20002,0.320034 0.11614,0.138079 0.25938,0.215507 l 0.049,-0.157436 q -0.14711,-0.11227 -0.24777,-0.301968 -0.0994,-0.189697 -0.15098,-0.42198 -0.0516,-0.233573 -0.0516,-0.476179 z"
         id="path374" /></g><g
       id="path8259"><path
         style="color:#000000;fill:#ffffff;stroke-width:0.265;-inkscape-stroke:none"
         d="m 123.36305,47.913212 16.51483,4.054734"
         id="path490" /><path
         style="color:#000000;fill:#ffffff;-inkscape-stroke:none"
         d="m 123.39453,47.785156 -0.0625,0.25586 16.51367,4.054687 0.0645,-0.255859 z"
         id="path492" /><g
         id="g480"><g
           id="path482"><path
             style="color:#000000;fill:#ffffff;fill-rule:evenodd;stroke-width:0.1325pt;-inkscape-stroke:none"
             d="m 140.62035,52.150239 -1.27103,0.37011 0.31593,-1.286783 z"
             id="path486" /><path
             style="color:#000000;fill:#ffffff;fill-rule:evenodd;-inkscape-stroke:none"
             d="m 139.61523,51.064453 -0.38867,1.583984 1.56446,-0.457031 -0.10938,-0.105469 z m 0.0996,0.339844 0.73243,0.703125 -0.97461,0.285156 z"
             id="path488" /></g></g></g><g
       aria-label="بروتون/بروتونات (موجبات الشحن)"
       id="text12296"
       style="font-size:2.64286px;line-height:1.25;font-family:Vazirmatn;-inkscape-font-specification:Vazirmatn;text-align:center;direction:rtl;text-anchor:middle;fill:#4242ff;stroke-width:0.264583"><path
         d="m 181.43049,64.821075 v 0.234864 h 0.0619 v -0.234864 z m 0.26583,0.432304 -0.18712,0.187116 0.18712,0.187117 0.18712,-0.187117 z m -0.0942,-0.19744 q 0.20389,0 0.31358,-0.06968 0.10969,-0.06969 0.15098,-0.189698 0.0426,-0.121303 0.0426,-0.276158 0,-0.0942 -0.0129,-0.211635 -0.0129,-0.117432 -0.0439,-0.219378 l -0.22067,0.05936 q 0.0297,0.105818 0.0439,0.212926 0.0142,0.107108 0.0142,0.179374 0,0.129045 -0.0594,0.205183 -0.0581,0.07485 -0.23099,0.07485 h -0.13937 v 0.234864 z"
         style="fill:#ffffff"
         id="path377" /><path
         d="m 181.44855,65.055939 h 0.0335 v -0.234864 h -0.0477 q -0.0942,0 -0.15615,-0.04517 -0.0619,-0.04517 -0.0903,-0.153564 l -0.0697,-0.269706 -0.21422,0.07227 q 0.0426,0.127756 0.0684,0.250349 0.0258,0.122594 0.0258,0.236154 0,0.150984 -0.0542,0.277449 -0.0542,0.127755 -0.17808,0.219378 -0.12259,0.09162 -0.33165,0.136789 l 0.0761,0.203892 q 0.22841,-0.04 0.38068,-0.160017 0.15228,-0.118722 0.231,-0.28132 0.08,-0.161307 0.089,-0.326486 0.0336,0.0271 0.0903,0.05162 0.0581,0.02323 0.14711,0.02323 z"
         style="fill:#ffffff"
         id="path379" /><path
         d="m 180.36199,64.83527 q 0,-0.136788 -0.0284,-0.267125 -0.0271,-0.131627 -0.0865,-0.237444 -0.0581,-0.105818 -0.1497,-0.16776 -0.0903,-0.06323 -0.21809,-0.06323 -0.10839,0 -0.19098,0.04904 -0.0813,0.04904 -0.1355,0.131627 -0.0542,0.0813 -0.0826,0.180664 -0.0271,0.09936 -0.0271,0.198731 0,0.201311 0.11872,0.300677 0.12001,0.09936 0.3523,0.09936 0.049,0 0.11356,-0.01161 0.0645,-0.01161 0.11356,-0.0271 -0.0207,0.132918 -0.10711,0.236154 -0.0865,0.104527 -0.23228,0.175503 -0.14453,0.07097 -0.34327,0.109689 l 0.0761,0.205183 q 0.27487,-0.05291 0.45811,-0.172922 0.18454,-0.118722 0.27616,-0.304548 0.0929,-0.184536 0.0929,-0.434885 z m -0.44134,-0.009 q -0.13163,0 -0.19615,-0.04 -0.0645,-0.04 -0.0645,-0.134208 0,-0.05807 0.0181,-0.132917 0.0194,-0.07485 0.0658,-0.130337 0.0477,-0.05678 0.13291,-0.05678 0.0619,0 0.1084,0.03097 0.0477,0.03097 0.0813,0.09162 0.0335,0.05936 0.0529,0.144531 0.0206,0.08517 0.0271,0.193569 -0.0555,0.01678 -0.11356,0.02581 -0.0581,0.0077 -0.11227,0.0077 z"
         style="fill:#ffffff"
         id="path381" /><path
         d="m 178.47921,64.821075 v 0.234864 h 0.0916 v -0.234864 z m 0.5678,-1.299492 -0.17938,0.179374 0.17938,0.181955 0.18066,-0.181955 z m -0.42843,0 -0.17938,0.179374 0.17938,0.181955 0.18066,-0.181955 z m 0.0619,1.534356 q 0.20389,0 0.31358,-0.06968 0.10969,-0.06969 0.15098,-0.189698 0.0426,-0.121303 0.0426,-0.276158 0,-0.0942 -0.0129,-0.211635 -0.0129,-0.117432 -0.0439,-0.219378 l -0.22067,0.05936 q 0.0297,0.105818 0.0439,0.212926 0.0142,0.107108 0.0142,0.179374 0,0.129045 -0.0594,0.205183 -0.0581,0.07485 -0.23099,0.07485 h -0.13937 v 0.234864 z"
         style="fill:#ffffff"
         id="path383" /><path
         d="m 177.89205,64.099709 q -0.1084,0 -0.1897,0.04904 -0.0813,0.04904 -0.13679,0.131627 -0.0542,0.0813 -0.0813,0.180664 -0.0271,0.09936 -0.0271,0.198731 0,0.198731 0.12131,0.298096 0.12259,0.09807 0.36778,0.09807 h 0.20389 q -0.031,0.126465 -0.11743,0.221959 -0.0852,0.09549 -0.22583,0.161307 -0.13937,0.06581 -0.33423,0.103237 l 0.0761,0.205183 q 0.27486,-0.05291 0.44133,-0.160017 0.16647,-0.105818 0.25035,-0.245187 0.0852,-0.138079 0.11356,-0.286482 h 0.17551 v -0.234864 h -0.15486 q -0.003,-0.174212 -0.0387,-0.308419 -0.0349,-0.134208 -0.0994,-0.225831 -0.0645,-0.09291 -0.15227,-0.139369 -0.0865,-0.04775 -0.19228,-0.04775 z m 0.0413,0.721366 q -0.13679,0 -0.19873,-0.03871 -0.0607,-0.04 -0.0607,-0.130336 0,-0.05807 0.0181,-0.132917 0.0194,-0.07485 0.0658,-0.130337 0.0478,-0.05678 0.13034,-0.05678 0.0619,0 0.10969,0.02968 0.0477,0.02968 0.0813,0.09033 0.0335,0.06065 0.0542,0.153565 0.0206,0.09162 0.0284,0.215506 z"
         style="fill:#ffffff"
         id="path385" /><path
         d="m 176.41447,63.960339 -0.18711,0.187117 0.18711,0.187116 0.18712,-0.187116 z m 0.0155,1.4337 q -0.20519,0 -0.32262,-0.06839 -0.11743,-0.06839 -0.16776,-0.183246 -0.049,-0.11485 -0.049,-0.25422 0,-0.117432 0.0258,-0.242606 0.0258,-0.125175 0.0632,-0.243897 l -0.20519,-0.08259 q -0.049,0.136788 -0.0774,0.28132 -0.0284,0.143241 -0.0284,0.280029 0,0.202602 0.0736,0.371652 0.0748,0.170341 0.24132,0.272287 0.16776,0.101947 0.4465,0.101947 0.2697,0 0.44004,-0.09549 0.17034,-0.09549 0.25035,-0.264544 0.0813,-0.169051 0.0813,-0.387138 0,-0.141951 -0.0323,-0.298096 -0.031,-0.157436 -0.0916,-0.323905 l -0.22067,0.08904 q 0.0361,0.09549 0.0774,0.245187 0.0413,0.149694 0.0413,0.303258 0,0.130337 -0.0478,0.243897 -0.0464,0.114851 -0.16517,0.184536 -0.11744,0.07098 -0.33294,0.07098 z"
         style="fill:#ffffff"
         id="path387" /><path
         d="m 174.6801,65.217246 0.7833,-2.040216 h -0.20389 l -0.7846,2.040216 z"
         style="fill:#ffffff"
         id="path389" /><path
         d="m 173.64515,64.821075 v 0.234864 h 0.0619 v -0.234864 z m 0.26583,0.432304 -0.18711,0.187116 0.18711,0.187117 0.18712,-0.187117 z m -0.0942,-0.19744 q 0.20389,0 0.31358,-0.06968 0.10969,-0.06969 0.15098,-0.189698 0.0426,-0.121303 0.0426,-0.276158 0,-0.0942 -0.0129,-0.211635 -0.0129,-0.117432 -0.0439,-0.219378 l -0.22067,0.05936 q 0.0297,0.105818 0.0439,0.212926 0.0142,0.107108 0.0142,0.179374 0,0.129045 -0.0594,0.205183 -0.0581,0.07485 -0.23099,0.07485 h -0.13937 v 0.234864 z"
         style="fill:#ffffff"
         id="path391" /><path
         d="m 173.66321,65.055939 h 0.0336 v -0.234864 h -0.0477 q -0.0942,0 -0.15615,-0.04517 -0.0619,-0.04517 -0.0903,-0.153564 l -0.0697,-0.269706 -0.21422,0.07227 q 0.0426,0.127756 0.0684,0.250349 0.0258,0.122594 0.0258,0.236154 0,0.150984 -0.0542,0.277449 -0.0542,0.127755 -0.17808,0.219378 -0.12259,0.09162 -0.33165,0.136789 l 0.0761,0.203892 q 0.22841,-0.04 0.38069,-0.160017 0.15227,-0.118722 0.23099,-0.28132 0.08,-0.161307 0.089,-0.326486 0.0335,0.0271 0.0903,0.05162 0.0581,0.02323 0.14711,0.02323 z"
         style="fill:#ffffff"
         id="path393" /><path
         d="m 172.57665,64.83527 q 0,-0.136788 -0.0284,-0.267125 -0.0271,-0.131627 -0.0865,-0.237444 -0.0581,-0.105818 -0.1497,-0.16776 -0.0903,-0.06323 -0.21808,-0.06323 -0.1084,0 -0.19099,0.04904 -0.0813,0.04904 -0.1355,0.131627 -0.0542,0.0813 -0.0826,0.180664 -0.0271,0.09936 -0.0271,0.198731 0,0.201311 0.11872,0.300677 0.12002,0.09936 0.3523,0.09936 0.049,0 0.11356,-0.01161 0.0645,-0.01161 0.11356,-0.0271 -0.0206,0.132918 -0.10711,0.236154 -0.0865,0.104527 -0.23228,0.175503 -0.14453,0.07097 -0.34326,0.109689 l 0.0761,0.205183 q 0.27487,-0.05291 0.45812,-0.172922 0.18453,-0.118722 0.27615,-0.304548 0.0929,-0.184536 0.0929,-0.434885 z m -0.44134,-0.009 q -0.13163,0 -0.19615,-0.04 -0.0645,-0.04 -0.0645,-0.134208 0,-0.05807 0.0181,-0.132917 0.0194,-0.07485 0.0658,-0.130337 0.0477,-0.05678 0.13291,-0.05678 0.0619,0 0.1084,0.03097 0.0478,0.03097 0.0813,0.09162 0.0336,0.05936 0.0529,0.144531 0.0207,0.08517 0.0271,0.193569 -0.0555,0.01678 -0.11356,0.02581 -0.0581,0.0077 -0.11227,0.0077 z"
         style="fill:#ffffff"
         id="path395" /><path
         d="m 170.69387,64.821075 v 0.234864 h 0.0916 v -0.234864 z m 0.5678,-1.299492 -0.17937,0.179374 0.17937,0.181955 0.18066,-0.181955 z m -0.42843,0 -0.17938,0.179374 0.17938,0.181955 0.18066,-0.181955 z m 0.0619,1.534356 q 0.20389,0 0.31358,-0.06968 0.10969,-0.06969 0.15098,-0.189698 0.0426,-0.121303 0.0426,-0.276158 0,-0.0942 -0.0129,-0.211635 -0.0129,-0.117432 -0.0439,-0.219378 l -0.22067,0.05936 q 0.0297,0.105818 0.0439,0.212926 0.0142,0.107108 0.0142,0.179374 0,0.129045 -0.0594,0.205183 -0.0581,0.07485 -0.23099,0.07485 h -0.13937 v 0.234864 z"
         style="fill:#ffffff"
         id="path397" /><path
         d="m 170.10671,64.099709 q -0.1084,0 -0.1897,0.04904 -0.0813,0.04904 -0.13679,0.131627 -0.0542,0.0813 -0.0813,0.180664 -0.0271,0.09936 -0.0271,0.198731 0,0.198731 0.12131,0.298096 0.12259,0.09807 0.36778,0.09807 h 0.20389 q -0.031,0.126465 -0.11743,0.221959 -0.0852,0.09549 -0.22583,0.161307 -0.13937,0.06581 -0.33423,0.103237 l 0.0761,0.205183 q 0.27486,-0.05291 0.44133,-0.160017 0.16647,-0.105818 0.25035,-0.245187 0.0852,-0.138079 0.11356,-0.286482 h 0.17551 v -0.234864 h -0.15486 q -0.003,-0.174212 -0.0387,-0.308419 -0.0349,-0.134208 -0.0994,-0.225831 -0.0645,-0.09291 -0.15227,-0.139369 -0.0865,-0.04775 -0.19228,-0.04775 z m 0.0413,0.721366 q -0.13679,0 -0.19873,-0.03871 -0.0607,-0.04 -0.0607,-0.130336 0,-0.05807 0.0181,-0.132917 0.0194,-0.07485 0.0658,-0.130337 0.0478,-0.05678 0.13034,-0.05678 0.0619,0 0.10969,0.02968 0.0477,0.02968 0.0813,0.09033 0.0335,0.06065 0.0542,0.153565 0.0207,0.09162 0.0284,0.215506 z"
         style="fill:#ffffff"
         id="path399" /><path
         d="m 168.90916,65.055939 q 0.2039,0 0.31358,-0.06968 0.10969,-0.06969 0.15099,-0.189698 0.0426,-0.121303 0.0426,-0.276158 0,-0.0942 -0.0129,-0.211635 -0.0129,-0.117432 -0.0439,-0.219378 l -0.22067,0.05936 q 0.0297,0.105818 0.0439,0.212926 0.0142,0.107108 0.0142,0.179374 0,0.129045 -0.0594,0.205183 -0.0581,0.07485 -0.23099,0.07485 h -0.13937 v 0.234864 z m 0.22325,-1.542099 -0.18711,0.187117 0.18711,0.187116 0.18712,-0.187116 z"
         style="fill:#ffffff"
         id="path401" /><path
         d="m 168.2949,63.266072 v 1.245293 q 0,0.282611 0.12131,0.414237 0.1213,0.130337 0.36778,0.130337 h 0.031 v -0.234864 h -0.031 q -0.1355,0 -0.2026,-0.06323 -0.0658,-0.06323 -0.0658,-0.245187 v -1.246584 z"
         style="fill:#ffffff"
         id="path403" /><path
         d="m 167.16575,65.055939 q 0.15486,0 0.29939,-0.02065 0.14453,-0.02194 0.25809,-0.07872 0.11485,-0.05678 0.18067,-0.162597 0.0671,-0.105818 0.0671,-0.276159 0,-0.03355 -0.006,-0.108398 -0.005,-0.07614 -0.0181,-0.162598 -0.0129,-0.08775 -0.0348,-0.154855 l -0.22067,0.05936 q 0.0284,0.105818 0.0439,0.216797 0.0155,0.11098 0.0155,0.171631 0,0.103237 -0.0594,0.161308 -0.0594,0.05807 -0.15227,0.08388 -0.0916,0.02452 -0.19099,0.03097 -0.0994,0.0052 -0.18067,0.0052 h -0.27615 q -0.18712,0 -0.32778,-0.02194 -0.14066,-0.02194 -0.23486,-0.06968 -0.0929,-0.04904 -0.14066,-0.126465 -0.0478,-0.07872 -0.0478,-0.192279 0,-0.05807 0.0129,-0.122593 0.0142,-0.06452 0.0349,-0.121303 l -0.20003,-0.07485 q -0.0323,0.07872 -0.0529,0.163888 -0.0194,0.08517 -0.0194,0.174212 0,0.162598 0.0607,0.28132 0.0619,0.117432 0.18325,0.193569 0.12259,0.07614 0.30454,0.11356 0.18325,0.03742 0.42715,0.03742 z m 0.001,-1.265941 -0.17937,0.179374 0.17937,0.181955 0.18067,-0.181955 z m -0.42843,0 -0.17937,0.179374 0.17937,0.181955 0.18067,-0.181955 z"
         style="fill:#ffffff"
         id="path405" /><path
         d="m 182.69384,67.596852 q 0,0.242607 -0.0516,0.47618 -0.0503,0.232282 -0.15099,0.42198 -0.10065,0.189697 -0.24777,0.301967 l 0.049,0.157436 q 0.14324,-0.07743 0.25938,-0.215506 0.11615,-0.13808 0.19873,-0.320034 0.0839,-0.180665 0.12905,-0.391009 0.0452,-0.210345 0.0452,-0.431014 0,-0.220668 -0.0452,-0.431013 -0.0452,-0.210345 -0.12905,-0.391009 -0.0826,-0.181955 -0.19873,-0.320034 -0.11614,-0.138079 -0.25938,-0.215506 l -0.049,0.157436 q 0.14712,0.11227 0.24777,0.301967 0.10066,0.189697 0.15099,0.423271 0.0516,0.232282 0.0516,0.474888 z"
         style="fill:#ff2b2b"
         id="path407" /><path
         d="m 181.59696,67.662666 q 0.11743,0 0.18324,0.08646 0.0671,0.08517 0.0671,0.219378 0,0.0942 -0.0477,0.143241 -0.0465,0.04904 -0.14324,0.04904 -0.0374,0 -0.0865,-0.01678 -0.0478,-0.01678 -0.10195,-0.05162 -0.0387,-0.02452 -0.0787,-0.05678 -0.04,-0.03355 -0.0813,-0.07614 0.0336,-0.07356 0.0761,-0.14195 0.0426,-0.06839 0.0955,-0.11098 0.0529,-0.04387 0.11744,-0.04387 z m 0.0619,0.726528 q 0.12904,0 0.21938,-0.05162 0.0916,-0.05291 0.13937,-0.150984 0.0477,-0.09937 0.0477,-0.238735 0,-0.143241 -0.0594,-0.259382 -0.0581,-0.116141 -0.16518,-0.184536 -0.10581,-0.06968 -0.24906,-0.06968 -0.11872,0 -0.20002,0.05033 -0.08,0.04904 -0.13679,0.127756 -0.0568,0.07872 -0.10323,0.16776 -0.0452,0.08775 -0.0916,0.166469 -0.0465,0.07872 -0.10582,0.129046 -0.0594,0.04904 -0.14582,0.04904 h -0.0478 v 0.234864 h 0.0542 q 0.0942,0 0.15743,-0.02194 0.0632,-0.02323 0.11485,-0.0671 0.0516,-0.04388 0.10711,-0.107108 0.0787,0.07485 0.15228,0.125174 0.0736,0.05033 0.14969,0.07485 0.0761,0.02581 0.1626,0.02581 z"
         style="fill:#ff2b2b"
         id="path409" /><path
         d="m 180.171,67.403284 q -0.1084,0 -0.1897,0.04904 -0.0813,0.04904 -0.13679,0.131627 -0.0542,0.0813 -0.0813,0.180664 -0.0271,0.09937 -0.0271,0.198731 0,0.19873 0.12131,0.298096 0.12259,0.09808 0.36778,0.09808 h 0.20389 q -0.031,0.126465 -0.11743,0.221959 -0.0852,0.09549 -0.22583,0.161307 -0.13937,0.06581 -0.33423,0.103237 l 0.0761,0.205183 q 0.27486,-0.05291 0.44133,-0.160017 0.16647,-0.105818 0.25035,-0.245187 0.0852,-0.13808 0.11356,-0.286482 h 0.17551 V 68.12465 h -0.15486 q -0.003,-0.174212 -0.0387,-0.30842 -0.0349,-0.134207 -0.0994,-0.22583 -0.0645,-0.09291 -0.15227,-0.139369 -0.0865,-0.04775 -0.19228,-0.04775 z m 0.0413,0.721366 q -0.13678,0 -0.19873,-0.03871 -0.0607,-0.04 -0.0607,-0.130336 0,-0.05807 0.0181,-0.132917 0.0194,-0.07485 0.0658,-0.130337 0.0478,-0.05678 0.13034,-0.05678 0.0619,0 0.10969,0.02968 0.0477,0.02968 0.0813,0.09033 0.0335,0.06065 0.0542,0.153564 0.0206,0.09162 0.0284,0.215507 z"
         style="fill:#ff2b2b"
         id="path411" /><path
         d="m 178.67148,68.556954 -0.18711,0.187116 0.18711,0.187117 0.18712,-0.187117 z m -0.88267,-0.432304 v 0.234864 h 0.21293 q 0.18195,0 0.34068,-0.03871 0.16001,-0.04 0.31358,-0.108399 0.15485,-0.06839 0.32003,-0.156145 0.13679,-0.07227 0.23229,-0.117432 0.0955,-0.04517 0.16388,-0.06839 0.0684,-0.02323 0.1226,-0.02968 V 67.6175 q -0.0581,-0.0039 -0.12131,-0.01678 -0.0632,-0.01291 -0.13549,-0.03742 -0.071,-0.02452 -0.15615,-0.06194 -0.0852,-0.03742 -0.1897,-0.08775 -0.12001,-0.05807 -0.22325,-0.09291 -0.10194,-0.03613 -0.18582,-0.03613 -0.15228,0 -0.27874,0.08388 -0.12518,0.08259 -0.21035,0.220669 l -0.0194,0.03097 0.19744,0.09678 0.0348,-0.04388 q 0.0503,-0.06452 0.12259,-0.109689 0.0736,-0.04646 0.15228,-0.04646 0.0336,0 0.0839,0.01548 0.0503,0.0142 0.12001,0.04129 0.0697,0.0271 0.16131,0.06452 0.0632,0.02452 0.10194,0.04259 0.0387,0.01678 0.0723,0.03097 0.0348,0.0142 0.0839,0.03226 -0.19228,0.100656 -0.36778,0.187116 -0.17421,0.08646 -0.3523,0.14066 -0.17679,0.05291 -0.37939,0.05291 z"
         style="fill:#ff2b2b"
         id="path413" /><path
         d="m 176.86872,68.12465 v 0.234864 h 0.0619 V 68.12465 Z m 0.26583,0.432304 -0.18712,0.187116 0.18712,0.187117 0.18712,-0.187117 z m 0.17808,-0.985911 q 0.005,0.05549 0.008,0.11098 0.004,0.05549 0.004,0.117431 0,0.152275 -0.071,0.238735 -0.0697,0.08646 -0.23357,0.08646 h -0.1213 v 0.234864 h 0.1213 q 0.12388,0 0.23744,-0.04775 0.11356,-0.04775 0.18325,-0.149694 0.0348,0.06323 0.0839,0.107109 0.049,0.04387 0.11872,0.0671 0.0697,0.02323 0.16518,0.02323 h 0.0284 V 68.12465 h -0.0258 q -0.0826,0 -0.13937,-0.03484 -0.0555,-0.03484 -0.0865,-0.09679 -0.031,-0.06323 -0.0361,-0.145822 l -0.0206,-0.301967 z"
         style="fill:#ff2b2b"
         id="path415" /><path
         d="m 176.40028,66.569647 v 1.245293 q 0,0.28261 0.1213,0.414237 0.1213,0.130337 0.36778,0.130337 h 0.031 V 68.12465 h -0.031 q -0.1355,0 -0.2026,-0.06323 -0.0658,-0.06323 -0.0658,-0.245188 v -1.246583 z"
         style="fill:#ff2b2b"
         id="path417" /><path
         d="m 175.27113,68.359514 q 0.15485,0 0.29938,-0.02065 0.14453,-0.02194 0.25809,-0.07872 0.11486,-0.05678 0.18067,-0.162598 0.0671,-0.105817 0.0671,-0.276158 0,-0.03355 -0.006,-0.108398 -0.005,-0.07614 -0.0181,-0.162598 -0.0129,-0.08775 -0.0348,-0.154855 l -0.22067,0.05936 q 0.0284,0.105818 0.0439,0.216797 0.0155,0.110979 0.0155,0.171631 0,0.103237 -0.0594,0.161307 -0.0594,0.05807 -0.15227,0.08388 -0.0916,0.02452 -0.19099,0.03097 -0.0994,0.0052 -0.18066,0.0052 h -0.27616 q -0.18712,0 -0.32778,-0.02194 -0.14066,-0.02194 -0.23486,-0.06968 -0.0929,-0.04904 -0.14066,-0.126465 -0.0478,-0.07872 -0.0478,-0.192279 0,-0.05807 0.0129,-0.122593 0.0142,-0.06452 0.0348,-0.121304 l -0.20002,-0.07485 q -0.0323,0.07872 -0.0529,0.163888 -0.0194,0.08517 -0.0194,0.174212 0,0.162598 0.0607,0.28132 0.0619,0.117432 0.18325,0.193569 0.12259,0.07614 0.30455,0.11356 0.18324,0.03742 0.42714,0.03742 z m 0.001,-1.265941 -0.17938,0.179374 0.17938,0.181955 0.18066,-0.181955 z m -0.42844,0 -0.17937,0.179374 0.17937,0.181955 0.18067,-0.181955 z"
         style="fill:#ff2b2b"
         id="path419" /><path
         d="m 172.98701,66.569647 h -0.22066 v 1.788576 h 0.22066 z"
         style="fill:#ff2b2b"
         id="path421" /><path
         d="m 171.7856,68.12465 v 0.234864 h 0.10452 q 0.25035,0 0.36649,-0.136789 0.11744,-0.138079 0.11744,-0.406495 v -1.246583 h -0.22067 v 1.247874 q 0,0.131627 -0.0542,0.219378 -0.0529,0.08775 -0.20777,0.08775 z"
         style="fill:#ff2b2b"
         id="path423" /><path
         d="m 170.71452,66.649656 -0.17422,0.174211 0.17422,0.174212 0.17421,-0.174212 z m 0.22066,0.326486 -0.17421,0.174212 0.17421,0.174212 0.17422,-0.174212 z m -0.44133,0 -0.17422,0.174212 0.17422,0.174212 0.17421,-0.174212 z m 0.63361,1.383372 q 0.12647,0 0.19615,-0.05162 0.071,-0.05162 0.12518,-0.147112 0.0335,0.09937 0.12388,0.149693 0.0903,0.04904 0.22583,0.04904 h 0.0336 V 68.12465 h -0.0361 q -0.0787,0 -0.13421,-0.03484 -0.0542,-0.03484 -0.0852,-0.09679 -0.031,-0.06194 -0.0361,-0.144531 l -0.0207,-0.290353 -0.21551,0.02581 q 0.006,0.08259 0.009,0.132917 0.004,0.05033 0.004,0.09678 0,0.09291 -0.0219,0.163888 -0.0206,0.06969 -0.0632,0.108398 -0.0413,0.03871 -0.10582,0.03871 -0.0736,0 -0.1213,-0.04 -0.0465,-0.04 -0.071,-0.103237 -0.0232,-0.06323 -0.0284,-0.132917 l -0.0206,-0.263254 -0.21551,0.0271 q 0.005,0.0542 0.008,0.09033 0.003,0.03484 0.004,0.06065 0.001,0.02452 0.001,0.04775 0,0.138079 -0.0594,0.22583 -0.0581,0.08775 -0.19486,0.08775 -0.0761,0 -0.12775,-0.03871 -0.0516,-0.03871 -0.08,-0.101946 -0.0271,-0.06323 -0.0323,-0.135498 l -0.0206,-0.263254 -0.21551,0.0271 q 0.005,0.0542 0.008,0.09033 0.003,0.03613 0.004,0.06065 10e-4,0.02452 10e-4,0.04775 0,0.162597 -0.0826,0.238734 -0.0826,0.07485 -0.24777,0.07485 h -0.0929 v 0.234864 h 0.0903 q 0.17421,0 0.27487,-0.05033 0.10065,-0.05162 0.16131,-0.147113 0.0477,0.09549 0.12775,0.147113 0.0813,0.05033 0.2297,0.05033 0.10324,0 0.20131,-0.04646 0.0981,-0.04646 0.17034,-0.150984 0.0478,0.0942 0.12647,0.145822 0.08,0.05162 0.20389,0.05162 z"
         style="fill:#ff2b2b"
         id="path425" /><path
         d="m 169.58923,68.12465 h -0.0697 q -0.12259,0 -0.20647,-0.01936 -0.0826,-0.02065 -0.12518,-0.06452 -0.0426,-0.04517 -0.0439,-0.116141 0.0839,-0.04 0.15227,-0.05936 0.0684,-0.01936 0.12388,-0.02452 V 67.6175 q -0.0581,-0.0039 -0.1213,-0.01678 -0.0632,-0.01291 -0.1355,-0.03742 -0.071,-0.02452 -0.15614,-0.06194 -0.0852,-0.03742 -0.1897,-0.08775 -0.12001,-0.05807 -0.22325,-0.09291 -0.10195,-0.03613 -0.18583,-0.03613 -0.15227,0 -0.27873,0.08388 -0.12518,0.08259 -0.21035,0.220669 l -0.0194,0.03097 0.19744,0.09678 0.0348,-0.04388 q 0.0503,-0.06452 0.12259,-0.109689 0.0736,-0.04646 0.15227,-0.04646 0.0336,0 0.0839,0.01548 0.0503,0.0142 0.12002,0.04129 0.0697,0.0271 0.1613,0.06452 0.0632,0.02452 0.10195,0.04259 0.0387,0.01678 0.0723,0.03097 0.0348,0.0142 0.0839,0.03226 -0.19228,0.100656 -0.36778,0.187116 -0.17422,0.08646 -0.3523,0.14066 -0.17679,0.05291 -0.37939,0.05291 h -0.2168 V 68.3595 h 0.21292 q 0.18454,0 0.36004,-0.04775 0.1755,-0.04775 0.34714,-0.126465 0.17163,-0.07872 0.34197,-0.171631 0.0181,0.120012 0.0774,0.19744 0.0594,0.07614 0.17164,0.11227 0.11356,0.03613 0.28906,0.03613 h 0.0748 z"
         style="fill:#ff2b2b"
         id="path427" /><path
         d="m 166.70635,67.361989 -0.18712,0.187116 0.18712,0.187117 0.18712,-0.187117 z m 0.0142,1.429828 q -0.20518,0 -0.32261,-0.06839 -0.11743,-0.06839 -0.16776,-0.183245 -0.049,-0.114851 -0.049,-0.254221 0,-0.117431 0.0258,-0.242606 0.0258,-0.125174 0.0632,-0.243897 l -0.20518,-0.08259 q -0.049,0.136789 -0.0774,0.28132 -0.0284,0.143241 -0.0284,0.28003 0,0.202602 0.0736,0.371652 0.0749,0.17034 0.24132,0.272287 0.16776,0.101946 0.44649,0.101946 0.26842,0 0.43747,-0.0942 0.17034,-0.0942 0.25164,-0.261963 0.0813,-0.166469 0.0826,-0.381976 0.0413,0.04001 0.0877,0.05678 0.0477,0.01678 0.13808,0.01678 h 0.0439 V 68.12465 h -0.049 q -0.10582,0 -0.16518,-0.04259 -0.0581,-0.04259 -0.0839,-0.125175 l -0.0955,-0.301967 -0.22067,0.08904 q 0.0361,0.09549 0.0774,0.245187 0.0413,0.149693 0.0413,0.303258 0,0.130336 -0.0478,0.243897 -0.0464,0.11485 -0.16518,0.184535 -0.11743,0.07097 -0.33294,0.07097 z"
         style="fill:#ff2b2b"
         id="path429" /><path
         d="m 165.33072,67.596852 q 0,-0.242606 0.0516,-0.474888 0.0516,-0.233574 0.15098,-0.423271 0.10066,-0.189697 0.24777,-0.301967 l -0.049,-0.157436 q -0.14324,0.07743 -0.25938,0.215506 -0.11614,0.138079 -0.20002,0.320034 -0.0826,0.180664 -0.12776,0.391009 -0.0452,0.210345 -0.0452,0.431013 0,0.220669 0.0452,0.431014 0.0452,0.210344 0.12776,0.391009 0.0839,0.181954 0.20002,0.320034 0.11614,0.138079 0.25938,0.215506 l 0.049,-0.157436 q -0.14711,-0.11227 -0.24777,-0.301967 -0.0994,-0.189698 -0.15098,-0.42198 -0.0516,-0.233573 -0.0516,-0.47618 z"
         style="fill:#ff2b2b"
         id="path431" /></g><g
       id="path13784"><path
         style="color:#000000;fill:#ffffff;stroke-width:0.265;-inkscape-stroke:none"
         d="M 164.39992,65.693213 147.67424,62.253818"
         id="path378" /><path
         style="color:#000000;fill:#ffffff;-inkscape-stroke:none"
         d="m 147.70117,62.125 -0.0527,0.257812 16.72461,3.439454 0.0527,-0.259766 z"
         id="path380" /><g
         id="g366"><g
           id="path369"><path
             style="color:#000000;fill:#ffffff;fill-rule:evenodd;stroke-width:0.1325pt;-inkscape-stroke:none"
             d="m 146.92538,62.099827 1.25608,-0.418069 -0.26688,1.297844 z"
             id="path373" /><path
             style="color:#000000;fill:#ffffff;fill-rule:evenodd;-inkscape-stroke:none"
             d="m 148.29883,61.548828 -1.54688,0.515625 0.11524,0.101563 1.10351,0.980468 z m -0.23438,0.265625 -0.20508,0.998047 -0.75976,-0.677734 z"
             id="path375" /></g></g></g></g></svg>
