<?xml version="1.0" encoding="UTF-8" standalone="no"?>
<!-- Created with Inkscape (http://www.inkscape.org/) -->

<svg
   width="222.179mm"
   height="72.255005mm"
   viewBox="0 0 222.179 72.255007"
   version="1.1"
   id="svg5"
   xml:space="preserve"
   inkscape:version="1.2 (dc2aedaf03, 2022-05-15)"
   sodipodi:docname="spoon_types.svg"
   inkscape:export-filename="./spoon_types.png"
   inkscape:export-xdpi="180.14958"
   inkscape:export-ydpi="180.14958"
   xmlns:inkscape="http://www.inkscape.org/namespaces/inkscape"
   xmlns:sodipodi="http://sodipodi.sourceforge.net/DTD/sodipodi-0.dtd"
   xmlns="http://www.w3.org/2000/svg"
   xmlns:svg="http://www.w3.org/2000/svg"><sodipodi:namedview
     id="namedview7"
     pagecolor="#121212"
     bordercolor="#666666"
     borderopacity="1.0"
     inkscape:showpageshadow="2"
     inkscape:pageopacity="0"
     inkscape:pagecheckerboard="0"
     inkscape:deskcolor="#d1d1d1"
     inkscape:document-units="mm"
     showgrid="false"
     inkscape:zoom="1.4142136"
     inkscape:cx="440.88107"
     inkscape:cy="226.98127"
     inkscape:window-width="1888"
     inkscape:window-height="1060"
     inkscape:window-x="32"
     inkscape:window-y="0"
     inkscape:window-maximized="1"
     inkscape:current-layer="layer1" /><defs
     id="defs2" /><g
     inkscape:label="Layer 1"
     inkscape:groupmode="layer"
     id="layer1"
     transform="translate(-95.125406,-95.87539)"><rect
       style="fill:none;fill-opacity:1;stroke:#006fbf;stroke-width:0.565;stroke-linecap:round;stroke-linejoin:round;stroke-dasharray:none;stroke-opacity:1"
       id="rect16372"
       width="221.614"
       height="71.690002"
       x="-317.02191"
       y="96.15789"
       transform="scale(-1,1)" /><path
       style="fill:#ffffff;fill-opacity:1;stroke:none;stroke-width:0.264583px;stroke-linecap:butt;stroke-linejoin:miter;stroke-opacity:1"
       d="m 223.2459,119.95587 c 0,0 14.28921,-15.24629 26.2128,-15.18161 11.92359,0.0647 23.92065,14.71142 23.92065,14.71142 0.5827,0.19424 -13.75184,7.28726 -25.73282,7.42501 -11.59136,0.13327 -16.1629,-1.04272 -24.40063,-6.95482 z"
       id="path1078"
       sodipodi:nodetypes="cccsc" /><path
       style="fill:#000000;fill-opacity:0.486275;stroke:none;stroke-width:0.865;stroke-linecap:round;stroke-linejoin:bevel;stroke-dasharray:none;stroke-opacity:1"
       d="m 226.7331,122.20884 -3.64393,-2.35092 c 0.0621,0.1862 28.48542,3.39435 50.19222,-0.18367 0,0 -28.09354,14.99448 -46.54829,2.53459 z"
       id="path1076"
       sodipodi:nodetypes="cccc" /><path
       id="path2480"
       style="fill:none;stroke:#ff2b2b;stroke-width:0.565;stroke-linecap:round;stroke-linejoin:round;stroke-dasharray:none;stroke-opacity:1"
       d="m 223.08917,119.85792 c 0.0621,0.1862 28.56438,3.4846 50.27116,-0.0934 0,0 -28.1725,14.90422 -46.62723,2.44434 -7.78637,-5.25704 -14.73576,-8.35882 -20.16834,-10.1882" /><path
       style="fill:#ffffff;fill-opacity:1;stroke:none;stroke-width:0.264583px;stroke-linecap:butt;stroke-linejoin:miter;stroke-opacity:1"
       d="m 223.2459,152.76423 c 0,0 10.0502,-10.1761 26.2128,-9.5296 16.1626,0.64651 23.92065,9.05941 23.92065,9.05941 0.5827,0.19424 -13.75184,7.28726 -25.73282,7.42501 -11.59136,0.13327 -16.1629,-1.04272 -24.40063,-6.95482 z"
       id="path5492"
       sodipodi:nodetypes="cscsc" /><path
       style="fill:#000000;fill-opacity:0.485993;stroke:none;stroke-width:0.865;stroke-linecap:round;stroke-linejoin:bevel;stroke-dasharray:none;stroke-opacity:1"
       d="m 226.7331,155.0172 -3.64393,-2.35092 c 0.0621,0.1862 28.48542,3.39435 50.19222,-0.18367 0,0 -28.09354,14.99448 -46.54829,2.53459 z"
       id="path5494"
       sodipodi:nodetypes="cccc" /><path
       id="path2483"
       style="fill:none;stroke:#ff2b2b;stroke-width:0.565;stroke-linecap:round;stroke-linejoin:round;stroke-dasharray:none;stroke-opacity:1"
       d="m 223.08917,152.66628 c 0.0621,0.1862 28.56438,3.4846 50.27116,-0.0934 0,0 -28.1725,14.90422 -46.62723,2.44434 -7.78637,-5.25704 -14.73576,-8.35882 -20.16834,-10.1882" /><path
       style="fill:#ffffff;fill-opacity:1;stroke:none;stroke-width:0.264583px;stroke-linecap:butt;stroke-linejoin:miter;stroke-opacity:1"
       d="m 162.2225,113.94387 c 0.5827,0.19424 -13.75184,7.28726 -25.73282,7.42501 -11.59136,0.13327 -16.1629,-1.04272 -24.40063,-6.95482 16.32967,-0.46192 33.02025,-0.6351 50.13345,-0.47019 z"
       id="path6950"
       sodipodi:nodetypes="cscc" /><path
       style="fill:#000000;fill-opacity:0.485993;stroke:none;stroke-width:0.865;stroke-linecap:round;stroke-linejoin:bevel;stroke-dasharray:none;stroke-opacity:1"
       d="m 115.57625,116.66703 -3.64393,-2.35092 c 0.0621,0.1862 28.48542,3.39435 50.19222,-0.18367 0,0 -28.09354,14.99448 -46.54829,2.53459 z"
       id="path6952"
       sodipodi:nodetypes="cccc" /><path
       id="path2486"
       style="fill:none;stroke:#ff2b2b;stroke-width:0.565;stroke-linecap:round;stroke-linejoin:round;stroke-dasharray:none;stroke-opacity:1"
       d="m 111.93232,114.31611 c 0.0621,0.1862 28.56438,3.4846 50.27116,-0.0934 0,0 -28.1725,14.90422 -46.62723,2.44434 -7.78637,-5.25704 -14.73576,-8.35882 -20.168344,-10.1882" /><path
       style="fill:#ffffff;fill-opacity:1;stroke:none;stroke-width:0.264583px;stroke-linecap:butt;stroke-linejoin:miter;stroke-opacity:1"
       d="m 154.05304,154.4532 c 0.5827,0.19424 -8.05085,3.64333 -17.56336,3.9574 -11.58581,0.38252 -11.22596,-0.45499 -19.58124,-3.83985 z"
       id="path8408"
       sodipodi:nodetypes="cscc" /><path
       style="fill:#000000;fill-opacity:0.485993;stroke:none;stroke-width:0.865;stroke-linecap:round;stroke-linejoin:bevel;stroke-dasharray:none;stroke-opacity:1"
       d="m 115.57625,153.70875 -3.64393,-2.35092 c 0.0621,0.1862 28.48542,3.39435 50.19222,-0.18367 0,0 -28.09354,14.99448 -46.54829,2.53459 z"
       id="path8410"
       sodipodi:nodetypes="cccc" /><path
       id="path3220"
       style="fill:none;stroke:#ff2b2b;stroke-width:0.565;stroke-linecap:round;stroke-linejoin:round;stroke-dasharray:none;stroke-opacity:1"
       d="m 111.93232,151.35783 c 0.0621,0.1862 28.56438,3.4846 50.27116,-0.0934 0,0 -28.1725,14.90422 -46.62723,2.44434 -7.78637,-5.25704 -14.73576,-8.35882 -20.168344,-10.1882" /><text
       xml:space="preserve"
       style="font-style:normal;font-variant:normal;font-weight:normal;font-stretch:normal;font-size:10.5833px;line-height:1.25;font-family:Vazirmatn;-inkscape-font-specification:Vazirmatn;fill:#ffffff;fill-opacity:1;stroke:none;stroke-width:0.264583"
       x="173.6754"
       y="155.23955"
       id="text14812"><tspan
         sodipodi:role="line"
         id="tspan14810"
         style="font-style:normal;font-variant:normal;font-weight:normal;font-stretch:normal;font-family:Vazirmatn;-inkscape-font-specification:Vazirmatn;fill:#ffffff;stroke-width:0.264583"
         x="173.6754"
         y="155.23955">حفنة</tspan></text><text
       xml:space="preserve"
       style="font-style:normal;font-variant:normal;font-weight:normal;font-stretch:normal;font-size:10.5833px;line-height:1.25;font-family:Vazirmatn;-inkscape-font-specification:Vazirmatn;fill:#ffffff;fill-opacity:1;stroke:none;stroke-width:0.264583"
       x="168.50261"
       y="118.13589"
       id="text16268"><tspan
         sodipodi:role="line"
         id="tspan16266"
         style="font-style:normal;font-variant:normal;font-weight:normal;font-stretch:normal;font-family:Vazirmatn;-inkscape-font-specification:Vazirmatn;fill:#ffffff;stroke-width:0.264583"
         x="168.50261"
         y="118.13589">مستوية</tspan></text><text
       xml:space="preserve"
       style="font-style:normal;font-variant:normal;font-weight:normal;font-stretch:normal;font-size:10.5833px;line-height:1.25;font-family:Vazirmatn;-inkscape-font-specification:Vazirmatn;fill:#ffffff;fill-opacity:1;stroke:none;stroke-width:0.264583"
       x="277.71387"
       y="153.1973"
       id="text16272"><tspan
         sodipodi:role="line"
         id="tspan16270"
         style="font-style:normal;font-variant:normal;font-weight:normal;font-stretch:normal;font-family:Vazirmatn;-inkscape-font-specification:Vazirmatn;fill:#ffffff;stroke-width:0.264583"
         x="277.71387"
         y="153.1973">مستديرة</tspan></text><text
       xml:space="preserve"
       style="font-style:normal;font-variant:normal;font-weight:normal;font-stretch:normal;font-size:10.5833px;line-height:1.25;font-family:Vazirmatn;-inkscape-font-specification:Vazirmatn;fill:#ffffff;fill-opacity:1;stroke:none;stroke-width:0.264583"
       x="286.05701"
       y="117.66464"
       id="text16276"><tspan
         sodipodi:role="line"
         id="tspan16274"
         style="font-style:normal;font-variant:normal;font-weight:normal;font-stretch:normal;font-family:Vazirmatn;-inkscape-font-specification:Vazirmatn;fill:#ffffff;stroke-width:0.264583"
         x="286.05701"
         y="117.66464">غرفة</tspan></text><path
       style="fill:#ffffff;stroke:#006fbf;stroke-width:0.565;stroke-linecap:butt;stroke-linejoin:miter;stroke-dasharray:none;stroke-opacity:1"
       d="m 95.40791,132.00288 h 221.614"
       id="path6588" /><path
       style="fill:#ffffff;stroke:#006fbf;stroke-width:0.565;stroke-linecap:butt;stroke-linejoin:miter;stroke-dasharray:none;stroke-opacity:1"
       d="M 206.22089,167.84789 V 96.157887"
       id="path312" /></g></svg>
